<svg id="visual" viewBox="0 0 900 600" width="900" height="600" xmlns="http://www.w3.org/2000/svg" xmlns:xlink="http://www.w3.org/1999/xlink" version="1.1"><g stroke-width="1" stroke-linejoin="bevel"><path d="M436.4 337.3L387.2 364.3L466.6 363.3Z" fill="#241100" stroke="#241100"></path><path d="M387.2 364.3L400.4 425L466.6 363.3Z" fill="#1a0000" stroke="#1a0000"></path><path d="M400.4 425L455.6 427.7L466.6 363.3Z" fill="#1c0000" stroke="#1c0000"></path><path d="M416.4 437.7L453.6 432L455.6 427.7Z" fill="#271500" stroke="#271500"></path><path d="M400.4 425L416.4 437.7L455.6 427.7Z" fill="#271500" stroke="#271500"></path><path d="M387.2 364.3L341.2 437L400.4 425Z" fill="#000000" stroke="#000000"></path><path d="M400.4 425L341.2 437L416.4 437.7Z" fill="#1d0200" stroke="#1d0200"></path><path d="M322.2 268.7L314.9 393L387.2 364.3Z" fill="#220c00" stroke="#220c00"></path><path d="M387.2 364.3L314.9 393L341.2 437Z" fill="#271500" stroke="#271500"></path><path d="M455.6 427.7L541.8 377L466.6 363.3Z" fill="#1a0000" stroke="#1a0000"></path><path d="M498.6 254.7L433.4 240.7L436.4 337.3Z" fill="#1c0000" stroke="#1c0000"></path><path d="M530.8 455.7L541.8 377L455.6 427.7Z" fill="#1d0200" stroke="#1d0200"></path><path d="M314.9 393L324.2 432.7L341.2 437Z" fill="#261300" stroke="#261300"></path><path d="M445.6 571.3L530.8 455.7L453.6 432Z" fill="#220c00" stroke="#220c00"></path><path d="M453.6 432L530.8 455.7L455.6 427.7Z" fill="#1c0000" stroke="#1c0000"></path><path d="M381.4 521.3L453.6 432L416.4 437.7Z" fill="#1c0000" stroke="#1c0000"></path><path d="M324.2 432.7L318.9 452.7L341.2 437Z" fill="#1f0600" stroke="#1f0600"></path><path d="M341.2 437L381.4 521.3L416.4 437.7Z" fill="#1d0200" stroke="#1d0200"></path><path d="M214.7 387L318.9 452.7L324.2 432.7Z" fill="#1d0200" stroke="#1d0200"></path><path d="M498.6 254.7L436.4 337.3L466.6 363.3Z" fill="#200900" stroke="#200900"></path><path d="M436.4 337.3L322.2 268.7L387.2 364.3Z" fill="#1d0200" stroke="#1d0200"></path><path d="M559.8 324.3L498.6 254.7L466.6 363.3Z" fill="#1c0000" stroke="#1c0000"></path><path d="M596.1 408L559.8 324.3L541.8 377Z" fill="#1f0600" stroke="#1f0600"></path><path d="M541.8 377L559.8 324.3L466.6 363.3Z" fill="#200900" stroke="#200900"></path><path d="M318.9 452.7L381.4 521.3L341.2 437Z" fill="#1d0200" stroke="#1d0200"></path><path d="M433.4 240.7L322.2 268.7L436.4 337.3Z" fill="#271500" stroke="#271500"></path><path d="M530.8 455.7L581.1 432.7L541.8 377Z" fill="#200900" stroke="#200900"></path><path d="M449.4 182L375.2 222L433.4 240.7Z" fill="#241100" stroke="#241100"></path><path d="M433.4 240.7L375.2 222L322.2 268.7Z" fill="#000000" stroke="#000000"></path><path d="M449.4 182L466.6 218L512.8 128.3Z" fill="#230f00" stroke="#230f00"></path><path d="M498.6 254.7L466.6 218L433.4 240.7Z" fill="#1f0600" stroke="#1f0600"></path><path d="M284.9 241L287.9 283.7L322.2 268.7Z" fill="#271500" stroke="#271500"></path><path d="M322.2 268.7L287.9 283.7L314.9 393Z" fill="#271500" stroke="#271500"></path><path d="M314.9 393L235.9 370.3L324.2 432.7Z" fill="#200900" stroke="#200900"></path><path d="M581.1 432.7L596.1 408L541.8 377Z" fill="#271500" stroke="#271500"></path><path d="M650.1 321.3L576.8 293.7L559.8 324.3Z" fill="#261300" stroke="#261300"></path><path d="M559.8 324.3L576.8 293.7L498.6 254.7Z" fill="#261300" stroke="#261300"></path><path d="M287.9 283.7L235.9 370.3L314.9 393Z" fill="#230f00" stroke="#230f00"></path><path d="M318.9 452.7L277.9 499.3L381.4 521.3Z" fill="#200900" stroke="#200900"></path><path d="M214.7 387L277.9 499.3L318.9 452.7Z" fill="#1c0000" stroke="#1c0000"></path><path d="M378.4 600L445.6 571.3L381.4 521.3Z" fill="#241100" stroke="#241100"></path><path d="M381.4 521.3L445.6 571.3L453.6 432Z" fill="#1f0600" stroke="#1f0600"></path><path d="M530.8 455.7L560.8 535.3L581.1 432.7Z" fill="#1a0000" stroke="#1a0000"></path><path d="M375.2 222L284.9 241L322.2 268.7Z" fill="#000000" stroke="#000000"></path><path d="M287.9 283.7L208.7 320.3L235.9 370.3Z" fill="#1a0000" stroke="#1a0000"></path><path d="M590.1 201L466.6 218L498.6 254.7Z" fill="#1c0000" stroke="#1c0000"></path><path d="M466.6 218L449.4 182L433.4 240.7Z" fill="#1a0000" stroke="#1a0000"></path><path d="M375.2 222L369.2 170.3L284.9 241Z" fill="#1d0200" stroke="#1d0200"></path><path d="M445.6 571.3L560.8 535.3L530.8 455.7Z" fill="#1a0000" stroke="#1a0000"></path><path d="M693.3 466.7L673.3 364L596.1 408Z" fill="#1f0600" stroke="#1f0600"></path><path d="M277.9 499.3L345.2 570.3L381.4 521.3Z" fill="#000000" stroke="#000000"></path><path d="M208.7 320.3L214.7 387L235.9 370.3Z" fill="#220c00" stroke="#220c00"></path><path d="M235.9 370.3L214.7 387L324.2 432.7Z" fill="#1f0600" stroke="#1f0600"></path><path d="M449.4 182L369.2 170.3L375.2 222Z" fill="#000000" stroke="#000000"></path><path d="M650.1 321.3L603.1 252.7L576.8 293.7Z" fill="#241100" stroke="#241100"></path><path d="M576.8 293.7L603.1 252.7L498.6 254.7Z" fill="#241100" stroke="#241100"></path><path d="M378.4 600L441.6 600L445.6 571.3Z" fill="#1a0000" stroke="#1a0000"></path><path d="M445.6 571.3L578.8 600L560.8 535.3Z" fill="#000000" stroke="#000000"></path><path d="M209.7 225.7L208.7 320.3L287.9 283.7Z" fill="#000000" stroke="#000000"></path><path d="M345.2 570.3L378.4 600L381.4 521.3Z" fill="#1d0200" stroke="#1d0200"></path><path d="M673.3 364L650.1 321.3L596.1 408Z" fill="#220c00" stroke="#220c00"></path><path d="M596.1 408L650.1 321.3L559.8 324.3Z" fill="#1c0000" stroke="#1c0000"></path><path d="M591.8 162L590.1 201L649.1 160.3Z" fill="#1f0600" stroke="#1f0600"></path><path d="M603.1 252.7L590.1 201L498.6 254.7Z" fill="#241100" stroke="#241100"></path><path d="M407.4 95.3L385.2 98.7L369.2 170.3Z" fill="#200900" stroke="#200900"></path><path d="M272.9 600L320.2 600L345.2 570.3Z" fill="#241100" stroke="#241100"></path><path d="M345.2 570.3L320.2 600L378.4 600Z" fill="#1d0200" stroke="#1d0200"></path><path d="M272.9 600L345.2 570.3L277.9 499.3Z" fill="#1c0000" stroke="#1c0000"></path><path d="M693.3 466.7L596.1 408L581.1 432.7Z" fill="#200900" stroke="#200900"></path><path d="M655.3 201L590.1 201L603.1 252.7Z" fill="#261300" stroke="#261300"></path><path d="M132.5 381L187.7 442.7L214.7 387Z" fill="#1f0600" stroke="#1f0600"></path><path d="M214.7 387L187.7 442.7L277.9 499.3Z" fill="#1d0200" stroke="#1d0200"></path><path d="M578.8 600L613.1 545.3L560.8 535.3Z" fill="#1a0000" stroke="#1a0000"></path><path d="M560.8 535.3L613.1 545.3L581.1 432.7Z" fill="#1f0600" stroke="#1f0600"></path><path d="M590.1 201L512.8 128.3L466.6 218Z" fill="#261300" stroke="#261300"></path><path d="M226.7 169L209.7 225.7L284.9 241Z" fill="#000000" stroke="#000000"></path><path d="M284.9 241L209.7 225.7L287.9 283.7Z" fill="#271500" stroke="#271500"></path><path d="M208.7 320.3L132.5 381L214.7 387Z" fill="#230f00" stroke="#230f00"></path><path d="M441.6 600L578.8 600L445.6 571.3Z" fill="#230f00" stroke="#230f00"></path><path d="M243.7 600L272.9 600L277.9 499.3Z" fill="#1c0000" stroke="#1c0000"></path><path d="M699.3 285.7L603.1 252.7L650.1 321.3Z" fill="#1d0200" stroke="#1d0200"></path><path d="M590.1 201L591.8 162L512.8 128.3Z" fill="#1a0000" stroke="#1a0000"></path><path d="M578.8 600L587.1 600L613.1 545.3Z" fill="#220c00" stroke="#220c00"></path><path d="M695.3 510.3L693.3 466.7L613.1 545.3Z" fill="#1c0000" stroke="#1c0000"></path><path d="M613.1 545.3L693.3 466.7L581.1 432.7Z" fill="#220c00" stroke="#220c00"></path><path d="M407.4 95.3L369.2 170.3L449.4 182Z" fill="#1c0000" stroke="#1c0000"></path><path d="M369.2 170.3L226.7 169L284.9 241Z" fill="#1f0600" stroke="#1f0600"></path><path d="M484.6 50.7L462.6 97.3L512.8 128.3Z" fill="#1f0600" stroke="#1f0600"></path><path d="M512.8 128.3L462.6 97.3L449.4 182Z" fill="#000000" stroke="#000000"></path><path d="M693.3 466.7L709.3 350.3L673.3 364Z" fill="#200900" stroke="#200900"></path><path d="M673.3 364L709.3 350.3L650.1 321.3Z" fill="#200900" stroke="#200900"></path><path d="M462.6 97.3L407.4 95.3L449.4 182Z" fill="#220c00" stroke="#220c00"></path><path d="M178.7 565.3L243.7 600L277.9 499.3Z" fill="#1d0200" stroke="#1d0200"></path><path d="M709.3 350.3L699.3 285.7L650.1 321.3Z" fill="#261300" stroke="#261300"></path><path d="M699.3 285.7L655.3 201L603.1 252.7Z" fill="#1f0600" stroke="#1f0600"></path><path d="M187.7 442.7L175.5 522.3L277.9 499.3Z" fill="#220c00" stroke="#220c00"></path><path d="M138.5 487.7L175.5 522.3L187.7 442.7Z" fill="#1f0600" stroke="#1f0600"></path><path d="M296.9 91.3L226.7 169L369.2 170.3Z" fill="#1f0600" stroke="#1f0600"></path><path d="M126.5 349.3L208.7 320.3L132.5 250.7Z" fill="#271500" stroke="#271500"></path><path d="M126.5 349.3L132.5 381L208.7 320.3Z" fill="#1c0000" stroke="#1c0000"></path><path d="M686.3 600L695.3 510.3L613.1 545.3Z" fill="#271500" stroke="#271500"></path><path d="M796.5 397L792.5 345.3L709.3 350.3Z" fill="#000000" stroke="#000000"></path><path d="M132.5 250.7L208.7 320.3L209.7 225.7Z" fill="#200900" stroke="#200900"></path><path d="M656.3 114.3L568.8 105.7L591.8 162Z" fill="#1c0000" stroke="#1c0000"></path><path d="M591.8 162L568.8 105.7L512.8 128.3Z" fill="#261300" stroke="#261300"></path><path d="M53.2 432.7L138.5 487.7L132.5 381Z" fill="#1a0000" stroke="#1a0000"></path><path d="M132.5 381L138.5 487.7L187.7 442.7Z" fill="#1d0200" stroke="#1d0200"></path><path d="M175.5 522.3L178.7 565.3L277.9 499.3Z" fill="#200900" stroke="#200900"></path><path d="M226.7 169L160.5 220L209.7 225.7Z" fill="#230f00" stroke="#230f00"></path><path d="M151.5 600L178.7 565.3L175.5 522.3Z" fill="#230f00" stroke="#230f00"></path><path d="M719.5 189L649.1 160.3L655.3 201Z" fill="#220c00" stroke="#220c00"></path><path d="M655.3 201L649.1 160.3L590.1 201Z" fill="#271500" stroke="#271500"></path><path d="M288.9 24.7L296.9 91.3L385.2 98.7Z" fill="#1f0600" stroke="#1f0600"></path><path d="M385.2 98.7L296.9 91.3L369.2 170.3Z" fill="#1c0000" stroke="#1c0000"></path><path d="M226.7 169L107.5 170.3L160.5 220Z" fill="#1c0000" stroke="#1c0000"></path><path d="M160.5 220L132.5 250.7L209.7 225.7Z" fill="#200900" stroke="#200900"></path><path d="M44.2 340.3L105.2 377L126.5 349.3Z" fill="#000000" stroke="#000000"></path><path d="M126.5 349.3L105.2 377L132.5 381Z" fill="#200900" stroke="#200900"></path><path d="M484.6 50.7L450.4 49.7L462.6 97.3Z" fill="#241100" stroke="#241100"></path><path d="M462.6 97.3L450.4 49.7L407.4 95.3Z" fill="#1a0000" stroke="#1a0000"></path><path d="M407.4 95.3L415.4 0L385.2 98.7Z" fill="#220c00" stroke="#220c00"></path><path d="M568.8 105.7L484.6 50.7L512.8 128.3Z" fill="#220c00" stroke="#220c00"></path><path d="M296.9 91.3L235.7 100.7L226.7 169Z" fill="#241100" stroke="#241100"></path><path d="M160.5 220L102.2 241.7L132.5 250.7Z" fill="#261300" stroke="#261300"></path><path d="M288.9 24.7L235.7 100.7L296.9 91.3Z" fill="#230f00" stroke="#230f00"></path><path d="M235.7 100.7L219.7 108.3L226.7 169Z" fill="#230f00" stroke="#230f00"></path><path d="M587.1 600L686.3 600L613.1 545.3Z" fill="#261300" stroke="#261300"></path><path d="M649.1 160.3L656.3 114.3L591.8 162Z" fill="#230f00" stroke="#230f00"></path><path d="M553.8 0L458.6 0L484.6 50.7Z" fill="#1a0000" stroke="#1a0000"></path><path d="M699.3 285.7L719.5 189L655.3 201Z" fill="#1a0000" stroke="#1a0000"></path><path d="M783.5 245.7L719.5 189L699.3 285.7Z" fill="#000000" stroke="#000000"></path><path d="M724.5 149.3L656.3 114.3L649.1 160.3Z" fill="#271500" stroke="#271500"></path><path d="M107.5 170.3L102.2 241.7L160.5 220Z" fill="#230f00" stroke="#230f00"></path><path d="M132.5 250.7L102.2 241.7L126.5 349.3Z" fill="#1f0600" stroke="#1f0600"></path><path d="M138.5 487.7L151.5 600L175.5 522.3Z" fill="#1a0000" stroke="#1a0000"></path><path d="M178.7 565.3L151.5 600L243.7 600Z" fill="#1c0000" stroke="#1c0000"></path><path d="M72.2 600L151.5 600L138.5 487.7Z" fill="#000000" stroke="#000000"></path><path d="M796.5 397L709.3 350.3L693.3 466.7Z" fill="#1d0200" stroke="#1d0200"></path><path d="M709.3 350.3L792.5 345.3L699.3 285.7Z" fill="#000000" stroke="#000000"></path><path d="M796.5 397L693.3 466.7L796.5 434.7Z" fill="#1f0600" stroke="#1f0600"></path><path d="M764.5 534.3L693.3 466.7L695.3 510.3Z" fill="#271500" stroke="#271500"></path><path d="M686.3 600L764.5 534.3L695.3 510.3Z" fill="#1c0000" stroke="#1c0000"></path><path d="M764.5 534.3L796.5 434.7L693.3 466.7Z" fill="#1f0600" stroke="#1f0600"></path><path d="M797.8 174.3L724.5 149.3L719.5 189Z" fill="#1a0000" stroke="#1a0000"></path><path d="M719.5 189L724.5 149.3L649.1 160.3Z" fill="#1a0000" stroke="#1a0000"></path><path d="M44.2 340.3L53.2 432.7L105.2 377Z" fill="#230f00" stroke="#230f00"></path><path d="M105.2 377L53.2 432.7L132.5 381Z" fill="#1a0000" stroke="#1a0000"></path><path d="M458.6 0L415.4 0L450.4 49.7Z" fill="#200900" stroke="#200900"></path><path d="M450.4 49.7L415.4 0L407.4 95.3Z" fill="#200900" stroke="#200900"></path><path d="M235.7 100.7L167.5 67.7L219.7 108.3Z" fill="#1f0600" stroke="#1f0600"></path><path d="M458.6 0L450.4 49.7L484.6 50.7Z" fill="#1c0000" stroke="#1c0000"></path><path d="M659.1 75.7L568.8 105.7L656.3 114.3Z" fill="#271500" stroke="#271500"></path><path d="M553.8 0L484.6 50.7L568.8 105.7Z" fill="#1a0000" stroke="#1a0000"></path><path d="M305.2 0L288.9 24.7L385.2 98.7Z" fill="#200900" stroke="#200900"></path><path d="M219.7 108.3L107.5 170.3L226.7 169Z" fill="#230f00" stroke="#230f00"></path><path d="M792.5 345.3L783.5 245.7L699.3 285.7Z" fill="#1f0600" stroke="#1f0600"></path><path d="M167.5 67.7L107.5 170.3L219.7 108.3Z" fill="#200900" stroke="#200900"></path><path d="M102.2 241.7L44.2 340.3L126.5 349.3Z" fill="#1a0000" stroke="#1a0000"></path><path d="M672.3 79.7L659.1 75.7L656.3 114.3Z" fill="#200900" stroke="#200900"></path><path d="M810.8 502.7L805.8 428L796.5 434.7Z" fill="#271500" stroke="#271500"></path><path d="M796.5 434.7L805.8 428L796.5 397Z" fill="#261300" stroke="#261300"></path><path d="M900 351.3L834.8 309.3L792.5 345.3Z" fill="#200900" stroke="#200900"></path><path d="M792.5 345.3L834.8 309.3L783.5 245.7Z" fill="#220c00" stroke="#220c00"></path><path d="M0 255.7L44.2 340.3L102.2 241.7Z" fill="#241100" stroke="#241100"></path><path d="M724.5 149.3L672.3 79.7L656.3 114.3Z" fill="#230f00" stroke="#230f00"></path><path d="M591.1 0L553.8 0L568.8 105.7Z" fill="#261300" stroke="#261300"></path><path d="M415.4 0L305.2 0L385.2 98.7Z" fill="#1c0000" stroke="#1c0000"></path><path d="M190.7 0L167.5 67.7L235.7 100.7Z" fill="#200900" stroke="#200900"></path><path d="M305.2 0L300.9 0L288.9 24.7Z" fill="#1c0000" stroke="#1c0000"></path><path d="M591.1 0L568.8 105.7L659.1 75.7Z" fill="#200900" stroke="#200900"></path><path d="M820.8 556.3L810.8 502.7L764.5 534.3Z" fill="#1c0000" stroke="#1c0000"></path><path d="M764.5 534.3L810.8 502.7L796.5 434.7Z" fill="#230f00" stroke="#230f00"></path><path d="M190.7 0L235.7 100.7L288.9 24.7Z" fill="#1c0000" stroke="#1c0000"></path><path d="M107.5 170.3L53.2 204L102.2 241.7Z" fill="#1a0000" stroke="#1a0000"></path><path d="M64.2 164.3L53.2 204L107.5 170.3Z" fill="#1a0000" stroke="#1a0000"></path><path d="M688.3 0L591.1 0L659.1 75.7Z" fill="#241100" stroke="#241100"></path><path d="M900 386L796.5 397L805.8 428Z" fill="#1c0000" stroke="#1c0000"></path><path d="M900 351.3L792.5 345.3L796.5 397Z" fill="#220c00" stroke="#220c00"></path><path d="M783.5 245.7L797.8 174.3L719.5 189Z" fill="#200900" stroke="#200900"></path><path d="M30.2 518.3L72.2 600L138.5 487.7Z" fill="#1a0000" stroke="#1a0000"></path><path d="M0 486.7L30.2 518.3L53.2 432.7Z" fill="#1f0600" stroke="#1f0600"></path><path d="M53.2 432.7L30.2 518.3L138.5 487.7Z" fill="#1a0000" stroke="#1a0000"></path><path d="M0 379L53.2 432.7L44.2 340.3Z" fill="#230f00" stroke="#230f00"></path><path d="M104.2 97.7L64.2 164.3L107.5 170.3Z" fill="#230f00" stroke="#230f00"></path><path d="M834.8 309.3L833.8 267.7L783.5 245.7Z" fill="#1d0200" stroke="#1d0200"></path><path d="M724.5 149.3L739.5 66.7L672.3 79.7Z" fill="#230f00" stroke="#230f00"></path><path d="M815.8 185L797.8 174.3L783.5 245.7Z" fill="#1f0600" stroke="#1f0600"></path><path d="M672.3 79.7L688.3 0L659.1 75.7Z" fill="#271500" stroke="#271500"></path><path d="M0 344.3L0 379L44.2 340.3Z" fill="#230f00" stroke="#230f00"></path><path d="M0 344.3L44.2 340.3L0 255.7Z" fill="#241100" stroke="#241100"></path><path d="M167.5 67.7L104.2 97.7L107.5 170.3Z" fill="#220c00" stroke="#220c00"></path><path d="M105.5 0L104.2 97.7L167.5 67.7Z" fill="#1f0600" stroke="#1f0600"></path><path d="M0 255.7L102.2 241.7L53.2 204Z" fill="#241100" stroke="#241100"></path><path d="M800.5 600L820.8 556.3L764.5 534.3Z" fill="#271500" stroke="#271500"></path><path d="M900 473.7L900 386L805.8 428Z" fill="#271500" stroke="#271500"></path><path d="M686.3 600L800.5 600L764.5 534.3Z" fill="#241100" stroke="#241100"></path><path d="M833.8 267.7L815.8 185L783.5 245.7Z" fill="#271500" stroke="#271500"></path><path d="M797.8 174.3L739.5 66.7L724.5 149.3Z" fill="#1f0600" stroke="#1f0600"></path><path d="M0 379L0 486.7L53.2 432.7Z" fill="#230f00" stroke="#230f00"></path><path d="M30.2 518.3L0 600L72.2 600Z" fill="#1a0000" stroke="#1a0000"></path><path d="M789.5 0L739.5 66.7L852.8 44.7Z" fill="#1c0000" stroke="#1c0000"></path><path d="M0 209L0 255.7L53.2 204Z" fill="#230f00" stroke="#230f00"></path><path d="M0 209L53.2 204L64.2 164.3Z" fill="#1c0000" stroke="#1c0000"></path><path d="M300.9 0L190.7 0L288.9 24.7Z" fill="#261300" stroke="#261300"></path><path d="M0 486.7L0 522.3L30.2 518.3Z" fill="#261300" stroke="#261300"></path><path d="M0 114.3L0 209L64.2 164.3Z" fill="#1a0000" stroke="#1a0000"></path><path d="M0 114.3L64.2 164.3L104.2 97.7Z" fill="#261300" stroke="#261300"></path><path d="M739.5 66.7L688.3 0L672.3 79.7Z" fill="#1f0600" stroke="#1f0600"></path><path d="M900 473.7L810.8 502.7L900 497.3Z" fill="#261300" stroke="#261300"></path><path d="M900 473.7L805.8 428L810.8 502.7Z" fill="#230f00" stroke="#230f00"></path><path d="M834.8 309.3L900 263.7L833.8 267.7Z" fill="#1a0000" stroke="#1a0000"></path><path d="M833.8 267.7L900 239L815.8 185Z" fill="#1a0000" stroke="#1a0000"></path><path d="M900 386L900 351.3L796.5 397Z" fill="#000000" stroke="#000000"></path><path d="M0 522.3L0 600L30.2 518.3Z" fill="#220c00" stroke="#220c00"></path><path d="M900 497.3L810.8 502.7L820.8 556.3Z" fill="#271500" stroke="#271500"></path><path d="M900 351.3L900 263.7L834.8 309.3Z" fill="#1c0000" stroke="#1c0000"></path><path d="M852.8 44.7L739.5 66.7L797.8 174.3Z" fill="#230f00" stroke="#230f00"></path><path d="M739.5 66.7L789.5 0L688.3 0Z" fill="#200900" stroke="#200900"></path><path d="M869.8 600L900 497.3L820.8 556.3Z" fill="#241100" stroke="#241100"></path><path d="M900 263.7L900 239L833.8 267.7Z" fill="#230f00" stroke="#230f00"></path><path d="M800.5 600L869.8 600L820.8 556.3Z" fill="#1d0200" stroke="#1d0200"></path><path d="M190.7 0L105.5 0L167.5 67.7Z" fill="#1c0000" stroke="#1c0000"></path><path d="M0 82.7L0 114.3L104.2 97.7Z" fill="#261300" stroke="#261300"></path><path d="M105.5 0L75.2 0L104.2 97.7Z" fill="#1a0000" stroke="#1a0000"></path><path d="M75.2 0L0 82.7L104.2 97.7Z" fill="#1d0200" stroke="#1d0200"></path><path d="M869.8 600L900 600L900 497.3Z" fill="#1f0600" stroke="#1f0600"></path><path d="M900 117.3L797.8 174.3L815.8 185Z" fill="#1d0200" stroke="#1d0200"></path><path d="M900 239L900 117.3L815.8 185Z" fill="#000000" stroke="#000000"></path><path d="M900 117.3L852.8 44.7L797.8 174.3Z" fill="#1c0000" stroke="#1c0000"></path><path d="M900 0L836.8 0L852.8 44.7Z" fill="#271500" stroke="#271500"></path><path d="M852.8 44.7L836.8 0L789.5 0Z" fill="#1a0000" stroke="#1a0000"></path><path d="M75.2 0L0 0L0 82.7Z" fill="#220c00" stroke="#220c00"></path><path d="M900 117.3L900 29.7L852.8 44.7Z" fill="#1a0000" stroke="#1a0000"></path><path d="M900 29.7L900 0L852.8 44.7Z" fill="#241100" stroke="#241100"></path></g></svg>