<svg xmlns="http://www.w3.org/2000/svg" xmlns:xlink="http://www.w3.org/1999/xlink" width="500" zoomAndPan="magnify" viewBox="0 0 375 374.999991" height="500" preserveAspectRatio="xMidYMid meet" version="1.0"><defs><g/><clipPath id="e54a1c3762"><path d="M 87.128906 104.777344 L 288.128906 104.777344 L 288.128906 207.527344 L 87.128906 207.527344 Z M 87.128906 104.777344 " clip-rule="nonzero"/></clipPath></defs><g clip-path="url(#e54a1c3762)"><path fill="#b50d0d" d="M 111.414062 121.59375 C 111.339844 121.4375 111.183594 121.390625 110.992188 121.308594 C 110.84375 121.234375 110.691406 121.179688 110.507812 121.105469 C 109.363281 120.667969 107.824219 120.75 106.761719 121.050781 C 106.59375 121.097656 106.449219 121.160156 106.265625 121.234375 C 105.523438 121.566406 104.738281 122.085938 104.289062 122.773438 C 103.914062 123.359375 103.703125 124.039062 103.316406 124.613281 C 103.117188 124.917969 102.859375 125.109375 102.59375 125.339844 C 102.082031 125.785156 101.429688 126.160156 100.796875 126.425781 C 100.632812 126.492188 100.46875 126.566406 100.3125 126.628906 C 99.1875 127.085938 98.015625 127.40625 96.871094 127.828125 C 96.109375 128.113281 95.332031 128.46875 94.671875 128.828125 C 94.304688 129.027344 93.957031 129.3125 93.636719 129.558594 C 93.5 129.667969 93.589844 129.578125 93.445312 129.707031 C 92.480469 130.613281 92.214844 130.886719 91.4375 131.929688 C 90.707031 132.910156 90.164062 134.121094 89.84375 135.300781 C 89.421875 136.847656 89.535156 138.773438 90.128906 140.300781 C 90.265625 140.648438 90.414062 140.960938 90.59375 141.273438 L 91.15625 142.160156 C 91.0625 142.234375 91.089844 142.226562 91.015625 142.351562 C 90.953125 142.453125 90.917969 142.519531 90.871094 142.601562 C 90.429688 143.441406 89.882812 144.183594 89.367188 145 L 88.515625 146.4375 C 88.222656 146.941406 87.996094 147.5 87.8125 148.066406 C 87.472656 149.082031 87.34375 150.6875 87.617188 151.90625 C 87.65625 152.050781 87.664062 152.058594 87.71875 152.207031 C 88.207031 153.527344 89.296875 154.304688 90.523438 154.851562 C 90.605469 154.890625 90.722656 154.9375 90.804688 154.964844 L 91.097656 155.074219 C 93.160156 155.789062 96.128906 155.59375 98.269531 155.4375 C 99.316406 155.367188 100.679688 155.117188 101.703125 154.972656 L 103.691406 154.605469 C 105.40625 154.265625 107.035156 153.808594 108.730469 153.386719 C 108.941406 153.332031 109.132812 153.277344 109.316406 153.222656 C 110.679688 152.785156 115.316406 151.621094 116.222656 151.4375 C 116.167969 151.621094 116.203125 151.492188 116.175781 151.59375 L 115.167969 154.605469 C 115.113281 154.761719 115.105469 154.851562 115.058594 155.007812 C 114.671875 156.308594 114.296875 157.554688 114.140625 158.890625 C 114.105469 159.203125 114.03125 159.488281 114.03125 159.863281 C 114.03125 160.59375 114.03125 161.28125 114.085938 161.941406 L 114.308594 163.289062 C 114.351562 163.480469 114.363281 163.535156 114.390625 163.773438 C 114.492188 164.625 114.492188 164.925781 114.5 165.832031 C 114.507812 166.796875 114.28125 167.675781 114.042969 168.554688 C 113.96875 168.808594 113.839844 169.128906 113.777344 169.378906 C 113.546875 170.292969 113.050781 171.382812 112.640625 172.269531 L 111.394531 174.980469 C 111.359375 175.046875 111.339844 175.109375 111.304688 175.175781 L 111.210938 175.375 C 110.597656 176.519531 110.535156 176.859375 109.671875 178.140625 C 107.914062 180.796875 106.175781 180.640625 104.414062 182.464844 L 103.984375 183.097656 C 103.820312 183.480469 103.8125 184.011719 103.828125 184.460938 C 103.839844 184.6875 103.882812 184.746094 103.894531 184.972656 C 103.921875 185.898438 103.867188 186.6875 103.746094 187.480469 L 103.171875 190.695312 C 102.695312 192.804688 102.585938 193.589844 101.59375 195.558594 C 101.484375 195.789062 101.367188 196.015625 101.246094 196.246094 C 100.890625 196.960938 100.515625 197.75 100.332031 198.527344 C 100.128906 199.40625 100.128906 200.386719 100.90625 200.953125 C 101.019531 201.035156 100.917969 200.972656 101.035156 201.046875 L 101.144531 201.109375 C 101.15625 201.117188 101.171875 201.128906 101.183594 201.128906 L 101.648438 201.3125 C 101.640625 201.320312 101.613281 201.320312 101.613281 201.339844 C 101.605469 201.355469 101.585938 201.355469 101.578125 201.367188 C 101.566406 201.375 101.511719 201.402344 101.503906 201.410156 L 101.101562 201.730469 C 100.835938 201.996094 100.625 202.28125 100.476562 202.628906 L 100.414062 202.839844 C 100.148438 203.746094 100.101562 204.789062 99.964844 205.707031 C 99.917969 206.046875 99.929688 206.328125 99.875 206.648438 C 99.828125 206.886719 99.761719 207.28125 99.761719 207.554688 L 111.78125 207.554688 L 111.53125 206.136719 C 110.890625 203.753906 109.820312 202.628906 109.152344 200.722656 L 109.03125 200.386719 C 109.023438 200.367188 109.023438 200.359375 109.011719 200.339844 C 109.003906 200.320312 109.003906 200.3125 108.996094 200.292969 C 108.683594 199.339844 108.59375 198.445312 108.738281 197.390625 C 108.941406 196.035156 109.277344 195.027344 109.71875 193.921875 C 109.773438 193.78125 109.820312 193.671875 109.863281 193.554688 C 110.535156 192.0625 111.25 190.570312 112.15625 189.195312 C 113.410156 187.28125 114.390625 185.804688 116.167969 184.339844 C 116.265625 184.257812 116.394531 184.167969 116.488281 184.09375 C 118.484375 182.675781 120.679688 181.558594 122.878906 180.457031 L 124.65625 179.542969 C 124.832031 179.460938 124.894531 179.414062 125.023438 179.332031 L 127.136719 178.066406 C 128.621094 177.1875 130.894531 175.53125 132.386719 174.414062 L 134.886719 172.492188 C 135.160156 172.242188 135.296875 172.371094 135.664062 172.464844 C 135.96875 172.535156 136.25 172.609375 136.597656 172.675781 C 137.796875 172.914062 139.265625 173.195312 140.527344 173.195312 C 140.308594 173.78125 139.742188 174.449219 139.363281 174.945312 L 138.441406 176.144531 C 137.460938 177.417969 136.332031 178.792969 135.828125 180.332031 L 135.582031 181.164062 C 135.519531 181.492188 135.425781 182.015625 135.425781 182.417969 C 135.425781 182.921875 135.453125 183.269531 135.601562 183.710938 C 135.617188 183.765625 135.628906 183.792969 135.648438 183.835938 L 136.050781 184.707031 C 136.140625 184.863281 136.207031 184.972656 136.316406 185.136719 C 136.433594 185.320312 136.515625 185.421875 136.625 185.578125 C 136.835938 185.863281 137.03125 186.109375 137.238281 186.394531 C 138.0625 187.492188 138.816406 188.691406 139.503906 189.910156 C 140.0625 190.898438 140.65625 191.914062 141.085938 192.957031 C 141.125 193.050781 141.160156 193.113281 141.195312 193.195312 C 141.277344 193.363281 141.363281 193.535156 141.425781 193.699219 C 141.847656 194.707031 142.277344 195.734375 142.625 196.796875 L 143.101562 198.445312 C 143.503906 199.589844 143.742188 202.300781 143.878906 202.710938 C 144.0625 203.242188 145.035156 203.179688 145.492188 203.261719 C 145.710938 203.308594 145.886719 203.371094 146.085938 203.390625 C 145.988281 203.964844 145.902344 203.546875 145.914062 204.480469 C 145.921875 205.542969 146.773438 206.394531 146.773438 207.519531 C 149.886719 207.519531 153.003906 207.464844 156.117188 207.519531 C 156.355469 207.519531 156.574219 207.546875 156.746094 207.402344 C 156.328125 206.941406 155.742188 205.3125 155.390625 204.605469 C 154.871094 203.574219 154.414062 202.902344 153.476562 202.28125 C 152.847656 201.859375 152.078125 201.59375 151.472656 201.136719 C 150.363281 200.304688 150.21875 198.746094 149.75 197.511719 C 148.925781 195.3125 147.835938 194.011719 146.699219 192.144531 C 146.5 191.8125 146.34375 191.421875 146.234375 191.042969 C 145.464844 188.515625 145.472656 185.75 146.425781 183.351562 C 148 179.386719 151.269531 179.707031 154.84375 179.113281 C 155.667969 178.976562 156.765625 178.917969 157.65625 178.773438 L 160.253906 178.214844 C 161.023438 177.984375 161.648438 177.507812 162.324219 177.117188 C 163.816406 176.253906 166.207031 176.96875 167.730469 177.289062 L 168.625 177.472656 C 168.945312 177.519531 169.238281 177.601562 169.496094 177.628906 C 169.769531 177.664062 170.09375 177.65625 170.367188 177.730469 C 170.761719 177.832031 171.914062 177.757812 172.390625 177.757812 C 172.398438 178.078125 172.554688 178.488281 172.621094 178.808594 C 172.859375 180 172.902344 181.035156 172.914062 182.34375 C 172.914062 183.34375 172.785156 184.339844 172.601562 185.265625 C 172.300781 186.804688 171.867188 188.234375 171.28125 189.6875 L 169.605469 193.179688 C 169.230469 193.921875 168.617188 194.890625 168.058594 195.484375 C 167.710938 195.863281 167.296875 196.226562 167.015625 196.667969 L 166.886719 196.878906 C 166.125 198.132812 167.839844 198.515625 168.1875 199.105469 C 168.40625 199.46875 167.71875 200.496094 167.546875 200.863281 C 167.472656 201.007812 167.425781 201.15625 167.351562 201.300781 C 167.316406 201.375 167.269531 201.464844 167.242188 201.53125 C 167.234375 201.558594 167.199219 201.621094 167.1875 201.648438 L 166.65625 202.839844 C 166.621094 202.929688 166.59375 202.996094 166.554688 203.078125 C 166.097656 204.105469 165.730469 205.238281 165.449219 206.320312 C 165.347656 206.703125 165.171875 207.117188 165.183594 207.519531 L 178.882812 207.519531 C 178.882812 206.824219 178.480469 204.808594 178.296875 204.003906 C 178.152344 203.335938 178.050781 202.636719 177.859375 201.980469 L 177.609375 201.027344 C 177.601562 201.007812 177.601562 201 177.59375 200.980469 L 177.566406 200.890625 C 177.527344 200.753906 177.554688 200.851562 177.511719 200.714844 L 177.125 199.441406 C 176.730469 198.261719 176.90625 199.160156 177.847656 197.007812 C 178.152344 196.308594 178.371094 195.558594 178.546875 194.816406 L 178.839844 193.507812 C 178.9375 193.070312 178.976562 192.554688 179.066406 192.078125 C 179.25 191.136719 179.34375 190.15625 179.480469 189.214844 C 179.679688 187.859375 179.863281 186.402344 180.257812 185.074219 L 180.359375 184.78125 C 180.394531 184.652344 180.40625 184.589844 180.441406 184.460938 L 180.660156 183.828125 C 180.6875 183.753906 180.742188 183.644531 180.78125 183.554688 C 180.824219 183.453125 180.84375 183.378906 180.898438 183.269531 C 180.980469 183.097656 181.082031 182.914062 181.164062 182.738281 C 181.511719 182.042969 181.484375 182.371094 182.0625 182.007812 C 183.1875 181.292969 184.050781 179.183594 185.871094 179.324219 C 186.558594 179.378906 187.246094 179.570312 187.878906 179.742188 L 195.230469 181.4375 C 196.578125 181.628906 198.429688 181.457031 199.757812 181.144531 L 202.320312 180.429688 C 203.96875 179.882812 205.488281 179.242188 207.121094 178.699219 C 207.339844 178.625 207.484375 178.570312 207.722656 178.507812 C 207.917969 178.453125 208.117188 178.390625 208.355469 178.34375 C 208.8125 178.25 209.273438 178.050781 209.730469 178.058594 C 210.140625 178.058594 210.371094 178.515625 210.644531 178.792969 C 211.222656 179.367188 211.882812 180.074219 212.523438 180.578125 C 213.632812 181.4375 214.320312 182.070312 215.628906 182.859375 L 216.132812 183.152344 C 216.304688 183.242188 216.46875 183.316406 216.664062 183.417969 C 216.882812 183.527344 217.019531 183.609375 217.230469 183.699219 L 218.109375 184.019531 C 219.226562 184.359375 222.074219 184.972656 222.09375 186.144531 C 222.09375 186.410156 222.058594 186.546875 221.964844 186.75 L 221.929688 186.832031 C 221.363281 187.902344 219.988281 188.363281 218.925781 188.792969 C 218.550781 188.949219 218.164062 189.101562 217.726562 189.203125 L 214.546875 190.101562 C 214.28125 190.175781 214.199219 190.203125 214.0625 190.429688 C 213.640625 191.164062 213.832031 192.070312 213.648438 192.859375 C 213.613281 192.996094 213.585938 193.085938 213.550781 193.25 C 213.171875 193.085938 212.667969 192.949219 212.332031 192.738281 C 212.304688 192.71875 212.203125 192.636719 212.183594 192.609375 C 211.972656 192.34375 212.148438 192.160156 212.238281 191.851562 C 212.6875 190.210938 211.882812 188.828125 210.363281 188.277344 C 210.1875 188.214844 210.234375 188.234375 210.015625 188.207031 C 209.648438 188.152344 208.988281 188.113281 208.621094 188.195312 C 207.082031 188.515625 205.132812 189.570312 203.804688 190.238281 C 202.796875 190.75 201.726562 191.164062 200.707031 191.667969 C 200.371094 191.839844 200.003906 191.996094 199.65625 192.160156 C 199.308594 192.328125 197.796875 192.984375 197.4375 193.023438 C 197.605469 193.574219 198.886719 194.242188 199.363281 194.460938 C 199.4375 194.496094 199.527344 194.542969 199.589844 194.570312 C 199.738281 194.632812 199.875 194.691406 200.039062 194.753906 C 201.625 195.386719 202.265625 195.734375 203.613281 196.8125 C 204.078125 197.191406 204.5 197.554688 204.996094 197.894531 C 205.324219 198.125 205.792969 198.433594 206.195312 198.574219 L 207.164062 198.867188 C 207.339844 198.921875 207.46875 198.957031 207.660156 198.984375 C 208.714844 199.167969 209.757812 199.441406 210.839844 199.589844 C 210.984375 199.605469 211.269531 199.625 211.359375 199.644531 C 211.9375 199.734375 212.503906 199.726562 213.089844 199.808594 C 213.933594 199.929688 214.703125 199.773438 215.410156 199.671875 C 218.15625 199.304688 219.042969 196.722656 220.59375 194.835938 C 221.160156 194.140625 221.753906 193.480469 222.394531 192.859375 C 222.542969 192.71875 222.597656 192.710938 222.746094 192.574219 C 224.136719 191.273438 225.601562 190.046875 227.105469 188.855469 C 227.542969 188.507812 228.054688 188.125 228.503906 187.730469 C 229.054688 187.246094 229.640625 186.804688 230.171875 186.300781 C 230.289062 186.183594 230.363281 186.097656 230.484375 185.980469 C 231.050781 185.414062 231.28125 185.414062 231.28125 184.816406 C 231.28125 184.597656 231.269531 184.433594 231.296875 184.222656 C 231.34375 183.9375 231.398438 183.453125 231.453125 183.113281 C 231.507812 182.792969 231.589844 182.371094 231.664062 182.070312 C 232.003906 180.640625 232.40625 179.15625 232.242188 177.664062 L 231.976562 176.683594 L 231.535156 175.933594 C 230.804688 175.027344 229.210938 175.402344 228.175781 173.671875 L 227.570312 172.371094 C 227.496094 172.179688 227.46875 172.070312 227.40625 171.894531 L 227.1875 171.199219 C 227.148438 171.097656 227.195312 171.21875 227.140625 171.070312 C 226.902344 170.421875 226.691406 169.789062 226.335938 169.195312 C 226.097656 168.800781 225.804688 168.5 225.417969 168.234375 C 225.574219 168.050781 225.941406 167.941406 226.160156 167.847656 C 227.378906 167.34375 228.679688 166.4375 230.007812 165.90625 C 230.207031 165.824219 230.355469 165.769531 230.585938 165.6875 C 231.785156 165.238281 233.542969 165 234.652344 165.429688 C 234.652344 166.171875 234.53125 166.878906 234.53125 167.609375 C 234.53125 167.949219 234.585938 168.039062 234.59375 168.351562 C 234.605469 169.523438 234.769531 170.722656 234.988281 171.824219 L 235.300781 173.863281 C 235.328125 174.019531 235.328125 174.3125 235.363281 174.542969 C 235.476562 175.347656 235.511719 175.972656 235.511719 176.785156 C 234.832031 177.089844 234.300781 177.914062 234.074219 178.589844 C 234.0625 178.609375 234.0625 178.617188 234.054688 178.636719 L 234.007812 178.765625 C 233.972656 178.882812 233.980469 178.828125 233.953125 178.984375 C 233.925781 179.175781 233.898438 179.285156 233.890625 179.488281 C 233.871094 180.238281 233.925781 180.953125 234.109375 181.484375 C 234.203125 181.769531 234.273438 182.007812 234.375 182.308594 L 234.695312 183.085938 C 234.75 183.207031 234.796875 183.332031 234.851562 183.453125 C 235.503906 184.828125 236.859375 187.316406 238.066406 188.042969 C 238.699219 188.417969 239.386719 188.554688 240.144531 188.554688 C 242.71875 188.542969 243.515625 188.261719 245.742188 187.527344 C 246.765625 187.1875 247.894531 186.660156 248.746094 186.15625 C 250.761719 184.964844 250.632812 183.984375 251.0625 181.832031 C 251.171875 181.292969 251.328125 180.613281 251.558594 180.164062 C 251.796875 179.679688 252.042969 179.175781 252.328125 178.765625 C 252.773438 178.085938 253.269531 177.519531 253.773438 176.894531 L 254.808594 175.761719 C 255.011719 175.558594 255.109375 175.394531 255.320312 175.183594 C 256.164062 174.351562 257.199219 173.09375 257.738281 172.078125 C 257.914062 171.75 258.015625 171.757812 258.34375 171.628906 C 259.359375 171.226562 260.25 170.667969 261.101562 170.007812 C 262.328125 169.058594 263.371094 167.738281 263.996094 166.28125 C 264.113281 166.015625 264.195312 165.804688 264.316406 165.511719 L 264.734375 164.324219 C 264.78125 164.167969 264.808594 163.992188 264.847656 163.855469 C 264.984375 163.289062 265 162.941406 265.195312 162.976562 L 265.796875 163.234375 C 265.9375 163.296875 266.035156 163.332031 266.15625 163.386719 C 266.285156 163.441406 266.421875 163.507812 266.558594 163.5625 L 270.6875 164.925781 L 272.539062 165.3125 C 272.859375 165.375 273.179688 165.402344 273.519531 165.402344 C 273.921875 165.402344 274.214844 165.484375 274.546875 165.441406 C 275.5625 165.285156 276.074219 165.46875 277.367188 164.917969 C 277.511719 164.855469 277.578125 164.835938 277.730469 164.761719 C 277.886719 164.6875 277.988281 164.632812 278.109375 164.5625 C 278.234375 164.476562 278.347656 164.421875 278.464844 164.339844 C 278.582031 164.25 278.695312 164.167969 278.804688 164.09375 L 278.207031 163.910156 C 275.71875 163.214844 273.574219 161.675781 271.585938 160.0625 C 271.421875 159.9375 271.285156 159.84375 271.175781 159.679688 C 271.359375 159.734375 271.824219 160.019531 272.035156 160.117188 L 274.644531 161.226562 C 274.664062 161.226562 274.671875 161.234375 274.691406 161.234375 C 274.710938 161.246094 274.71875 161.246094 274.738281 161.253906 L 274.910156 161.308594 C 274.957031 161.328125 275.085938 161.355469 275.132812 161.375 C 275.148438 161.382812 275.230469 161.410156 275.257812 161.417969 L 276.414062 161.804688 C 276.433594 161.8125 276.441406 161.8125 276.460938 161.824219 C 277.171875 162.058594 277.898438 162.171875 278.613281 162.363281 C 280.132812 162.765625 282.496094 162.882812 284.144531 162.648438 C 285.214844 162.492188 286.3125 162.160156 287.210938 161.613281 C 287.375 161.511719 287.496094 161.445312 287.640625 161.347656 L 288.042969 160.988281 C 287.136719 160.988281 284.425781 159.679688 283.519531 159.140625 C 282.550781 158.554688 281.632812 157.921875 280.734375 157.234375 L 274.582031 152.152344 L 272.867188 150.941406 C 272.730469 150.851562 272.632812 150.796875 272.476562 150.703125 C 271.019531 149.835938 269.664062 149.25 268.035156 148.707031 C 267.867188 148.652344 267.742188 148.636719 267.53125 148.582031 C 267.191406 148.488281 266.972656 148.414062 266.605469 148.351562 C 265.53125 148.167969 264.535156 147.984375 263.398438 147.984375 C 263.171875 147.363281 263.03125 146.785156 262.792969 146.164062 C 262.554688 145.539062 262.347656 144.964844 262.136719 144.359375 C 261.824219 143.480469 261.429688 142.671875 261.074219 141.804688 C 260.6875 140.851562 259.984375 139.339844 259.488281 138.523438 C 259.332031 138.257812 259.222656 137.984375 259.046875 137.699219 C 258.351562 136.566406 257.867188 135.632812 257.117188 134.476562 L 250.714844 126.554688 L 248.855469 124.808594 C 247.546875 123.589844 245.523438 122.023438 244.054688 121.050781 L 238.386719 117.597656 C 238.25 117.527344 238.121094 117.480469 237.964844 117.390625 C 237.847656 117.316406 237.910156 117.351562 237.792969 117.277344 L 236.335938 116.546875 C 235.777344 116.28125 235.273438 116.050781 234.6875 115.785156 C 234.523438 115.714844 234.457031 115.695312 234.285156 115.613281 L 232.113281 114.6875 C 231.253906 114.339844 230.320312 113.964844 229.429688 113.699219 L 228.101562 113.25 C 226.132812 112.636719 224.109375 111.941406 222.203125 111.179688 C 219.546875 110.117188 216.277344 108.058594 213.382812 106.648438 C 212.265625 106.105469 211.039062 105.601562 209.820312 105.320312 C 209.164062 105.164062 208.4375 104.988281 207.722656 104.933594 C 207.148438 104.886719 206.058594 104.777344 205.488281 104.851562 C 204.957031 104.925781 204.4375 104.84375 203.742188 104.945312 C 203.089844 105.035156 202.273438 105.070312 201.605469 105.210938 L 198.933594 105.628906 C 198.628906 105.683594 198.191406 105.722656 197.878906 105.785156 C 197.566406 105.851562 197.128906 105.914062 196.835938 105.949219 L 194.683594 106.261719 C 194.351562 106.308594 194.058594 106.390625 193.664062 106.453125 C 192.703125 106.601562 191.597656 106.8125 190.679688 107.125 C 190.660156 107.132812 190.652344 107.132812 190.632812 107.140625 C 190.617188 107.152344 190.605469 107.152344 190.589844 107.160156 L 185.019531 109.386719 C 184.835938 109.457031 184.738281 109.503906 184.589844 109.578125 C 184.058594 109.84375 183.519531 110.117188 182.988281 110.382812 L 180.625 111.683594 C 180.359375 111.847656 180.101562 111.984375 179.863281 112.132812 C 178.671875 112.847656 177.234375 113.699219 176.164062 114.503906 C 175.90625 114.695312 175.679688 114.824219 175.421875 115.015625 C 175.175781 115.199219 174.984375 115.335938 174.71875 115.519531 C 172.96875 116.738281 170.101562 118.992188 168.597656 120.347656 C 168.472656 120.464844 168.414062 120.484375 168.289062 120.601562 C 168.140625 120.730469 168.085938 120.757812 167.949219 120.886719 L 162.773438 125.464844 C 162.644531 125.566406 162.5625 125.640625 162.445312 125.757812 C 162.289062 125.914062 162.242188 125.941406 162.105469 126.050781 L 157.773438 130.199219 C 157.351562 130.613281 157.011719 131.070312 156.601562 131.492188 C 156.363281 131.722656 156.289062 131.902344 156.015625 132.113281 C 155.894531 132.207031 155.824219 132.269531 155.714844 132.378906 C 155.355469 132.746094 154.898438 133.058594 154.441406 133.296875 C 154.101562 133.480469 153.726562 133.578125 153.359375 133.71875 C 152.863281 133.902344 152.386719 133.964844 151.894531 134.09375 L 150.832031 134.304688 C 149.804688 134.503906 148.726562 134.578125 147.636719 134.722656 C 146.527344 134.871094 145.445312 134.90625 144.355469 135.117188 C 143.285156 135.328125 142.195312 135.382812 141.070312 135.503906 C 140.730469 135.539062 140.355469 135.578125 139.96875 135.613281 C 139.628906 135.640625 139.246094 135.695312 138.878906 135.730469 C 138.53125 135.769531 138.136719 135.8125 137.761719 135.871094 C 136.910156 135.988281 136.011719 136.078125 135.1875 136.273438 C 135.144531 136.28125 134.777344 136.363281 134.675781 136.390625 C 134.601562 136.410156 134.308594 136.5 134.199219 136.539062 C 134.027344 136.59375 134.207031 136.539062 133.988281 136.609375 L 133.804688 136.667969 C 133.789062 136.667969 133.777344 136.675781 133.761719 136.675781 C 133.742188 136.675781 133.730469 136.683594 133.714844 136.683594 L 132.652344 137.105469 C 131.617188 137.554688 130.601562 138.078125 129.628906 138.664062 L 121.671875 143.488281 C 120.277344 144.332031 118.722656 145.15625 117.164062 145.703125 C 117.027344 145.75 116.878906 145.816406 116.753906 145.859375 C 116.578125 145.925781 116.46875 145.953125 116.285156 146.023438 L 113.582031 146.996094 C 113.410156 147.050781 113.316406 147.097656 113.171875 147.152344 C 111.835938 147.683594 110.414062 148.078125 109.039062 148.535156 L 107.183594 149.140625 C 106.566406 149.347656 105.9375 149.53125 105.339844 149.707031 C 105.140625 149.769531 105.113281 149.796875 104.917969 149.851562 L 103.464844 150.285156 C 102.527344 150.605469 101.53125 150.832031 100.550781 150.996094 C 99.691406 151.136719 98.785156 151.363281 97.886719 151.382812 C 96.695312 151.410156 96.28125 151.511719 94.992188 151.308594 L 94.019531 151.082031 C 93.726562 150.996094 93.417969 150.878906 93.160156 150.75 C 92.179688 150.257812 91.730469 149.671875 91.566406 148.652344 C 91.484375 148.167969 91.492188 147.554688 91.601562 147.003906 L 91.996094 145.511719 C 92.089844 145.246094 92.226562 144.933594 92.34375 144.660156 C 92.464844 144.386719 92.59375 144.109375 92.730469 143.847656 C 93.929688 141.4375 95.742188 140.046875 98.132812 138.972656 C 98.308594 138.902344 98.390625 138.863281 98.582031 138.800781 C 99.542969 138.480469 100.605469 138.332031 101.59375 138.148438 C 103.609375 137.773438 104.964844 137.152344 106.246094 135.410156 C 107.59375 133.589844 108.273438 130.785156 108.273438 127.636719 C 108.273438 126.273438 108.1875 125.585938 108.050781 124.257812 C 107.921875 123.011719 110.632812 122.078125 111.429688 121.566406 Z M 201.945312 193.589844 L 202.007812 193.65625 C 202.019531 193.664062 202.035156 193.671875 202.046875 193.683594 L 202.503906 193.964844 C 203.59375 194.625 205.589844 195.972656 206.660156 196.300781 C 206.808594 195.863281 207.164062 195.695312 207.359375 195.3125 C 206.972656 195.15625 206.460938 194.691406 206.15625 194.441406 C 205.378906 193.828125 204.535156 192.996094 203.445312 193.015625 C 202.734375 193.023438 202.394531 193.34375 201.953125 193.582031 Z M 259.40625 152.554688 C 260.53125 152.144531 261.273438 152.097656 262.445312 152.425781 C 261.832031 153.800781 258.574219 155 259.371094 157.929688 C 262.402344 158.371094 262.960938 156.640625 264.964844 155.886719 C 266.988281 155.128906 269.570312 156.125 271.183594 156.949219 C 272.703125 157.738281 274.867188 158.910156 276.347656 159.589844 C 277.851562 160.273438 280.863281 161.375 282.789062 160.859375 C 281.488281 160.164062 281.40625 160.320312 279.875 159.277344 C 275.398438 156.226562 271.640625 151.21875 266.046875 150.285156 C 264.679688 150.054688 263.269531 150.15625 262.015625 150.578125 C 260.933594 150.941406 259.761719 151.667969 259.414062 152.554688 Z M 253.535156 154.835938 C 252.703125 154.851562 252.425781 154.550781 251.695312 154.503906 C 252.0625 155.503906 252.628906 156.667969 251.667969 157.929688 C 249.011719 157.527344 246.464844 157.316406 243.964844 158.222656 C 241.902344 158.972656 240.183594 160.328125 239.851562 162.765625 C 239.679688 164.046875 239.960938 165.367188 240.59375 166.199219 C 241.132812 166.90625 242.070312 167.589844 243.066406 168.085938 C 244.808594 168.9375 247.527344 170.109375 247.882812 171.960938 C 247.492188 171.824219 247.179688 171.613281 246.730469 171.476562 C 244.605469 170.816406 242.253906 171.710938 241.363281 173.863281 C 240.96875 174.828125 241.023438 175.613281 241.199219 176.648438 C 242.453125 176.59375 242.371094 175.339844 243.40625 175.558594 C 243.398438 177.289062 242.867188 179.671875 242.371094 181.246094 C 241.75 183.214844 240.695312 184.257812 240.320312 185.878906 C 241.199219 186.519531 242.765625 186.226562 243.882812 186.0625 C 243.644531 184.453125 244.332031 183.570312 245.410156 183.078125 C 246.375 182.648438 247.710938 182.648438 248.5625 183.363281 C 248.699219 183.480469 248.71875 183.535156 248.875 183.617188 C 248.984375 182.382812 249.140625 181.65625 249.625 180.640625 L 250.90625 178.214844 C 249.953125 178.039062 249.257812 178.699219 248.589844 178.40625 C 248.609375 177.902344 249.953125 176.558594 250.265625 176.238281 C 250.761719 175.722656 253.066406 173.847656 253.964844 173.113281 L 255.414062 171.640625 C 256.4375 170.320312 256.660156 169.699219 258.40625 168.726562 C 259.414062 168.167969 259.945312 167.902344 260.625 167.042969 C 261.660156 165.734375 262.054688 162.691406 262.097656 160.667969 C 260.679688 160.914062 259.441406 161.089844 258.125 160.503906 C 257.078125 160.035156 256.238281 159.230469 255.75 158.234375 C 254.222656 155.074219 257.472656 151.601562 252.410156 145.640625 C 251.90625 145.046875 251.265625 144.40625 250.632812 143.917969 C 249.882812 143.34375 249.46875 143.003906 248.542969 142.507812 C 247.792969 142.113281 246.117188 141.335938 245.144531 141.316406 C 245.464844 143.679688 247.480469 146.582031 249.066406 148.34375 L 250.328125 149.824219 C 251.273438 150.886719 253.277344 153.570312 253.515625 154.851562 Z M 253.835938 164.03125 C 253.835938 165.640625 254.25 167.261719 254.15625 168.902344 C 254.121094 169.523438 253.984375 169.882812 253.882812 170.421875 C 255.191406 170.035156 256.246094 168.445312 256.796875 167.179688 C 258.03125 167.363281 258.882812 167.105469 259.535156 166.457031 C 260.082031 165.898438 260.542969 164.964844 260.542969 163.855469 C 260.542969 162.535156 259.800781 161.492188 258.480469 161.492188 L 258.425781 161.492188 C 256.988281 161.492188 256.757812 162.902344 255.917969 163.050781 C 255.917969 162.589844 256.703125 160.0625 255.414062 160.789062 C 254.214844 161.457031 253.835938 162.582031 253.835938 164.03125 Z M 144.238281 142.097656 C 144.476562 141.417969 147.214844 140.375 147.25 139.230469 C 143.304688 139.542969 138.707031 139.796875 135.085938 140.90625 C 132.175781 141.792969 128.347656 143.929688 125.910156 145.59375 C 124.472656 146.574219 123.253906 147.5625 122.3125 148.9375 C 121.386719 150.300781 120.664062 151.847656 120.132812 153.699219 C 119.289062 156.621094 118.976562 159.871094 119.070312 162.96875 C 119.105469 164.046875 119.242188 165.121094 119.296875 166.171875 C 118.683594 166.199219 118.273438 165.804688 117.585938 165.777344 C 117.550781 167.296875 117.027344 168.828125 116.597656 170.183594 C 116.285156 171.171875 115.644531 173.855469 116.222656 174.714844 C 118.546875 174.066406 120.140625 171.492188 121.421875 169.726562 C 122.660156 168.023438 124.078125 166.410156 125.628906 164.992188 C 125.753906 164.871094 125.835938 164.824219 125.976562 164.707031 C 126.101562 164.597656 126.214844 164.503906 126.359375 164.40625 C 127.652344 163.5 129.007812 162.757812 130.699219 162.382812 C 130.964844 162.324219 130.957031 162.34375 131.066406 162.117188 C 132.433594 159.148438 132.898438 153.371094 131.453125 150.730469 C 129.664062 150.484375 128.648438 151.355469 127.238281 151.382812 C 127.054688 149.824219 127.6875 148.160156 128.429688 147.261719 C 129.960938 145.410156 133.21875 144.613281 135.410156 143.515625 C 136.039062 143.195312 138.550781 141.683594 139.390625 142.34375 L 137.980469 143.507812 C 137.863281 143.617188 137.753906 143.679688 137.644531 143.800781 C 137.496094 143.945312 137.460938 143.972656 137.3125 144.101562 C 136.671875 144.632812 135.96875 145.421875 135.492188 146.171875 C 134.933594 147.050781 135.085938 146.949219 135.5625 147.902344 C 136.441406 149.652344 138.84375 153.03125 139.226562 154.652344 L 137.808594 154.613281 C 137.898438 154.863281 138.53125 155.585938 138.707031 155.769531 C 139.042969 156.117188 139.417969 156.417969 139.859375 156.738281 C 140.683594 157.335938 141.582031 157.765625 142.699219 158.148438 C 148.066406 159.980469 155.328125 158.425781 160.457031 156.28125 C 160.933594 156.082031 161.457031 155.832031 161.894531 155.59375 C 162.324219 155.367188 162.867188 155 163.257812 154.835938 C 163.808594 155.59375 163.753906 157.730469 165.144531 158.378906 C 165.339844 157.996094 165.503906 157.480469 165.667969 157.078125 C 165.859375 156.640625 166.042969 156.207031 166.253906 155.769531 C 166.675781 154.898438 167.097656 154.066406 167.535156 153.269531 C 168.414062 151.683594 169.449219 150.117188 170.59375 148.761719 L 173.296875 145.851562 C 174.332031 144.945312 175.277344 144.148438 176.457031 143.332031 C 176.96875 142.984375 178.261719 142.132812 178.882812 141.921875 C 178.882812 148.039062 174.625 151.382812 174.386719 157.132812 C 174.285156 159.617188 174.863281 163.589844 175.292969 166.082031 C 175.53125 167.464844 175.824219 168.792969 176.183594 170.121094 C 176.457031 171.125 176.988281 172.929688 177.445312 173.746094 C 177.566406 173.113281 177.574219 172.601562 177.738281 171.96875 C 178.296875 169.835938 179.671875 167.773438 179.351562 165.449219 C 179.113281 163.746094 177.574219 163.929688 177.765625 160.796875 C 177.96875 157.507812 180.742188 154.550781 181.328125 150.90625 C 181.402344 150.464844 181.402344 150.410156 181.648438 150.191406 C 183.554688 148.515625 186.203125 147.683594 187.730469 145.84375 C 189.277344 143.984375 189.023438 140.871094 191.414062 137.078125 C 191.835938 136.410156 192.238281 135.871094 192.722656 135.292969 C 193.519531 134.359375 194.460938 133.550781 195.542969 132.902344 C 196.25 132.480469 197.558594 131.792969 198.472656 131.621094 C 198.21875 133.167969 197.429688 135.660156 196.972656 137.253906 C 195.882812 141.097656 194.839844 144.953125 194.425781 148.984375 C 194.1875 151.375 194.242188 153.441406 194.308594 155.84375 C 195.203125 155.511719 196.402344 154.09375 196.90625 153.359375 C 197.59375 152.363281 198.199219 151.28125 198.941406 150.347656 C 199.269531 151.429688 198.933594 155.027344 198.703125 156.191406 C 198.070312 159.496094 196.625 162.253906 195.175781 165.15625 C 194.582031 166.335938 193.554688 168.324219 193.273438 169.605469 C 198.171875 170.273438 200.808594 168.425781 204.410156 166.082031 C 205.453125 165.402344 206.339844 164.726562 207.347656 164.03125 C 208.328125 163.351562 209.261719 162.648438 210.28125 161.96875 C 212.3125 160.613281 214.390625 159.367188 216.746094 158.460938 C 217.351562 158.222656 217.945312 158.023438 218.585938 157.839844 C 219.152344 157.675781 220.050781 157.527344 220.554688 157.34375 C 219.382812 156.410156 216.269531 155.632812 214.464844 155.347656 C 211.984375 154.953125 209.289062 154.863281 206.6875 154.992188 C 207.101562 154.304688 209.75 152.976562 210.351562 152.703125 C 214.976562 150.605469 220.683594 150.238281 225.804688 150.230469 C 229.484375 150.230469 233.265625 150.59375 236.8125 151.117188 C 239.339844 151.492188 241.8125 151.949219 244.277344 152.589844 C 245.035156 152.792969 245.898438 153.066406 246.621094 153.222656 C 246.472656 152.882812 245.960938 152.289062 245.722656 152.058594 C 245.503906 151.859375 245.429688 151.757812 245.191406 151.566406 C 241.609375 148.664062 233.558594 146.722656 229.027344 145.824219 C 227.855469 145.59375 226.671875 145.367188 225.511719 145.15625 C 224.402344 144.953125 222.992188 144.789062 221.964844 144.523438 C 222.761719 143.808594 225.554688 143.269531 226.671875 143.160156 C 230.347656 142.773438 234.035156 143.441406 237.609375 144.121094 C 239.265625 144.441406 241.078125 144.933594 242.726562 145.144531 C 242.472656 144.082031 241.132812 141.921875 240.519531 140.816406 C 240.265625 140.355469 240.054688 139.851562 239.816406 139.375 C 240.4375 139.066406 242.125 138.808594 242.902344 138.746094 C 247.882812 138.359375 252.757812 141.023438 255.652344 144.769531 C 256.199219 145.476562 256.714844 146.152344 257.191406 147.015625 C 257.398438 147.40625 257.628906 147.828125 257.832031 148.269531 C 257.996094 148.636719 258.195312 149.292969 258.371094 149.597656 C 258.710938 149.476562 258.636719 149.3125 259.734375 148.992188 C 259.414062 147.179688 258.480469 145.144531 257.722656 143.507812 C 256.894531 141.722656 255.917969 140.246094 254.972656 138.679688 C 254.488281 137.875 253.992188 137.113281 253.5 136.371094 C 252.996094 135.613281 252.480469 134.84375 251.933594 134.15625 C 250.75 132.664062 249.761719 131.539062 248.066406 130.449219 C 245.257812 128.652344 240.96875 127.097656 237.351562 126.023438 C 234.375 125.144531 231.269531 124.441406 228.203125 123.828125 C 227.597656 123.707031 225.492188 123.367188 225.070312 123.1875 C 225.152344 123.011719 225.089844 123.113281 225.253906 122.976562 C 225.328125 122.921875 225.410156 122.847656 225.484375 122.800781 C 227.964844 121.007812 233.558594 122.140625 236.28125 122.351562 C 235.769531 121.886719 233.46875 120.886719 232.636719 120.539062 C 228.203125 118.699219 223.027344 118.058594 218.175781 118.773438 C 211.066406 119.804688 204.859375 125.136719 202.90625 125.777344 C 203.347656 123.761719 205.5 121.730469 205.964844 119.789062 C 203.785156 120.292969 200.726562 122.277344 199.042969 123.523438 C 197.675781 124.53125 193.988281 127.351562 192.59375 127.828125 C 192.429688 123.734375 194.589844 122.25 196.183594 120.101562 C 197.851562 117.847656 198.585938 114.816406 200.808594 113.367188 C 207.128906 109.257812 213.320312 117.261719 218.355469 114.917969 L 218.566406 114.777344 C 218.578125 114.769531 218.585938 114.761719 218.59375 114.75 C 217.625 114.101562 215.132812 112.792969 214.117188 112.289062 C 212.578125 111.519531 210.894531 110.839844 209.042969 110.429688 C 202.007812 108.863281 192.382812 111.519531 186.128906 114.457031 C 184.542969 115.199219 183.078125 116.050781 181.621094 116.886719 C 180.84375 117.335938 180.183594 117.773438 179.46875 118.230469 C 178.753906 118.6875 178.050781 119.15625 177.371094 119.632812 C 175.972656 120.640625 174.6875 121.554688 173.371094 122.5625 C 172.042969 123.578125 170.742188 124.523438 169.449219 125.574219 C 167.839844 126.894531 166.21875 128.113281 164.652344 129.429688 C 164.304688 129.722656 164.019531 129.980469 163.679688 130.238281 L 162.289062 131.429688 C 162.1875 131.519531 162.132812 131.546875 162.03125 131.628906 L 159.054688 134.277344 C 158.433594 134.789062 157.488281 135.757812 156.785156 136.363281 C 156.609375 136.511719 156.519531 136.628906 156.335938 136.777344 C 155.683594 137.289062 155.097656 137.875 154.441406 138.378906 C 153.175781 139.347656 151.867188 140.300781 150.152344 141.035156 C 148.128906 141.894531 146.683594 142.125 144.253906 142.070312 Z M 98.527344 130.953125 C 98.453125 130.375 98.691406 130.511719 98.710938 129.945312 C 97.546875 130.265625 95.625 131.554688 94.789062 132.390625 C 94.332031 132.839844 93.808594 133.488281 93.453125 134.210938 C 93.167969 134.789062 92.746094 136.023438 92.859375 136.785156 C 93.984375 132.097656 101.421875 133.085938 103.226562 131.777344 C 104.195312 131.070312 104.792969 129.128906 104.636719 127.589844 C 104.160156 127.507812 104.066406 127.992188 103.34375 128.625 C 102.894531 129.011719 102.558594 129.3125 101.988281 129.679688 C 101.355469 130.101562 99.507812 131.035156 98.527344 130.960938 Z M 102.5 205.960938 L 104.460938 205.972656 C 104.488281 205.726562 104.09375 203.726562 103.996094 203.445312 C 103.554688 203.371094 103.5 203.527344 103.152344 203.589844 C 102.683594 203.683594 102.792969 203.601562 102.683594 204.140625 C 102.59375 204.605469 102.429688 205.503906 102.511719 205.960938 Z M 102.988281 198.9375 L 104.34375 198.9375 C 104.808594 196.667969 105.449219 194.257812 106.15625 192.152344 C 106.613281 190.769531 107.308594 188.847656 107.996094 187.574219 L 108.773438 186.183594 C 107.996094 186.59375 108.105469 186.574219 107.089844 186.777344 C 106.027344 186.988281 106.273438 186.730469 106.046875 188.078125 C 105.46875 191.367188 104.882812 195.148438 103.390625 198.152344 C 103.261719 198.40625 103.089844 198.691406 102.988281 198.9375 Z M 167.921875 205.808594 C 168.902344 205.789062 169.660156 205.769531 170.59375 205.652344 L 170.585938 202.050781 L 169.085938 202.050781 C 168.984375 202.253906 168.875 202.65625 168.765625 202.921875 C 168.644531 203.214844 168.515625 203.472656 168.386719 203.753906 C 168.085938 204.453125 167.949219 204.957031 167.910156 205.816406 Z M 167.921875 205.808594 " fill-opacity="1" fill-rule="evenodd"/></g><g fill="#b50d0d" fill-opacity="1"><g transform="translate(80.264399, 233.546529)"><g><path d="M 12.515625 -16.859375 L 12.515625 -5.6875 C 12.515625 -3.789062 12 -2.335938 10.96875 -1.328125 C 9.9375 -0.328125 8.519531 0.171875 6.71875 0.171875 C 4.800781 0.171875 3.273438 -0.359375 2.140625 -1.421875 C 1.003906 -2.492188 0.4375 -4.035156 0.4375 -6.046875 L 5.078125 -6.046875 C 5.085938 -4.722656 5.570312 -4.0625 6.53125 -4.0625 C 7.394531 -4.0625 7.828125 -4.601562 7.828125 -5.6875 L 7.828125 -16.859375 Z M 12.515625 -16.859375 "/></g></g></g><g fill="#b50d0d" fill-opacity="1"><g transform="translate(99.065982, 233.546529)"><g><path d="M 12.015625 -2.75 L 6.03125 -2.75 L 5.125 0 L 0.1875 0 L 6.34375 -16.859375 L 11.75 -16.859375 L 17.875 0 L 12.921875 0 Z M 10.84375 -6.34375 L 9.015625 -11.796875 L 7.21875 -6.34375 Z M 10.84375 -6.34375 "/></g></g></g><g fill="#b50d0d" fill-opacity="1"><g transform="translate(121.957534, 233.546529)"><g><path d="M 16.953125 0 L 12.265625 0 L 6.03125 -9.421875 L 6.03125 0 L 1.34375 0 L 1.34375 -16.859375 L 6.03125 -16.859375 L 12.265625 -7.3125 L 12.265625 -16.859375 L 16.953125 -16.859375 Z M 16.953125 0 "/></g></g></g><g fill="#b50d0d" fill-opacity="1"><g transform="translate(145.088268, 233.546529)"><g><path d="M 6.03125 -13.109375 L 6.03125 -10.359375 L 11.40625 -10.359375 L 11.40625 -6.796875 L 6.03125 -6.796875 L 6.03125 -3.75 L 12.125 -3.75 L 12.125 0 L 1.34375 0 L 1.34375 -16.859375 L 12.125 -16.859375 L 12.125 -13.109375 Z M 6.03125 -13.109375 "/></g></g></g><g fill="#b50d0d" fill-opacity="1"><g transform="translate(163.028798, 233.546529)"><g><path d="M 14.046875 -16.859375 L 14.046875 -13.140625 L 9.546875 -13.140625 L 9.546875 0 L 4.859375 0 L 4.859375 -13.140625 L 0.40625 -13.140625 L 0.40625 -16.859375 Z M 14.046875 -16.859375 "/></g></g></g><g fill="#b50d0d" fill-opacity="1"><g transform="translate(182.30875, 233.546529)"><g/></g></g><g fill="#b50d0d" fill-opacity="1"><g transform="translate(191.710574, 233.546529)"><g><path d="M 7.703125 0.171875 C 5.742188 0.171875 4.132812 -0.289062 2.875 -1.21875 C 1.613281 -2.15625 0.9375 -3.492188 0.84375 -5.234375 L 5.84375 -5.234375 C 5.882812 -4.648438 6.054688 -4.222656 6.359375 -3.953125 C 6.660156 -3.679688 7.050781 -3.546875 7.53125 -3.546875 C 7.96875 -3.546875 8.320312 -3.648438 8.59375 -3.859375 C 8.875 -4.078125 9.015625 -4.378906 9.015625 -4.765625 C 9.015625 -5.253906 8.78125 -5.632812 8.3125 -5.90625 C 7.851562 -6.175781 7.109375 -6.476562 6.078125 -6.8125 C 4.972656 -7.1875 4.082031 -7.539062 3.40625 -7.875 C 2.726562 -8.21875 2.140625 -8.71875 1.640625 -9.375 C 1.140625 -10.039062 0.890625 -10.910156 0.890625 -11.984375 C 0.890625 -13.066406 1.160156 -13.992188 1.703125 -14.765625 C 2.242188 -15.546875 2.988281 -16.132812 3.9375 -16.53125 C 4.894531 -16.925781 5.984375 -17.125 7.203125 -17.125 C 9.160156 -17.125 10.722656 -16.664062 11.890625 -15.75 C 13.066406 -14.832031 13.695312 -13.546875 13.78125 -11.890625 L 8.6875 -11.890625 C 8.664062 -12.398438 8.507812 -12.78125 8.21875 -13.03125 C 7.925781 -13.289062 7.546875 -13.421875 7.078125 -13.421875 C 6.722656 -13.421875 6.4375 -13.316406 6.21875 -13.109375 C 6 -12.898438 5.890625 -12.601562 5.890625 -12.21875 C 5.890625 -11.90625 6.007812 -11.628906 6.25 -11.390625 C 6.5 -11.160156 6.804688 -10.960938 7.171875 -10.796875 C 7.546875 -10.628906 8.085938 -10.421875 8.796875 -10.171875 C 9.867188 -9.796875 10.75 -9.429688 11.4375 -9.078125 C 12.132812 -8.722656 12.734375 -8.222656 13.234375 -7.578125 C 13.742188 -6.929688 14 -6.113281 14 -5.125 C 14 -4.113281 13.742188 -3.207031 13.234375 -2.40625 C 12.734375 -1.613281 12.007812 -0.984375 11.0625 -0.515625 C 10.113281 -0.0546875 8.992188 0.171875 7.703125 0.171875 Z M 7.703125 0.171875 "/></g></g></g><g fill="#b50d0d" fill-opacity="1"><g transform="translate(211.373193, 233.546529)"><g><path d="M 12.015625 -2.75 L 6.03125 -2.75 L 5.125 0 L 0.1875 0 L 6.34375 -16.859375 L 11.75 -16.859375 L 17.875 0 L 12.921875 0 Z M 10.84375 -6.34375 L 9.015625 -11.796875 L 7.21875 -6.34375 Z M 10.84375 -6.34375 "/></g></g></g><g fill="#b50d0d" fill-opacity="1"><g transform="translate(234.26474, 233.546529)"><g><path d="M 16.953125 0 L 12.265625 0 L 6.03125 -9.421875 L 6.03125 0 L 1.34375 0 L 1.34375 -16.859375 L 6.03125 -16.859375 L 12.265625 -7.3125 L 12.265625 -16.859375 L 16.953125 -16.859375 Z M 16.953125 0 "/></g></g></g><g fill="#b50d0d" fill-opacity="1"><g transform="translate(257.395468, 233.546529)"><g><path d="M 14.046875 -16.859375 L 14.046875 -13.140625 L 9.546875 -13.140625 L 9.546875 0 L 4.859375 0 L 4.859375 -13.140625 L 0.40625 -13.140625 L 0.40625 -16.859375 Z M 14.046875 -16.859375 "/></g></g></g><g fill="#b50d0d" fill-opacity="1"><g transform="translate(276.67542, 233.546529)"><g><path d="M 12.015625 -2.75 L 6.03125 -2.75 L 5.125 0 L 0.1875 0 L 6.34375 -16.859375 L 11.75 -16.859375 L 17.875 0 L 12.921875 0 Z M 10.84375 -6.34375 L 9.015625 -11.796875 L 7.21875 -6.34375 Z M 10.84375 -6.34375 "/></g></g></g><g fill="#b50d0d" fill-opacity="1"><g transform="translate(161.729591, 252.661229)"><g><path d="M 6.625 -0.625 C 6.4375 -0.46875 6.132812 -0.3125 5.71875 -0.15625 C 5.300781 0 4.847656 0.078125 4.359375 0.078125 C 3.566406 0.078125 2.878906 -0.0859375 2.296875 -0.421875 C 1.722656 -0.765625 1.28125 -1.222656 0.96875 -1.796875 C 0.664062 -2.378906 0.515625 -3.015625 0.515625 -3.703125 C 0.515625 -4.460938 0.664062 -5.140625 0.96875 -5.734375 C 1.28125 -6.328125 1.710938 -6.789062 2.265625 -7.125 C 2.816406 -7.457031 3.457031 -7.625 4.1875 -7.625 C 4.644531 -7.625 5.066406 -7.5625 5.453125 -7.4375 C 5.835938 -7.3125 6.179688 -7.160156 6.484375 -6.984375 L 5.890625 -5.578125 C 5.347656 -5.984375 4.796875 -6.1875 4.234375 -6.1875 C 3.847656 -6.1875 3.488281 -6.082031 3.15625 -5.875 C 2.820312 -5.664062 2.554688 -5.375 2.359375 -5 C 2.160156 -4.632812 2.0625 -4.234375 2.0625 -3.796875 C 2.0625 -3.304688 2.148438 -2.878906 2.328125 -2.515625 C 2.515625 -2.148438 2.78125 -1.863281 3.125 -1.65625 C 3.46875 -1.457031 3.867188 -1.359375 4.328125 -1.359375 C 4.691406 -1.359375 5.019531 -1.414062 5.3125 -1.53125 C 5.613281 -1.65625 5.847656 -1.796875 6.015625 -1.953125 Z M 6.625 -0.625 "/></g></g></g><g fill="#b50d0d" fill-opacity="1"><g transform="translate(170.43691, 252.661229)"><g><path d="M 7.3125 0 L 5.828125 0 L 5.828125 -3.0625 L 2.453125 -3.0625 L 2.453125 0 L 0.96875 0 L 0.96875 -7.546875 L 2.453125 -7.546875 L 2.453125 -4.5 L 5.828125 -4.5 L 5.828125 -7.546875 L 7.3125 -7.546875 Z M 7.3125 0 "/></g></g></g><g fill="#b50d0d" fill-opacity="1"><g transform="translate(180.29135, 252.661229)"><g><path d="M 6.125 -7.546875 L 6.125 -6.109375 L 2.453125 -6.109375 L 2.453125 -4.5 L 5.703125 -4.5 L 5.703125 -3.0625 L 2.453125 -3.0625 L 2.453125 -1.4375 L 6.265625 -1.4375 L 6.265625 0 L 0.96875 0 L 0.96875 -7.546875 Z M 6.125 -7.546875 "/></g></g></g><g fill="#b50d0d" fill-opacity="1"><g transform="translate(188.681164, 252.661229)"><g><path d="M 5.046875 0 L 3.453125 -2.40625 L 2.453125 -2.40625 L 2.453125 0 L 0.96875 0 L 0.96875 -7.546875 L 3.265625 -7.546875 C 4.191406 -7.546875 4.914062 -7.316406 5.4375 -6.859375 C 5.957031 -6.410156 6.21875 -5.789062 6.21875 -5 C 6.21875 -4.539062 6.117188 -4.101562 5.921875 -3.6875 C 5.722656 -3.28125 5.421875 -2.960938 5.015625 -2.734375 L 6.78125 0 Z M 2.453125 -3.828125 L 3.515625 -3.828125 C 3.921875 -3.828125 4.210938 -3.945312 4.390625 -4.1875 C 4.578125 -4.425781 4.671875 -4.679688 4.671875 -4.953125 C 4.671875 -5.222656 4.59375 -5.484375 4.4375 -5.734375 C 4.28125 -5.984375 3.976562 -6.109375 3.53125 -6.109375 L 2.453125 -6.109375 Z M 2.453125 -3.828125 "/></g></g></g><g fill="#b50d0d" fill-opacity="1"><g transform="translate(197.275828, 252.661229)"><g><path d="M 5.046875 0 L 3.453125 -2.40625 L 2.453125 -2.40625 L 2.453125 0 L 0.96875 0 L 0.96875 -7.546875 L 3.265625 -7.546875 C 4.191406 -7.546875 4.914062 -7.316406 5.4375 -6.859375 C 5.957031 -6.410156 6.21875 -5.789062 6.21875 -5 C 6.21875 -4.539062 6.117188 -4.101562 5.921875 -3.6875 C 5.722656 -3.28125 5.421875 -2.960938 5.015625 -2.734375 L 6.78125 0 Z M 2.453125 -3.828125 L 3.515625 -3.828125 C 3.921875 -3.828125 4.210938 -3.945312 4.390625 -4.1875 C 4.578125 -4.425781 4.671875 -4.679688 4.671875 -4.953125 C 4.671875 -5.222656 4.59375 -5.484375 4.4375 -5.734375 C 4.28125 -5.984375 3.976562 -6.109375 3.53125 -6.109375 L 2.453125 -6.109375 Z M 2.453125 -3.828125 "/></g></g></g><g fill="#b50d0d" fill-opacity="1"><g transform="translate(205.870492, 252.661229)"><g><path d="M 7.25 -7.546875 L 4.421875 -2.34375 L 4.421875 0 L 2.9375 0 L 2.9375 -2.34375 L 0.15625 -7.546875 L 1.984375 -7.546875 L 3.71875 -4.0625 L 5.40625 -7.546875 Z M 7.25 -7.546875 "/></g></g></g></svg>