<?xml version="1.0" encoding="UTF-8"?>
<!DOCTYPE svg PUBLIC "-//W3C//DTD SVG 1.1//EN" "http://www.w3.org/Graphics/SVG/1.1/DTD/svg11.dtd">
<svg xmlns="http://www.w3.org/2000/svg" version="1.1" width="500px" height="210px" style="shape-rendering:geometricPrecision; text-rendering:geometricPrecision; image-rendering:optimizeQuality; fill-rule:evenodd; clip-rule:evenodd" xmlns:xlink="http://www.w3.org/1999/xlink">
<g><path style="opacity:1" fill="#6c1f1a" d="M 306.5,19.5 C 304.08,19.7076 301.747,19.3742 299.5,18.5C 297.483,19.6729 296.816,21.1729 297.5,23C 295.597,23.7737 293.93,23.4404 292.5,22C 294.615,21.5756 295.448,20.4089 295,18.5C 294,19.8333 293,19.8333 292,18.5C 291.517,19.448 291.351,20.448 291.5,21.5C 288.552,21.2229 285.719,21.5562 283,22.5C 282.487,21.4734 281.987,20.4734 281.5,19.5C 284.113,20.4349 286.779,20.6015 289.5,20C 277.081,13.1513 264.415,12.818 251.5,19C 246.341,21.4121 241.341,24.0788 236.5,27C 227.671,33.6665 219.004,40.4999 210.5,47.5C 209.448,47.3505 208.448,47.5172 207.5,48C 205.093,49.8669 203.093,52.0336 201.5,54.5C 198.756,54.7521 196.256,54.0855 194,52.5C 193.235,52.5699 192.735,52.9033 192.5,53.5C 179.835,54.0009 169.502,59.0009 161.5,68.5C 160.778,68.0825 160.278,67.4158 160,66.5C 158.19,73.7401 156.856,81.0734 156,88.5C 155.311,89.3567 154.478,90.0233 153.5,90.5C 152.832,88.0312 152.165,85.6979 151.5,83.5C 151.5,82.1667 151.5,80.8333 151.5,79.5C 152.924,77.4855 153.59,75.1522 153.5,72.5C 153.38,71.4138 152.713,70.7472 151.5,70.5C 141.069,74.5404 130.402,75.707 119.5,74C 116.932,72.8729 115.598,70.8729 115.5,68C 116.229,63.7134 117.896,59.88 120.5,56.5C 121.404,55.791 121.737,54.791 121.5,53.5C 124.833,53.1667 128.167,52.8333 131.5,52.5C 126.4,54.941 123.067,58.941 121.5,64.5C 122.511,67.6347 124.678,69.3014 128,69.5C 137.667,67.3729 147.167,64.5396 156.5,61C 163.853,56.9668 171.187,52.9668 178.5,49C 187.232,47.9922 195.899,46.6589 204.5,45C 212.87,36.9617 221.536,29.295 230.5,22C 245.597,10.3097 262.597,5.64303 281.5,8C 289.685,12.4299 298.018,16.2632 306.5,19.5 Z"/></g>
<g><path style="opacity:1" fill="#65100e" d="M 281.5,19.5 C 281.987,20.4734 282.487,21.4734 283,22.5C 285.719,21.5562 288.552,21.2229 291.5,21.5C 291.351,20.448 291.517,19.448 292,18.5C 293,19.8333 294,19.8333 295,18.5C 295.448,20.4089 294.615,21.5756 292.5,22C 293.93,23.4404 295.597,23.7737 297.5,23C 296.816,21.1729 297.483,19.6729 299.5,18.5C 301.747,19.3742 304.08,19.7076 306.5,19.5C 315.388,22.2761 323.388,26.6094 330.5,32.5C 331.363,33.9403 331.363,35.2736 330.5,36.5C 326.88,37.2932 323.213,37.2932 319.5,36.5C 313.778,35.3193 308.112,33.986 302.5,32.5C 302.167,31.8333 301.833,31.1667 301.5,30.5C 305.514,30.6655 309.514,30.4988 313.5,30C 312.473,29.4867 311.473,28.9867 310.5,28.5C 304.621,26.8534 298.621,25.8534 292.5,25.5C 289.482,25.3354 286.482,25.502 283.5,26C 282.748,26.6708 282.414,27.5041 282.5,28.5C 280.533,28.2606 278.699,28.5939 277,29.5C 276.101,27.6734 274.767,26.34 273,25.5C 271.71,27.354 270.21,27.6873 268.5,26.5C 267.571,27.6888 267.238,29.0222 267.5,30.5C 264.575,29.1341 262.909,30.1341 262.5,33.5C 258.814,33.87 257.814,32.5367 259.5,29.5C 261.525,24.2814 264.858,20.1147 269.5,17C 273.898,16.3081 277.898,17.1414 281.5,19.5 Z"/></g>
<g><path style="opacity:1" fill="#935553" d="M 292.5,25.5 C 289.274,26.4887 285.94,27.4887 282.5,28.5C 282.414,27.5041 282.748,26.6708 283.5,26C 286.482,25.502 289.482,25.3354 292.5,25.5 Z"/></g>
<g><path style="opacity:1" fill="#9a6a6a" d="M 140.5,29.5 C 143.024,28.1997 145.691,28.1997 148.5,29.5C 147.672,30.4147 146.672,31.0814 145.5,31.5C 144.833,34.9773 144.166,38.3107 143.5,41.5C 143.5,37.5 143.5,33.5 143.5,29.5C 142.5,29.5 141.5,29.5 140.5,29.5 Z"/></g>
<g><path style="opacity:1" fill="#77322d" d="M 282.5,28.5 C 279.696,30.4046 276.696,32.0713 273.5,33.5C 272.167,33.5 271.5,32.8333 271.5,31.5C 272.303,30.5768 272.47,29.5768 272,28.5C 270.67,29.5822 269.17,30.2488 267.5,30.5C 267.238,29.0222 267.571,27.6888 268.5,26.5C 270.21,27.6873 271.71,27.354 273,25.5C 274.767,26.34 276.101,27.6734 277,29.5C 278.699,28.5939 280.533,28.2606 282.5,28.5 Z"/></g>
<g><path style="opacity:0.518" fill="#c99292" d="M 310.5,28.5 C 311.473,28.9867 312.473,29.4867 313.5,30C 309.514,30.4988 305.514,30.6655 301.5,30.5C 304.5,29.8333 307.5,29.1667 310.5,28.5 Z"/></g>
<g><path style="opacity:0.596" fill="#937b7b" d="M 301.5,30.5 C 301.833,31.1667 302.167,31.8333 302.5,32.5C 301.325,32.719 300.325,32.3857 299.5,31.5C 299.957,30.7025 300.624,30.3691 301.5,30.5 Z"/></g>
<g><path style="opacity:0.698" fill="#b28c8f" d="M 271.5,31.5 C 271.5,32.8333 272.167,33.5 273.5,33.5C 272.365,35.0878 271.031,35.4212 269.5,34.5C 269.942,33.2613 270.609,32.2613 271.5,31.5 Z"/></g>
<g><path style="opacity:1" fill="#743431" d="M 259.5,29.5 C 257.814,32.5367 258.814,33.87 262.5,33.5C 262.909,30.1341 264.575,29.1341 267.5,30.5C 264.525,33.3229 261.192,35.6563 257.5,37.5C 256.662,37.1583 256.328,36.4916 256.5,35.5C 256.461,32.911 257.461,30.911 259.5,29.5 Z"/></g>
<g><path style="opacity:0.118" fill="#efd5d8" d="M 256.5,35.5 C 256.328,36.4916 256.662,37.1583 257.5,37.5C 256.698,38.8847 256.031,38.718 255.5,37C 255.57,36.2352 255.903,35.7352 256.5,35.5 Z"/></g>
<g><path style="opacity:1" fill="#702823" d="M 140.5,29.5 C 139.208,32.2875 139.208,35.1208 140.5,38C 140.164,39.0299 139.497,39.5299 138.5,39.5C 136.446,40.6086 134.279,41.6086 132,42.5C 129.435,41.6777 127.268,42.511 125.5,45C 126.094,45.4643 126.761,45.631 127.5,45.5C 126.895,47.0257 125.729,48.0257 124,48.5C 122.667,47.1667 121.333,47.1667 120,48.5C 119.825,51.1572 119.992,53.8239 120.5,56.5C 117.69,51.312 118.19,46.312 122,41.5C 126.472,38.3469 131.306,35.8469 136.5,34C 137.283,31.8816 138.616,30.3816 140.5,29.5 Z"/></g>
<g><path style="opacity:1" fill="#5d0605" d="M 140.5,29.5 C 141.5,29.5 142.5,29.5 143.5,29.5C 143.5,33.5 143.5,37.5 143.5,41.5C 143.5,42.1667 143.5,42.8333 143.5,43.5C 141.952,43.8212 141.285,44.8212 141.5,46.5C 137.67,46.5042 136.67,44.8375 138.5,41.5C 138.5,40.8333 138.5,40.1667 138.5,39.5C 139.497,39.5299 140.164,39.0299 140.5,38C 139.208,35.1208 139.208,32.2875 140.5,29.5 Z"/></g>
<g><path style="opacity:1" fill="#7b3a37" d="M 138.5,41.5 C 136.67,44.8375 137.67,46.5042 141.5,46.5C 141.285,44.8212 141.952,43.8212 143.5,43.5C 142.422,49.5521 138.755,52.5521 132.5,52.5C 133.845,50.3085 135.845,48.9752 138.5,48.5C 138.023,47.5224 137.357,46.6891 136.5,46C 133.518,45.502 130.518,45.3354 127.5,45.5C 131.285,44.632 134.952,43.2987 138.5,41.5 Z"/></g>
<g><path style="opacity:0.188" fill="#d7c2c2" d="M 262.5,43.5 C 263.302,42.1153 263.969,42.282 264.5,44C 264.43,44.7648 264.097,45.2648 263.5,45.5C 263.672,44.5084 263.338,43.8417 262.5,43.5 Z"/></g>
<g><path style="opacity:1" fill="#600304" d="M 127.5,45.5 C 130.518,45.3354 133.518,45.502 136.5,46C 137.357,46.6891 138.023,47.5224 138.5,48.5C 135.845,48.9752 133.845,50.3085 132.5,52.5C 132.167,52.5 131.833,52.5 131.5,52.5C 128.167,52.8333 124.833,53.1667 121.5,53.5C 121.737,54.791 121.404,55.791 120.5,56.5C 119.992,53.8239 119.825,51.1572 120,48.5C 121.333,47.1667 122.667,47.1667 124,48.5C 125.729,48.0257 126.895,47.0257 127.5,45.5 Z"/></g>
<g><path style="opacity:0.565" fill="#b28584" d="M 256.5,47.5 C 256.573,49.0269 255.906,50.0269 254.5,50.5C 254.427,48.9731 255.094,47.9731 256.5,47.5 Z"/></g>
<g><path style="opacity:1" fill="#793834" d="M 262.5,43.5 C 263.338,43.8417 263.672,44.5084 263.5,45.5C 262.613,50.7221 261.279,55.7221 259.5,60.5C 259.422,56.046 260.089,51.7127 261.5,47.5C 260.113,47.1928 258.446,47.1928 256.5,47.5C 257.802,45.1782 259.802,43.8449 262.5,43.5 Z"/></g>
<g><path style="opacity:1" fill="#753a35" d="M 210.5,47.5 C 208.363,50.973 205.363,53.3064 201.5,54.5C 203.093,52.0336 205.093,49.8669 207.5,48C 208.448,47.5172 209.448,47.3505 210.5,47.5 Z"/></g>
<g><path style="opacity:1" fill="#894e4c" d="M 192.5,53.5 C 192.735,52.9033 193.235,52.5699 194,52.5C 196.256,54.0855 198.756,54.7521 201.5,54.5C 198.563,57.0321 195.229,57.6988 191.5,56.5C 192.5,55.6667 193.5,54.8333 194.5,54C 193.906,53.5357 193.239,53.369 192.5,53.5 Z"/></g>
<g><path style="opacity:0.188" fill="#d7bdc0" d="M 236.5,57.5 C 237.472,56.2486 238.139,56.582 238.5,58.5C 238.457,59.4164 238.124,60.0831 237.5,60.5C 237.737,59.209 237.404,58.209 236.5,57.5 Z"/></g>
<g><path style="opacity:1" fill="#630303" d="M 259.5,60.5 C 259.5,61.5 259.5,62.5 259.5,63.5C 258.883,63.6107 258.383,63.944 258,64.5C 256.849,69.7611 257.682,74.5944 260.5,79C 259.57,80.3953 259.57,81.8953 260.5,83.5C 259.297,86.0726 257.964,88.5726 256.5,91C 256.57,91.7648 256.903,92.2648 257.5,92.5C 257.5,92.8333 257.5,93.1667 257.5,93.5C 259.893,94.21 262.393,94.8767 265,95.5C 267.066,93.36 269.4,92.6933 272,93.5C 274.179,92.8839 276.012,91.7172 277.5,90C 277.043,89.586 276.709,89.086 276.5,88.5C 280.222,85.6855 284.055,83.0188 288,80.5C 289.819,82.1257 291.152,84.1257 292,86.5C 292.727,89.8642 293.56,93.1975 294.5,96.5C 296.121,98.1526 297.288,100.153 298,102.5C 300.816,101.87 303.482,102.536 306,104.5C 305.895,107.028 306.062,109.362 306.5,111.5C 306.5,112.5 306.5,113.5 306.5,114.5C 302.668,115.16 299.834,117.16 298,120.5C 297.056,119.737 296.556,118.737 296.5,117.5C 297.156,115.547 297.489,113.547 297.5,111.5C 292.691,112.22 288.691,110.887 285.5,107.5C 285.709,106.914 286.043,106.414 286.5,106C 280.343,102.751 274.176,102.917 268,106.5C 266.833,106.167 265.667,105.833 264.5,105.5C 267.321,104.158 267.154,103.492 264,103.5C 262.188,103.493 260.688,104.16 259.5,105.5C 254.683,106.167 250.017,106.834 245.5,107.5C 243.263,108.449 240.929,109.116 238.5,109.5C 236.457,112.194 234.791,111.86 233.5,108.5C 235.536,106.644 237.869,105.144 240.5,104C 239.101,102.938 238.101,101.605 237.5,100C 239.043,96.6621 240.043,93.1621 240.5,89.5C 238.905,86.0409 237.905,82.3743 237.5,78.5C 238.652,74.8548 239.818,71.1882 241,67.5C 244.362,65.65 247.362,63.3167 250,60.5C 250.908,56.8068 252.408,53.4734 254.5,50.5C 255.906,50.0269 256.573,49.0269 256.5,47.5C 258.446,47.1928 260.113,47.1928 261.5,47.5C 260.089,51.7127 259.422,56.046 259.5,60.5 Z"/></g>
<g><path style="opacity:1" fill="#6d2421" d="M 184.5,71.5 C 184.672,72.4916 184.338,73.1583 183.5,73.5C 182.069,72.2196 181.402,70.5529 181.5,68.5C 179.799,68.0338 178.299,68.0338 177,68.5C 176.789,74.2182 176.289,79.8848 175.5,85.5C 173.47,85.8936 171.137,86.2269 168.5,86.5C 170.187,85.0824 172.02,83.7491 174,82.5C 175.434,78.5935 175.767,74.5935 175,70.5C 174.583,69.244 173.75,68.5774 172.5,68.5C 170.821,68.7148 169.821,68.0481 169.5,66.5C 169.848,63.9807 171.181,62.1474 173.5,61C 177.058,59.6377 180.558,58.1377 184,56.5C 184.5,56.8333 185,57.1667 185.5,57.5C 182.925,58.9152 181.258,61.0819 180.5,64C 181.966,66.4318 183.299,68.9318 184.5,71.5 Z"/></g>
<g><path style="opacity:1" fill="#804340" d="M 311.5,63.5 C 315.794,63.1816 319.794,64.0149 323.5,66C 324.252,66.6708 324.586,67.5041 324.5,68.5C 320.158,66.6125 315.825,64.9458 311.5,63.5 Z"/></g>
<g><path style="opacity:0.506" fill="#c7949a" d="M 169.5,66.5 C 169.821,68.0481 170.821,68.7148 172.5,68.5C 171.432,69.4345 170.099,69.7678 168.5,69.5C 168.263,68.209 168.596,67.209 169.5,66.5 Z"/></g>
<g><path style="opacity:1" fill="#6b1b17" d="M 329.5,62.5 C 332.209,65.2085 334.542,68.2085 336.5,71.5C 335.85,73.4352 335.517,75.4352 335.5,77.5C 332.023,78.3227 328.356,78.8227 324.5,79C 319.744,81.3392 318.577,84.8392 321,89.5C 324.828,90.9912 327.994,93.3245 330.5,96.5C 328.039,96.2372 325.372,96.5706 322.5,97.5C 322.034,95.7988 322.034,94.2988 322.5,93C 321.5,92.5 320.5,92 319.5,91.5C 318.679,88.5535 318.179,85.5535 318,82.5C 317.25,81.8742 316.416,81.3742 315.5,81C 315.833,80.6667 316.167,80.3333 316.5,80C 315.552,79.5172 314.552,79.3505 313.5,79.5C 313.5,78.5 313.5,77.5 313.5,76.5C 304.214,75.2472 294.881,73.2472 285.5,70.5C 286.833,69.8333 288.167,69.1667 289.5,68.5C 301.3,66.96 313.134,67.6267 325,70.5C 325.5,70.3333 326,70.1667 326.5,70C 325.584,69.7216 324.918,69.2216 324.5,68.5C 324.586,67.5041 324.252,66.6708 323.5,66C 319.794,64.0149 315.794,63.1816 311.5,63.5C 306.034,62.9069 300.7,61.7402 295.5,60C 298.442,58.5414 301.609,57.7081 305,57.5C 310.59,58.0837 316.09,59.0837 321.5,60.5C 322.107,60.3764 322.44,60.0431 322.5,59.5C 323.072,58.0267 323.905,56.6934 325,55.5C 325.528,58.5792 327.028,60.9126 329.5,62.5 Z"/></g>
<g><path style="opacity:1" fill="#6d241f" d="M 330.5,32.5 C 340.697,40.88 347.364,51.5467 350.5,64.5C 352.415,64.2155 354.081,64.5489 355.5,65.5C 354.198,67.0276 352.531,68.0276 350.5,68.5C 346.102,69.1073 345.769,70.1073 349.5,71.5C 348.479,73.188 347.145,74.5213 345.5,75.5C 345.762,74.0222 345.429,72.6888 344.5,71.5C 343.742,72.8114 342.742,73.3114 341.5,73C 341.957,72.586 342.291,72.086 342.5,71.5C 341.756,68.557 341.256,65.557 341,62.5C 339.244,61.015 338.077,61.3484 337.5,63.5C 334.774,60.6125 331.607,58.2791 328,56.5C 327.678,58.6889 328.178,60.6889 329.5,62.5C 327.028,60.9126 325.528,58.5792 325,55.5C 323.905,56.6934 323.072,58.0267 322.5,59.5C 321.067,57.4809 319.733,55.3143 318.5,53C 329.86,50.3925 338.193,54.2259 343.5,64.5C 344.002,65.521 344.668,65.6877 345.5,65C 342.005,56.3423 337.005,48.6756 330.5,42C 326.741,40.1207 323.075,38.2874 319.5,36.5C 323.213,37.2932 326.88,37.2932 330.5,36.5C 331.363,35.2736 331.363,33.9403 330.5,32.5 Z"/></g>
<g><path style="opacity:1" fill="#640908" d="M 236.5,57.5 C 237.404,58.209 237.737,59.209 237.5,60.5C 235.104,66.4624 233.437,72.6291 232.5,79C 232.755,85.0333 233.922,90.8666 236,96.5C 236.833,94 237.667,91.5 238.5,89C 236.381,85.571 236.048,82.071 237.5,78.5C 237.905,82.3743 238.905,86.0409 240.5,89.5C 240.043,93.1621 239.043,96.6621 237.5,100C 238.101,101.605 239.101,102.938 240.5,104C 237.869,105.144 235.536,106.644 233.5,108.5C 234.791,111.86 236.457,112.194 238.5,109.5C 239.15,111.435 239.483,113.435 239.5,115.5C 239.5,115.833 239.5,116.167 239.5,116.5C 238.883,116.611 238.383,116.944 238,117.5C 237.265,121.813 236.765,126.147 236.5,130.5C 236.724,134.179 237.058,137.846 237.5,141.5C 234.663,143.402 231.329,144.069 227.5,143.5C 227.5,142.833 227.5,142.167 227.5,141.5C 228.239,141.631 228.906,141.464 229.5,141C 228.751,139.266 228.251,137.433 228,135.5C 226.164,134.331 224.998,132.664 224.5,130.5C 225.943,127.272 227.61,124.272 229.5,121.5C 230.663,115.863 230.83,110.196 230,104.5C 227.959,103.248 225.625,102.581 223,102.5C 220.639,102.504 218.473,102.837 216.5,103.5C 212.982,105.966 208.982,106.966 204.5,106.5C 200.606,106.11 196.94,106.777 193.5,108.5C 194.855,109.675 194.688,110.675 193,111.5C 192.827,115.541 192.327,119.541 191.5,123.5C 189.482,124.813 188.315,124.147 188,121.5C 187.329,120.748 186.496,120.414 185.5,120.5C 177.701,113.7 177.701,106.7 185.5,99.5C 183.659,98.7696 181.825,98.1029 180,97.5C 177.287,99.7195 174.454,101.72 171.5,103.5C 169.801,103.34 168.134,103.506 166.5,104C 166.833,104.333 167.167,104.667 167.5,105C 165.238,105.642 163.071,106.475 161,107.5C 160.667,107.167 160.333,106.833 160,106.5C 157.818,109.366 154.484,111.699 150,113.5C 148.115,111.534 146.948,109.534 146.5,107.5C 148.312,104.397 149.312,101.064 149.5,97.5C 150.708,96.7659 152.041,96.4326 153.5,96.5C 154.411,103.789 156.411,103.789 159.5,96.5C 161.124,91.9108 164.124,88.5775 168.5,86.5C 171.137,86.2269 173.47,85.8936 175.5,85.5C 176.289,79.8848 176.789,74.2182 177,68.5C 178.299,68.0338 179.799,68.0338 181.5,68.5C 181.402,70.5529 182.069,72.2196 183.5,73.5C 183.833,74.5 184.5,75.1667 185.5,75.5C 195.907,80.2561 206.241,79.5895 216.5,73.5C 217.971,74.3805 218.804,75.7139 219,77.5C 221.606,72.5648 224.606,67.8981 228,63.5C 230.629,61.1118 233.462,59.1118 236.5,57.5 Z"/></g>
<g><path style="opacity:0.522" fill="#bf9a97" d="M 264.5,74.5 C 264.784,72.5853 264.451,70.9187 263.5,69.5C 263.783,68.7109 264.283,68.0442 265,67.5C 265.796,70.0385 265.629,72.3718 264.5,74.5 Z"/></g>
<g><path style="opacity:1" fill="#713331" d="M 289.5,68.5 C 288.167,69.1667 286.833,69.8333 285.5,70.5C 282.664,70.8373 281.998,72.1707 283.5,74.5C 272.795,75.4812 272.128,73.9812 281.5,70C 284.063,68.9207 286.729,68.4207 289.5,68.5 Z"/></g>
<g><path style="opacity:0.088" fill="#eac8ca" d="M 184.5,71.5 C 185.434,72.5676 185.768,73.901 185.5,75.5C 184.5,75.1667 183.833,74.5 183.5,73.5C 184.338,73.1583 184.672,72.4916 184.5,71.5 Z"/></g>
<g><path style="opacity:0.047" fill="#e0c0c0" d="M 336.5,71.5 C 337.484,73.5979 337.151,75.5979 335.5,77.5C 335.517,75.4352 335.85,73.4352 336.5,71.5 Z"/></g>
<g><path style="opacity:1" fill="#630b0a" d="M 285.5,70.5 C 294.881,73.2472 304.214,75.2472 313.5,76.5C 313.5,77.5 313.5,78.5 313.5,79.5C 314.552,79.3505 315.552,79.5172 316.5,80C 316.167,80.3333 315.833,80.6667 315.5,81C 316.416,81.3742 317.25,81.8742 318,82.5C 318.179,85.5535 318.679,88.5535 319.5,91.5C 320.5,92 321.5,92.5 322.5,93C 322.034,94.2988 322.034,95.7988 322.5,97.5C 321.307,97.9704 320.64,98.9704 320.5,100.5C 321.795,103.379 322.462,106.379 322.5,109.5C 321.25,109.577 320.417,110.244 320,111.5C 319.667,111.167 319.333,110.833 319,110.5C 318.664,112.074 317.831,113.408 316.5,114.5C 315.583,113.873 314.583,113.539 313.5,113.5C 312.641,109.781 312.641,106.114 313.5,102.5C 312.597,99.6085 312.264,96.6085 312.5,93.5C 312.5,91.5 312.5,89.5 312.5,87.5C 310.585,87.2155 308.919,87.5489 307.5,88.5C 305.147,89.3403 303.147,90.6736 301.5,92.5C 302.372,94.4496 303.039,96.4496 303.5,98.5C 303.316,101.321 304.649,102.988 307.5,103.5C 308.466,105.396 308.799,107.396 308.5,109.5C 308.5,110.167 308.5,110.833 308.5,111.5C 307.833,111.5 307.167,111.5 306.5,111.5C 306.062,109.362 305.895,107.028 306,104.5C 303.482,102.536 300.816,101.87 298,102.5C 297.288,100.153 296.121,98.1526 294.5,96.5C 293.56,93.1975 292.727,89.8642 292,86.5C 291.152,84.1257 289.819,82.1257 288,80.5C 284.055,83.0188 280.222,85.6855 276.5,88.5C 276.709,89.086 277.043,89.586 277.5,90C 276.012,91.7172 274.179,92.8839 272,93.5C 269.4,92.6933 267.066,93.36 265,95.5C 262.393,94.8767 259.893,94.21 257.5,93.5C 259.527,93.6621 261.527,93.4955 263.5,93C 270.1,89.3952 276.434,85.3952 282.5,81C 285.674,79.2752 289.007,77.9419 292.5,77C 289.526,76.0069 286.526,75.1736 283.5,74.5C 281.998,72.1707 282.664,70.8373 285.5,70.5 Z"/></g>
<g><path style="opacity:1" fill="#6f2925" d="M 259.5,63.5 C 258.888,67.163 258.721,70.8297 259,74.5C 260.736,72.9368 262.236,71.2701 263.5,69.5C 264.451,70.9187 264.784,72.5853 264.5,74.5C 263.728,81.1569 261.394,87.1569 257.5,92.5C 256.903,92.2648 256.57,91.7648 256.5,91C 257.964,88.5726 259.297,86.0726 260.5,83.5C 259.57,81.8953 259.57,80.3953 260.5,79C 257.682,74.5944 256.849,69.7611 258,64.5C 258.383,63.944 258.883,63.6107 259.5,63.5 Z"/></g>
<g><path style="opacity:0.761" fill="#97605d" d="M 153.5,72.5 C 153.59,75.1522 152.924,77.4855 151.5,79.5C 151.41,76.8478 152.076,74.5145 153.5,72.5 Z"/></g>
<g><path style="opacity:0.816" fill="#b18383" d="M 340.5,79.5 C 342.027,79.427 343.027,80.0937 343.5,81.5C 342.833,81.5 342.167,81.5 341.5,81.5C 341.167,80.8333 340.833,80.1667 340.5,79.5 Z"/></g>
<g><path style="opacity:1" fill="#7b3c38" d="M 355.5,65.5 C 363.209,67.8621 369.876,72.0287 375.5,78C 378.329,79.2467 380.995,80.7467 383.5,82.5C 382.975,83.1924 382.308,83.6924 381.5,84C 377.514,84.4988 373.514,84.6655 369.5,84.5C 369.158,83.6618 368.492,83.3284 367.5,83.5C 368.183,81.8235 369.517,81.1568 371.5,81.5C 374.167,81.1667 374.167,80.8333 371.5,80.5C 367.255,75.7642 362.255,71.9309 356.5,69C 354.527,68.5045 352.527,68.3379 350.5,68.5C 352.531,68.0276 354.198,67.0276 355.5,65.5 Z"/></g>
<g><path style="opacity:0.498" fill="#be9288" d="M 343.5,81.5 C 345.167,81.5 346.833,81.5 348.5,81.5C 348.5,81.8333 348.5,82.1667 348.5,82.5C 347.508,82.3284 346.842,82.6618 346.5,83.5C 345.167,83.5 343.833,83.5 342.5,83.5C 342.833,82.8333 343.167,82.1667 343.5,81.5 Z"/></g>
<g><path style="opacity:1" fill="#6c1e19" d="M 345.5,75.5 C 345.47,76.4972 345.97,77.1639 347,77.5C 353.989,73.3978 360.489,74.0645 366.5,79.5C 365.77,81.045 364.437,81.8784 362.5,82C 363.984,82.6622 365.317,83.4955 366.5,84.5C 367.5,84.5 368.5,84.5 369.5,84.5C 370.091,85.1515 370.757,85.8182 371.5,86.5C 369.808,87.9686 367.808,88.6353 365.5,88.5C 361.511,88.2553 357.844,87.2553 354.5,85.5C 353.036,83.3703 351.036,82.037 348.5,81.5C 346.833,81.5 345.167,81.5 343.5,81.5C 343.027,80.0937 342.027,79.427 340.5,79.5C 339.977,74.0773 338.977,68.744 337.5,63.5C 338.077,61.3484 339.244,61.015 341,62.5C 341.256,65.557 341.756,68.557 342.5,71.5C 342.291,72.086 341.957,72.586 341.5,73C 342.742,73.3114 343.742,72.8114 344.5,71.5C 345.429,72.6888 345.762,74.0222 345.5,75.5 Z"/></g>
<g><path style="opacity:1" fill="#a16762" d="M 366.5,79.5 C 368.117,80.038 369.784,80.3713 371.5,80.5C 371.5,80.8333 371.5,81.1667 371.5,81.5C 369.517,81.1568 368.183,81.8235 367.5,83.5C 366.833,83.5 366.5,83.8333 366.5,84.5C 365.317,83.4955 363.984,82.6622 362.5,82C 364.437,81.8784 365.77,81.045 366.5,79.5 Z"/></g>
<g><path style="opacity:0.157" fill="#e9a9af" d="M 346.5,84.5 C 347.167,85.1667 347.833,85.8333 348.5,86.5C 348.672,87.4916 348.338,88.1583 347.5,88.5C 347.5,87.8333 347.167,87.5 346.5,87.5C 346.5,86.5 346.5,85.5 346.5,84.5 Z"/></g>
<g><path style="opacity:1" fill="#732c28" d="M 341.5,81.5 C 341.328,82.4916 341.662,83.1583 342.5,83.5C 343.833,83.5 345.167,83.5 346.5,83.5C 346.5,83.8333 346.5,84.1667 346.5,84.5C 346.5,85.5 346.5,86.5 346.5,87.5C 346.5,88.1667 346.5,88.8333 346.5,89.5C 345.833,89.5 345.5,89.8333 345.5,90.5C 342.633,90.3692 340.967,91.7026 340.5,94.5C 339.504,94.4142 338.671,94.7476 338,95.5C 337.333,91.5 337.333,87.5 338,83.5C 338.816,82.1772 339.983,81.5106 341.5,81.5 Z"/></g>
<g><path style="opacity:1" fill="#75312d" d="M 348.5,81.5 C 351.036,82.037 353.036,83.3703 354.5,85.5C 352.883,87.1209 351.716,89.1209 351,91.5C 346.39,94.4767 342.39,98.1434 339,102.5C 336.025,106.813 333.525,111.313 331.5,116C 326.415,119.28 321.081,119.947 315.5,118C 314.418,116.67 313.751,115.17 313.5,113.5C 314.583,113.539 315.583,113.873 316.5,114.5C 317.831,113.408 318.664,112.074 319,110.5C 319.333,110.833 319.667,111.167 320,111.5C 320.417,110.244 321.25,109.577 322.5,109.5C 322.123,111.258 321.456,112.925 320.5,114.5C 321.689,115.429 323.022,115.762 324.5,115.5C 325.038,111.482 327.205,110.149 331,111.5C 331.346,109.782 331.846,108.115 332.5,106.5C 331.975,105.808 331.308,105.308 330.5,105C 333.982,101.684 337.315,98.1837 340.5,94.5C 342.191,93.1363 343.858,91.803 345.5,90.5C 346.167,90.5 346.5,90.1667 346.5,89.5C 347.167,89.5 347.5,89.1667 347.5,88.5C 348.338,88.1583 348.672,87.4916 348.5,86.5C 348.5,85.1667 348.5,83.8333 348.5,82.5C 348.5,82.1667 348.5,81.8333 348.5,81.5 Z"/></g>
<g><path style="opacity:0.247" fill="#deb1af" d="M 307.5,88.5 C 308.919,87.5489 310.585,87.2155 312.5,87.5C 312.5,89.5 312.5,91.5 312.5,93.5C 311.549,92.0813 311.216,90.4147 311.5,88.5C 310.167,88.5 308.833,88.5 307.5,88.5 Z"/></g>
<g><path style="opacity:1" fill="#76312c" d="M 161.5,68.5 C 159.909,78.5153 157.575,88.3486 154.5,98C 154.833,98.5 155.167,99 155.5,99.5C 156.852,98.4756 158.185,97.4756 159.5,96.5C 156.411,103.789 154.411,103.789 153.5,96.5C 152.041,96.4326 150.708,96.7659 149.5,97.5C 151.113,92.9932 151.779,88.3266 151.5,83.5C 152.165,85.6979 152.832,88.0312 153.5,90.5C 154.478,90.0233 155.311,89.3567 156,88.5C 156.856,81.0734 158.19,73.7401 160,66.5C 160.278,67.4158 160.778,68.0825 161.5,68.5 Z"/></g>
<g><path style="opacity:0.949" fill="#894945" d="M 322.5,97.5 C 321.506,99.3344 321.506,101.001 322.5,102.5C 323.404,103.209 323.737,104.209 323.5,105.5C 323.768,107.099 323.434,108.432 322.5,109.5C 322.462,106.379 321.795,103.379 320.5,100.5C 320.64,98.9704 321.307,97.9704 322.5,97.5 Z"/></g>
<g><path style="opacity:1" fill="#763b37" d="M 303.5,98.5 C 309.189,100.482 310.855,104.149 308.5,109.5C 308.799,107.396 308.466,105.396 307.5,103.5C 304.649,102.988 303.316,101.321 303.5,98.5 Z"/></g>
<g><path style="opacity:0.18" fill="#c6a9ab" d="M 322.5,102.5 C 323.472,101.249 324.139,101.582 324.5,103.5C 324.457,104.416 324.124,105.083 323.5,105.5C 323.737,104.209 323.404,103.209 322.5,102.5 Z"/></g>
<g><path style="opacity:1" fill="#702722" d="M 149.5,97.5 C 149.312,101.064 148.312,104.397 146.5,107.5C 146.948,109.534 148.115,111.534 150,113.5C 154.484,111.699 157.818,109.366 160,106.5C 160.333,106.833 160.667,107.167 161,107.5C 163.071,106.475 165.238,105.642 167.5,105C 167.167,104.667 166.833,104.333 166.5,104C 168.134,103.506 169.801,103.34 171.5,103.5C 166.395,106.892 161.062,110.059 155.5,113C 151.877,116.449 148.877,120.283 146.5,124.5C 146.241,121.435 147.241,118.935 149.5,117C 147.519,116.395 147.185,115.395 148.5,114C 147.333,113.5 146.5,112.667 146,111.5C 145.444,113.595 144.944,113.762 144.5,112C 144.905,111.055 145.572,110.388 146.5,110C 144.527,109.505 142.527,109.338 140.5,109.5C 141.833,108.067 143.333,106.733 145,105.5C 146.274,102.609 147.774,99.9422 149.5,97.5 Z"/></g>
<g><path style="opacity:1" fill="#753a38" d="M 313.5,102.5 C 312.641,106.114 312.641,109.781 313.5,113.5C 310.224,109.583 310.224,105.917 313.5,102.5 Z"/></g>
<g><path style="opacity:1" fill="#874e4a" d="M 245.5,107.5 C 242.701,109.623 240.701,112.29 239.5,115.5C 239.483,113.435 239.15,111.435 238.5,109.5C 240.929,109.116 243.263,108.449 245.5,107.5 Z"/></g>
<g><path style="opacity:0.525" fill="#ae7e7d" d="M 139.5,109.5 C 139.01,112.655 138.344,115.655 137.5,118.5C 137.336,115.813 137.503,113.146 138,110.5C 138.383,109.944 138.883,109.611 139.5,109.5 Z"/></g>
<g><path style="opacity:1" fill="#712924" d="M 306.5,111.5 C 307.167,111.5 307.833,111.5 308.5,111.5C 308.657,112.873 308.49,114.207 308,115.5C 300.874,120.292 294.707,126.125 289.5,133C 284.684,134.852 280.018,134.686 275.5,132.5C 279.182,132.665 282.848,132.499 286.5,132C 287.9,130.562 289.567,129.729 291.5,129.5C 291.286,127.856 291.62,126.356 292.5,125C 291.833,124.667 291.167,124.333 290.5,124C 292.473,123.505 294.473,123.338 296.5,123.5C 296.5,122.5 296.5,121.5 296.5,120.5C 295.07,120.579 293.736,120.246 292.5,119.5C 289.574,120.453 286.907,121.787 284.5,123.5C 284.5,122.5 284.5,121.5 284.5,120.5C 288.607,120.075 292.274,118.575 295.5,116C 289.527,113.681 284.193,110.347 279.5,106C 273.773,107.345 267.939,108.511 262,109.5C 256.501,108.766 251.001,108.1 245.5,107.5C 250.017,106.834 254.683,106.167 259.5,105.5C 260.688,104.16 262.188,103.493 264,103.5C 267.154,103.492 267.321,104.158 264.5,105.5C 265.667,105.833 266.833,106.167 268,106.5C 274.176,102.917 280.343,102.751 286.5,106C 286.043,106.414 285.709,106.914 285.5,107.5C 288.691,110.887 292.691,112.22 297.5,111.5C 297.489,113.547 297.156,115.547 296.5,117.5C 296.556,118.737 297.056,119.737 298,120.5C 299.834,117.16 302.668,115.16 306.5,114.5C 306.5,113.5 306.5,112.5 306.5,111.5 Z"/></g>
<g><path style="opacity:1" fill="#884b46" d="M 239.5,116.5 C 239.344,121.471 238.344,126.138 236.5,130.5C 236.765,126.147 237.265,121.813 238,117.5C 238.383,116.944 238.883,116.611 239.5,116.5 Z"/></g>
<g><path style="opacity:1" fill="#7b3631" d="M 204.5,106.5 C 195.543,108.047 192.377,113.38 195,122.5C 196.094,124.078 196.928,125.745 197.5,127.5C 195.771,126.883 194.271,125.883 193,124.5C 192.683,126.301 192.016,126.634 191,125.5C 190.924,129.819 191.091,134.152 191.5,138.5C 190.133,132.398 188.133,126.398 185.5,120.5C 186.496,120.414 187.329,120.748 188,121.5C 188.315,124.147 189.482,124.813 191.5,123.5C 192.327,119.541 192.827,115.541 193,111.5C 194.688,110.675 194.855,109.675 193.5,108.5C 196.94,106.777 200.606,106.11 204.5,106.5 Z"/></g>
<g><path style="opacity:1" fill="#73312e" d="M 281.5,119.5 C 278.801,119.466 276.301,120.133 274,121.5C 273.333,122.5 273.333,123.5 274,124.5C 274.694,125.818 275.527,126.651 276.5,127C 276.43,127.765 276.097,128.265 275.5,128.5C 273.507,129.472 273.174,130.805 274.5,132.5C 270.388,130.272 266.388,127.772 262.5,125C 267.682,122.243 273.015,119.743 278.5,117.5C 279.739,117.942 280.739,118.609 281.5,119.5 Z M 273.5,127.5 C 272.244,127.539 271.244,127.039 270.5,126C 271.998,125.415 272.998,125.915 273.5,127.5 Z"/></g>
<g><path style="opacity:1" fill="#610303" d="M 281.5,119.5 C 282.163,121.042 282.83,122.709 283.5,124.5C 284.107,124.376 284.44,124.043 284.5,123.5C 286.907,121.787 289.574,120.453 292.5,119.5C 293.736,120.246 295.07,120.579 296.5,120.5C 296.5,121.5 296.5,122.5 296.5,123.5C 294.473,123.338 292.473,123.505 290.5,124C 291.167,124.333 291.833,124.667 292.5,125C 291.62,126.356 291.286,127.856 291.5,129.5C 289.567,129.729 287.9,130.562 286.5,132C 282.848,132.499 279.182,132.665 275.5,132.5C 275.167,132.5 274.833,132.5 274.5,132.5C 273.174,130.805 273.507,129.472 275.5,128.5C 276.097,128.265 276.43,127.765 276.5,127C 275.527,126.651 274.694,125.818 274,124.5C 273.333,123.5 273.333,122.5 274,121.5C 276.301,120.133 278.801,119.466 281.5,119.5 Z"/></g>
<g><path style="opacity:1" fill="#955450" d="M 137.5,119.5 C 137.192,121.924 137.526,124.257 138.5,126.5C 139.17,124.709 139.837,123.042 140.5,121.5C 140.5,122.167 140.833,122.5 141.5,122.5C 141.029,124.579 140.363,126.579 139.5,128.5C 138.167,128.833 138.167,129.167 139.5,129.5C 139.737,130.791 139.404,131.791 138.5,132.5C 138.5,131.833 138.167,131.5 137.5,131.5C 137.657,130.127 137.49,128.793 137,127.5C 136.329,128.252 135.496,128.586 134.5,128.5C 135.633,125.443 136.633,122.443 137.5,119.5 Z"/></g>
<g><path style="opacity:1" fill="#641311" d="M 139.5,109.5 C 139.833,109.5 140.167,109.5 140.5,109.5C 142.527,109.338 144.527,109.505 146.5,110C 145.572,110.388 144.905,111.055 144.5,112C 144.944,113.762 145.444,113.595 146,111.5C 146.5,112.667 147.333,113.5 148.5,114C 147.185,115.395 147.519,116.395 149.5,117C 147.241,118.935 146.241,121.435 146.5,124.5C 145.916,127.003 145.249,129.503 144.5,132C 145.994,135.812 147.327,139.645 148.5,143.5C 143.5,143.5 138.5,143.5 133.5,143.5C 133.5,141.5 133.5,139.5 133.5,137.5C 131.909,134.278 132.242,131.278 134.5,128.5C 135.496,128.586 136.329,128.252 137,127.5C 137.49,128.793 137.657,130.127 137.5,131.5C 138.167,131.5 138.5,131.833 138.5,132.5C 139.404,131.791 139.737,130.791 139.5,129.5C 139.5,129.167 139.5,128.833 139.5,128.5C 140.363,126.579 141.029,124.579 141.5,122.5C 141.539,120.776 141.206,120.443 140.5,121.5C 139.837,123.042 139.17,124.709 138.5,126.5C 137.526,124.257 137.192,121.924 137.5,119.5C 137.5,119.167 137.5,118.833 137.5,118.5C 138.344,115.655 139.01,112.655 139.5,109.5 Z M 136.5,139.5 C 137.289,139.783 137.956,140.283 138.5,141C 137.184,141.528 136.517,141.028 136.5,139.5 Z"/></g>
<g><path style="opacity:1" fill="#64100f" d="M 197.5,127.5 C 199.163,129.493 200.33,131.826 201,134.5C 204.519,136.174 206.685,138.841 207.5,142.5C 203.267,143.794 198.934,143.794 194.5,142.5C 194.201,140.545 193.201,139.211 191.5,138.5C 191.091,134.152 190.924,129.819 191,125.5C 192.016,126.634 192.683,126.301 193,124.5C 194.271,125.883 195.771,126.883 197.5,127.5 Z"/></g>
<g><path style="opacity:1" fill="#661f1d" d="M 216.5,103.5 C 218.473,102.837 220.639,102.504 223,102.5C 225.625,102.581 227.959,103.248 230,104.5C 230.83,110.196 230.663,115.863 229.5,121.5C 227.61,124.272 225.943,127.272 224.5,130.5C 224.998,132.664 226.164,134.331 228,135.5C 228.251,137.433 228.751,139.266 229.5,141C 228.906,141.464 228.239,141.631 227.5,141.5C 227.5,142.167 227.5,142.833 227.5,143.5C 224.612,144.01 222.279,143.344 220.5,141.5C 220.924,138.646 221.924,135.979 223.5,133.5C 222.689,132.784 222.022,131.95 221.5,131C 224.921,126.323 227.421,121.156 229,115.5C 229.667,112.167 229.667,108.833 229,105.5C 224.934,104.419 220.767,103.752 216.5,103.5 Z M 226.5,141.5 C 225.448,141.649 224.448,141.483 223.5,141C 224.252,140.329 224.586,139.496 224.5,138.5C 225.117,138.389 225.617,138.056 226,137.5C 226.49,138.793 226.657,140.127 226.5,141.5 Z"/></g>
<g><path style="opacity:0.514" fill="#b27f79" d="M 227.5,141.5 C 227.167,141.5 226.833,141.5 226.5,141.5C 226.657,140.127 226.49,138.793 226,137.5C 225.617,138.056 225.117,138.389 224.5,138.5C 224.821,136.952 225.821,136.285 227.5,136.5C 227.5,138.167 227.5,139.833 227.5,141.5 Z"/></g>
<g><path style="opacity:0.569" fill="#9b7173" d="M 133.5,137.5 C 133.5,139.5 133.5,141.5 133.5,143.5C 138.5,143.5 143.5,143.5 148.5,143.5C 143.36,144.488 138.026,144.821 132.5,144.5C 132.198,141.941 132.532,139.607 133.5,137.5 Z"/></g>
<g><path style="opacity:0.563" fill="#a27979" d="M 194.5,142.5 C 198.934,143.794 203.267,143.794 207.5,142.5C 208.043,142.56 208.376,142.893 208.5,143.5C 206.167,143.833 203.833,144.167 201.5,144.5C 198.731,144.471 196.397,143.805 194.5,142.5 Z"/></g>
<g><path style="opacity:0.58" fill="#a3777a" d="M 220.5,141.5 C 222.279,143.344 224.612,144.01 227.5,143.5C 231.329,144.069 234.663,143.402 237.5,141.5C 238.404,142.209 238.737,143.209 238.5,144.5C 232.167,144.5 225.833,144.5 219.5,144.5C 219.263,143.209 219.596,142.209 220.5,141.5 Z"/></g>
<g><path style="opacity:0.804" fill="#a56f6e" d="M 269.5,156.5 C 265.766,156.323 262.099,156.656 258.5,157.5C 258.611,156.883 258.944,156.383 259.5,156C 263.027,155.192 266.36,155.359 269.5,156.5 Z"/></g>
<g><path style="opacity:0.482" fill="#b18785" d="M 289.5,156.5 C 290.622,155.844 291.955,155.511 293.5,155.5C 295.333,155.585 296.666,156.252 297.5,157.5C 294.946,156.612 292.279,156.279 289.5,156.5 Z"/></g>
<g><path style="opacity:0.788" fill="#ac8884" d="M 270.5,156.5 C 271.906,156.973 272.573,157.973 272.5,159.5C 271.094,159.027 270.427,158.027 270.5,156.5 Z"/></g>
<g><path style="opacity:0.384" fill="#c69492" d="M 334.5,156.5 C 332.5,156.5 330.5,156.5 328.5,156.5C 328.666,160.514 328.499,164.514 328,168.5C 326.519,167.529 325.685,166.196 325.5,164.5C 326.117,164.611 326.617,164.944 327,165.5C 327.498,162.183 327.665,158.85 327.5,155.5C 330.059,155.198 332.393,155.532 334.5,156.5 Z"/></g>
<g><path style="opacity:1" fill="#5e0b0b" d="M 361.5,156.5 C 361.5,158.167 361.5,159.833 361.5,161.5C 359.5,161.5 357.5,161.5 355.5,161.5C 355.5,167.167 355.5,172.833 355.5,178.5C 353.5,178.5 351.5,178.5 349.5,178.5C 349.5,172.5 349.5,166.5 349.5,160.5C 347.5,160.5 345.5,160.5 343.5,160.5C 343.5,159.167 343.5,157.833 343.5,156.5C 349.5,156.5 355.5,156.5 361.5,156.5 Z"/></g>
<g><path style="opacity:1" fill="#691815" d="M 147.5,156.5 C 147.804,159.522 148.304,162.522 149,165.5C 149.976,169.746 151.476,173.746 153.5,177.5C 151.114,177.741 149.114,177.075 147.5,175.5C 144.833,175.5 142.167,175.5 139.5,175.5C 139.5,176.5 139.5,177.5 139.5,178.5C 136.753,178.813 134.086,178.48 131.5,177.5C 134,170.5 136.5,163.5 139,156.5C 141.937,155.183 144.77,155.183 147.5,156.5 Z M 144.5,165.5 C 144.33,166.822 144.663,167.989 145.5,169C 144.552,169.483 143.552,169.649 142.5,169.5C 142.5,168.5 142.5,167.5 142.5,166.5C 143.167,166.167 143.833,165.833 144.5,165.5 Z"/></g>
<g><path style="opacity:1" fill="#5e0807" d="M 170.5,156.5 C 170.427,158.027 171.094,159.027 172.5,159.5C 172.427,161.027 173.094,162.027 174.5,162.5C 174.427,164.027 175.094,165.027 176.5,165.5C 176.987,166.473 177.487,167.473 178,168.5C 178.499,164.514 178.666,160.514 178.5,156.5C 180.5,156.5 182.5,156.5 184.5,156.5C 184.5,163.833 184.5,171.167 184.5,178.5C 182.143,178.663 179.81,178.497 177.5,178C 174.881,175.216 172.881,172.049 171.5,168.5C 171.631,167.624 171.298,166.957 170.5,166.5C 169.509,170.445 169.176,174.445 169.5,178.5C 167.833,178.5 166.167,178.5 164.5,178.5C 164.5,171.167 164.5,163.833 164.5,156.5C 166.5,156.5 168.5,156.5 170.5,156.5 Z"/></g>
<g><path style="opacity:0.439" fill="#c59c99" d="M 172.5,159.5 C 173.906,159.973 174.573,160.973 174.5,162.5C 173.094,162.027 172.427,161.027 172.5,159.5 Z"/></g>
<g><path style="opacity:0.478" fill="#c19898" d="M 170.5,156.5 C 171.906,156.973 172.573,157.973 172.5,159.5C 171.094,159.027 170.427,158.027 170.5,156.5 Z"/></g>
<g><path style="opacity:0.627" fill="#c49092" d="M 263.5,161.5 C 264.167,162.5 264.833,163.5 265.5,164.5C 262.949,164.332 262.282,163.332 263.5,161.5 Z"/></g>
<g><path style="opacity:1" fill="#7f433e" d="M 289.5,156.5 C 289.665,160.579 288.331,163.912 285.5,166.5C 286.267,162.851 287.6,159.518 289.5,156.5 Z"/></g>
<g><path style="opacity:0.224" fill="#f6c7c9" d="M 144.5,165.5 C 143.833,165.833 143.167,166.167 142.5,166.5C 142.711,164.576 143.377,164.243 144.5,165.5 Z"/></g>
<g><path style="opacity:0.4" fill="#c9a2a2" d="M 174.5,162.5 C 175.906,162.973 176.573,163.973 176.5,165.5C 175.094,165.027 174.427,164.027 174.5,162.5 Z"/></g>
<g><path style="opacity:1" fill="#5b0c0d" d="M 235.5,156.5 C 235.5,158.167 235.5,159.833 235.5,161.5C 233.5,161.5 231.5,161.5 229.5,161.5C 229.5,167.167 229.5,172.833 229.5,178.5C 227.5,178.5 225.5,178.5 223.5,178.5C 223.5,172.5 223.5,166.5 223.5,160.5C 221.5,160.5 219.5,160.5 217.5,160.5C 217.5,159.167 217.5,157.833 217.5,156.5C 223.5,156.5 229.5,156.5 235.5,156.5 Z"/></g>
<g><path style="opacity:0.663" fill="#9d6467" d="M 122.5,174.5 C 122.5,168.5 122.5,162.5 122.5,156.5C 120.833,156.5 119.167,156.5 117.5,156.5C 117.821,162.026 117.488,167.36 116.5,172.5C 116.5,166.833 116.5,161.167 116.5,155.5C 118.833,155.5 121.167,155.5 123.5,155.5C 123.823,162.022 123.49,168.355 122.5,174.5 Z"/></g>
<g><path style="opacity:1" fill="#5d0809" d="M 201.5,164.5 C 203.265,165.461 205.265,165.795 207.5,165.5C 207.5,166.833 207.5,168.167 207.5,169.5C 205.5,169.5 203.5,169.5 201.5,169.5C 201.5,170.833 201.5,172.167 201.5,173.5C 204.167,173.5 206.833,173.5 209.5,173.5C 209.5,175.167 209.5,176.833 209.5,178.5C 204.833,178.5 200.167,178.5 195.5,178.5C 195.5,171.167 195.5,163.833 195.5,156.5C 199.833,156.5 204.167,156.5 208.5,156.5C 208.5,157.833 208.5,159.167 208.5,160.5C 205.833,160.5 203.167,160.5 200.5,160.5C 200.232,162.099 200.566,163.432 201.5,164.5 Z"/></g>
<g><path style="opacity:1" fill="#6d201b" d="M 269.5,156.5 C 269.833,156.5 270.167,156.5 270.5,156.5C 270.427,158.027 271.094,159.027 272.5,159.5C 273.434,160.568 273.768,161.901 273.5,163.5C 269.885,163.845 266.552,163.178 263.5,161.5C 262.282,163.332 262.949,164.332 265.5,164.5C 267.703,164.604 269.703,165.27 271.5,166.5C 271.427,168.027 272.094,169.027 273.5,169.5C 274.846,171.792 274.512,173.792 272.5,175.5C 271.5,175.833 270.833,176.5 270.5,177.5C 263.943,180.87 258.943,179.204 255.5,172.5C 258.941,170.994 262.108,171.327 265,173.5C 265.5,173 266,172.5 266.5,172C 263.222,170.352 260.055,168.519 257,166.5C 254.801,162.978 255.301,159.978 258.5,157.5C 262.099,156.656 265.766,156.323 269.5,156.5 Z"/></g>
<g><path style="opacity:0.729" fill="#795050" d="M 201.5,164.5 C 203.833,164.5 206.167,164.5 208.5,164.5C 208.784,166.415 208.451,168.081 207.5,169.5C 207.5,168.167 207.5,166.833 207.5,165.5C 205.265,165.795 203.265,165.461 201.5,164.5 Z"/></g>
<g><path style="opacity:0.71" fill="#bd9494" d="M 271.5,166.5 C 272.906,166.973 273.573,167.973 273.5,169.5C 272.094,169.027 271.427,168.027 271.5,166.5 Z"/></g>
<g><path style="opacity:1" fill="#6d2420" d="M 388.5,166.5 C 387.504,166.586 386.671,166.252 386,165.5C 385.689,163.444 385.189,161.444 384.5,159.5C 382.693,158.201 381.027,158.368 379.5,160C 382.94,162.937 383.94,166.437 382.5,170.5C 382.768,168.901 382.434,167.568 381.5,166.5C 381.5,166.167 381.5,165.833 381.5,165.5C 380.377,164.243 379.711,164.576 379.5,166.5C 379.5,166.833 379.5,167.167 379.5,167.5C 378.833,167.5 378.5,167.833 378.5,168.5C 377.312,169.048 376.145,169.381 375,169.5C 373.098,171.884 371.931,174.551 371.5,177.5C 373.322,177.169 374.989,176.502 376.5,175.5C 376.5,176.5 376.5,177.5 376.5,178.5C 373.753,178.813 371.086,178.48 368.5,177.5C 371,170.5 373.5,163.5 376,156.5C 378.737,155.39 381.571,155.223 384.5,156C 385.933,159.468 387.267,162.968 388.5,166.5 Z M 381.5,165.5 C 381.5,165.833 381.5,166.167 381.5,166.5C 381.719,167.675 381.386,168.675 380.5,169.5C 379.702,169.043 379.369,168.376 379.5,167.5C 379.5,167.167 379.5,166.833 379.5,166.5C 380.167,166.167 380.833,165.833 381.5,165.5 Z"/></g>
<g><path style="opacity:0.224" fill="#f3cdcb" d="M 381.5,165.5 C 380.833,165.833 380.167,166.167 379.5,166.5C 379.711,164.576 380.377,164.243 381.5,165.5 Z"/></g>
<g><path style="opacity:0.104" fill="#f9d1d1" d="M 184.5,178.5 C 184.5,171.167 184.5,163.833 184.5,156.5C 182.5,156.5 180.5,156.5 178.5,156.5C 178.666,160.514 178.499,164.514 178,168.5C 177.487,167.473 176.987,166.473 176.5,165.5C 177.479,162.375 177.813,159.042 177.5,155.5C 180.167,155.5 182.833,155.5 185.5,155.5C 185.825,163.352 185.492,171.018 184.5,178.5 Z"/></g>
<g><path style="opacity:1" fill="#600d0c" d="M 321.5,158.5 C 321.427,160.027 322.094,161.027 323.5,161.5C 323.427,163.027 324.094,164.027 325.5,164.5C 325.685,166.196 326.519,167.529 328,168.5C 328.499,164.514 328.666,160.514 328.5,156.5C 330.5,156.5 332.5,156.5 334.5,156.5C 334.5,163.833 334.5,171.167 334.5,178.5C 332.143,178.663 329.81,178.497 327.5,178C 324.854,175.198 322.854,172.032 321.5,168.5C 321.217,167.711 320.717,167.044 320,166.5C 319.501,170.486 319.334,174.486 319.5,178.5C 317.5,178.5 315.5,178.5 313.5,178.5C 313.5,170.833 313.5,163.167 313.5,155.5C 315.857,155.337 318.19,155.503 320.5,156C 321.252,156.671 321.586,157.504 321.5,158.5 Z"/></g>
<g><path style="opacity:0.506" fill="#bc9493" d="M 323.5,161.5 C 324.906,161.973 325.573,162.973 325.5,164.5C 324.094,164.027 323.427,163.027 323.5,161.5 Z"/></g>
<g><path style="opacity:0.537" fill="#b58482" d="M 321.5,158.5 C 322.906,158.973 323.573,159.973 323.5,161.5C 322.094,161.027 321.427,160.027 321.5,158.5 Z"/></g>
<g><path style="opacity:1" fill="#661010" d="M 388.5,166.5 C 388.5,166.833 388.5,167.167 388.5,167.5C 388.274,170.249 388.607,172.916 389.5,175.5C 387.833,176.666 386.166,176.666 384.5,175.5C 381.833,175.5 379.167,175.5 376.5,175.5C 374.989,176.502 373.322,177.169 371.5,177.5C 371.931,174.551 373.098,171.884 375,169.5C 376.145,169.381 377.312,169.048 378.5,168.5C 379.183,170.176 380.517,170.843 382.5,170.5C 383.94,166.437 382.94,162.937 379.5,160C 381.027,158.368 382.693,158.201 384.5,159.5C 385.189,161.444 385.689,163.444 386,165.5C 386.671,166.252 387.504,166.586 388.5,166.5 Z"/></g>
<g><path style="opacity:0.063" fill="#f5dfe1" d="M 113.5,170.5 C 111.5,170.5 109.5,170.5 107.5,170.5C 107.5,171.5 107.5,172.5 107.5,173.5C 106.566,172.432 106.232,171.099 106.5,169.5C 109.059,169.198 111.393,169.532 113.5,170.5 Z"/></g>
<g><path style="opacity:0.718" fill="#905552" d="M 170.5,156.5 C 168.5,156.5 166.5,156.5 164.5,156.5C 164.5,163.833 164.5,171.167 164.5,178.5C 163.508,171.018 163.175,163.352 163.5,155.5C 166.059,155.198 168.393,155.532 170.5,156.5 Z"/></g>
<g><path style="opacity:0.271" fill="#d0a6a7" d="M 235.5,156.5 C 229.5,156.5 223.5,156.5 217.5,156.5C 217.5,157.833 217.5,159.167 217.5,160.5C 219.5,160.5 221.5,160.5 223.5,160.5C 223.5,166.5 223.5,172.5 223.5,178.5C 222.511,173.025 222.178,167.358 222.5,161.5C 220.5,161.5 218.5,161.5 216.5,161.5C 216.5,159.5 216.5,157.5 216.5,155.5C 223.022,155.177 229.355,155.51 235.5,156.5 Z"/></g>
<g><path style="opacity:0.271" fill="#d0a6a4" d="M 361.5,156.5 C 355.5,156.5 349.5,156.5 343.5,156.5C 343.5,157.833 343.5,159.167 343.5,160.5C 345.5,160.5 347.5,160.5 349.5,160.5C 349.5,166.5 349.5,172.5 349.5,178.5C 348.511,173.025 348.178,167.358 348.5,161.5C 346.5,161.5 344.5,161.5 342.5,161.5C 342.5,159.5 342.5,157.5 342.5,155.5C 349.022,155.177 355.355,155.51 361.5,156.5 Z"/></g>
<g><path style="opacity:0.447" fill="#d59ea5" d="M 381.5,166.5 C 382.434,167.568 382.768,168.901 382.5,170.5C 380.517,170.843 379.183,170.176 378.5,168.5C 378.5,167.833 378.833,167.5 379.5,167.5C 379.369,168.376 379.702,169.043 380.5,169.5C 381.386,168.675 381.719,167.675 381.5,166.5 Z"/></g>
<g><path style="opacity:1" fill="#733630" d="M 147.5,156.5 C 150.738,163.541 153.405,170.874 155.5,178.5C 152.833,178.5 150.167,178.5 147.5,178.5C 147.5,177.5 147.5,176.5 147.5,175.5C 149.114,177.075 151.114,177.741 153.5,177.5C 151.476,173.746 149.976,169.746 149,165.5C 148.304,162.522 147.804,159.522 147.5,156.5 Z"/></g>
<g><path style="opacity:0.529" fill="#ad7d7d" d="M 171.5,168.5 C 170.833,171.833 170.167,175.167 169.5,178.5C 169.176,174.445 169.509,170.445 170.5,166.5C 171.298,166.957 171.631,167.624 171.5,168.5 Z"/></g>
<g><path style="opacity:1" fill="#641412" d="M 289.5,156.5 C 292.279,156.279 294.946,156.612 297.5,157.5C 300.336,163.987 303.002,170.654 305.5,177.5C 302.914,178.48 300.247,178.813 297.5,178.5C 297.5,177.5 297.5,176.5 297.5,175.5C 292.916,175.355 288.749,176.355 285,178.5C 283.615,178.486 282.449,178.152 281.5,177.5C 284.431,174.987 285.765,171.653 285.5,167.5C 285.5,167.167 285.5,166.833 285.5,166.5C 288.331,163.912 289.665,160.579 289.5,156.5 Z M 292.5,165.5 C 293.167,165.833 293.833,166.167 294.5,166.5C 294.5,166.833 294.5,167.167 294.5,167.5C 294.179,169.048 293.179,169.715 291.5,169.5C 292.234,168.292 292.567,166.959 292.5,165.5 Z"/></g>
<g><path style="opacity:0.447" fill="#c99390" d="M 294.5,167.5 C 295.404,168.209 295.737,169.209 295.5,170.5C 293.901,170.768 292.568,170.434 291.5,169.5C 293.179,169.715 294.179,169.048 294.5,167.5 Z"/></g>
<g><path style="opacity:0.055" fill="#ecb6b4" d="M 294.5,166.5 C 293.833,166.167 293.167,165.833 292.5,165.5C 293.301,163.207 293.968,163.54 294.5,166.5 Z"/></g>
<g><path style="opacity:0.706" fill="#93605f" d="M 201.5,164.5 C 200.566,163.432 200.232,162.099 200.5,160.5C 203.167,160.5 205.833,160.5 208.5,160.5C 208.5,159.167 208.5,157.833 208.5,156.5C 204.167,156.5 199.833,156.5 195.5,156.5C 195.5,163.833 195.5,171.167 195.5,178.5C 194.508,171.018 194.175,163.352 194.5,155.5C 199.5,155.5 204.5,155.5 209.5,155.5C 209.5,157.5 209.5,159.5 209.5,161.5C 206.833,161.5 204.167,161.5 201.5,161.5C 201.5,162.5 201.5,163.5 201.5,164.5 Z"/></g>
<g><path style="opacity:0.271" fill="#dab4b6" d="M 321.5,168.5 C 320.833,171.833 320.167,175.167 319.5,178.5C 319.334,174.486 319.501,170.486 320,166.5C 320.717,167.044 321.217,167.711 321.5,168.5 Z"/></g>
<g><path style="opacity:1" fill="#641714" d="M 122.5,174.5 C 121.309,177.874 118.809,179.54 115,179.5C 110.973,179.255 108.473,177.255 107.5,173.5C 107.5,172.5 107.5,171.5 107.5,170.5C 109.5,170.5 111.5,170.5 113.5,170.5C 113.973,171.906 114.973,172.573 116.5,172.5C 117.488,167.36 117.821,162.026 117.5,156.5C 119.167,156.5 120.833,156.5 122.5,156.5C 122.5,162.5 122.5,168.5 122.5,174.5 Z"/></g>
<g><path style="opacity:1" fill="#7a3f3d" d="M 285.5,167.5 C 285.765,171.653 284.431,174.987 281.5,177.5C 282.267,173.851 283.6,170.518 285.5,167.5 Z"/></g>
<g><path style="opacity:0.004" fill="#d6bebe" d="M 272.5,175.5 C 272.5,176.833 271.833,177.5 270.5,177.5C 270.833,176.5 271.5,175.833 272.5,175.5 Z"/></g>
<g><path style="opacity:1" fill="#6b2d2a" d="M 388.5,167.5 C 390.208,170.95 391.541,174.617 392.5,178.5C 389.833,178.5 387.167,178.5 384.5,178.5C 384.5,177.5 384.5,176.5 384.5,175.5C 386.166,176.666 387.833,176.666 389.5,175.5C 388.607,172.916 388.274,170.249 388.5,167.5 Z"/></g>
<g><path style="opacity:0.973" fill="#9c7c81" d="M 281.5,197.5 C 281.591,195.302 280.925,194.969 279.5,196.5C 279.963,193.431 281.296,192.931 283.5,195C 282.934,195.995 282.267,196.828 281.5,197.5 Z"/></g>
<g><path style="opacity:0.082" fill="#d8c4bf" d="M 222.5,194.5 C 223.776,195.386 223.776,196.386 222.5,197.5C 221.893,197.376 221.56,197.043 221.5,196.5C 222.338,196.158 222.672,195.492 222.5,194.5 Z"/></g>
<g><path style="opacity:1" fill="#794847" d="M 240.5,193.5 C 242.833,193.5 245.167,193.5 247.5,193.5C 247.5,194.5 247.5,195.5 247.5,196.5C 240.951,196.907 240.951,197.907 247.5,199.5C 240.833,200.833 240.833,202.167 247.5,203.5C 244.914,204.48 242.247,204.813 239.5,204.5C 239.244,200.731 239.577,197.064 240.5,193.5 Z"/></g>
<g><path style="opacity:1" fill="#713c3a" d="M 255.5,202.5 C 255.44,201.957 255.107,201.624 254.5,201.5C 253.614,202.325 253.281,203.325 253.5,204.5C 251.586,201.316 250.92,197.649 251.5,193.5C 253.861,193.674 256.194,194.007 258.5,194.5C 258.33,195.822 258.663,196.989 259.5,198C 257.027,199.925 257.027,201.758 259.5,203.5C 258.833,203.833 258.167,204.167 257.5,204.5C 256.287,204.253 255.62,203.586 255.5,202.5 Z"/></g>
<g><path style="opacity:1" fill="#915a59" d="M 279.5,196.5 C 278.5,197.833 277.5,199.167 276.5,200.5C 274.707,198.574 273.707,196.241 273.5,193.5C 276.05,193.561 277.55,194.894 278,197.5C 278.383,196.944 278.883,196.611 279.5,196.5 Z"/></g>
<g><path style="opacity:0.122" fill="#f8d5c9" d="M 254.5,196.5 C 254.833,199.167 255.167,199.167 255.5,196.5C 256.404,197.209 256.737,198.209 256.5,199.5C 255.5,199.5 254.5,199.5 253.5,199.5C 253.263,198.209 253.596,197.209 254.5,196.5 Z"/></g>
<g><path style="opacity:1" fill="#894f4d" d="M 227.5,193.5 C 229.256,194.552 229.923,196.219 229.5,198.5C 230.833,198.5 232.167,198.5 233.5,198.5C 233.215,196.712 233.548,195.045 234.5,193.5C 235.086,193.709 235.586,194.043 236,194.5C 236.498,197.817 236.665,201.15 236.5,204.5C 235.5,204.5 234.5,204.5 233.5,204.5C 233.5,203.167 233.5,201.833 233.5,200.5C 232.167,200.5 230.833,200.5 229.5,200.5C 229.5,201.833 229.5,203.167 229.5,204.5C 228.5,204.5 227.5,204.5 226.5,204.5C 226.244,200.731 226.577,197.064 227.5,193.5 Z"/></g>
<g><path style="opacity:1" fill="#713835" d="M 269.5,195.5 C 269.657,196.873 269.49,198.207 269,199.5C 268.764,197.881 267.931,196.881 266.5,196.5C 266.167,196.5 265.833,196.5 265.5,196.5C 264.596,197.209 264.263,198.209 264.5,199.5C 266.103,199.312 267.437,199.812 268.5,201C 267.906,201.464 267.239,201.631 266.5,201.5C 265.596,202.209 265.263,203.209 265.5,204.5C 264.5,204.5 263.5,204.5 262.5,204.5C 262.335,201.15 262.502,197.817 263,194.5C 265.373,193.457 267.54,193.79 269.5,195.5 Z M 265.5,196.5 C 265.833,196.5 266.167,196.5 266.5,196.5C 267.463,197.363 267.463,198.03 266.5,198.5C 265.702,198.043 265.369,197.376 265.5,196.5 Z"/></g>
<g><path style="opacity:1" fill="#9b6560" d="M 269.5,195.5 C 270.754,197.357 270.754,199.357 269.5,201.5C 272.214,204.213 271.547,205.046 267.5,204C 266.748,203.329 266.414,202.496 266.5,201.5C 267.239,201.631 267.906,201.464 268.5,201C 267.437,199.812 266.103,199.312 264.5,199.5C 264.263,198.209 264.596,197.209 265.5,196.5C 265.369,197.376 265.702,198.043 266.5,198.5C 267.463,198.03 267.463,197.363 266.5,196.5C 267.931,196.881 268.764,197.881 269,199.5C 269.49,198.207 269.657,196.873 269.5,195.5 Z M 265.5,196.5 C 265.833,196.5 266.167,196.5 266.5,196.5C 267.463,197.363 267.463,198.03 266.5,198.5C 265.702,198.043 265.369,197.376 265.5,196.5 Z"/></g>
<g><path style="opacity:1" fill="#7e4546" d="M 281.5,197.5 C 280.545,199.746 279.878,202.079 279.5,204.5C 278.5,204.5 277.5,204.5 276.5,204.5C 276.5,203.167 276.5,201.833 276.5,200.5C 277.5,199.167 278.5,197.833 279.5,196.5C 280.925,194.969 281.591,195.302 281.5,197.5 Z"/></g>
<g><path style="opacity:0.031" fill="#fbefd8" d="M 255.5,202.5 C 254.833,203.167 254.167,203.833 253.5,204.5C 253.281,203.325 253.614,202.325 254.5,201.5C 255.107,201.624 255.44,201.957 255.5,202.5 Z"/></g>
<g><path style="opacity:0.988" fill="#845355" d="M 222.5,194.5 C 222.672,195.492 222.338,196.158 221.5,196.5C 220.761,196.369 220.094,196.536 219.5,197C 223.279,198.404 224.279,200.904 222.5,204.5C 220.021,205.952 218.021,205.452 216.5,203C 216.833,202.5 217.167,202 217.5,201.5C 221.195,202.251 221.028,201.585 217,199.5C 216.312,194.938 218.145,193.272 222.5,194.5 Z"/></g>
</svg>
