<svg id="visual" viewBox="0 0 900 600" width="900" height="600" xmlns="http://www.w3.org/2000/svg" xmlns:xlink="http://www.w3.org/1999/xlink" version="1.1"><path d="M0 157L100 157L100 49L200 49L200 121L300 121L300 67L400 67L400 55L500 55L500 43L600 43L600 103L700 103L700 49L800 49L800 61L900 61L900 97L900 0L900 0L800 0L800 0L700 0L700 0L600 0L600 0L500 0L500 0L400 0L400 0L300 0L300 0L200 0L200 0L100 0L100 0L0 0Z" fill="#6c7b8b"></path><path d="M0 247L100 247L100 151L200 151L200 217L300 217L300 151L400 151L400 85L500 85L500 109L600 109L600 193L700 193L700 157L800 157L800 121L900 121L900 103L900 95L900 59L800 59L800 47L700 47L700 101L600 101L600 41L500 41L500 53L400 53L400 65L300 65L300 119L200 119L200 47L100 47L100 155L0 155Z" fill="#959fa8"></path><path d="M0 295L100 295L100 283L200 283L200 385L300 385L300 325L400 325L400 307L500 307L500 481L600 481L600 205L700 205L700 301L800 301L800 211L900 211L900 301L900 101L900 119L800 119L800 155L700 155L700 191L600 191L600 107L500 107L500 83L400 83L400 149L300 149L300 215L200 215L200 149L100 149L100 245L0 245Z" fill="#b0b6ba"></path><path d="M0 457L100 457L100 505L200 505L200 487L300 487L300 445L400 445L400 517L500 517L500 583L600 583L600 547L700 547L700 517L800 517L800 463L900 463L900 457L900 299L900 209L800 209L800 299L700 299L700 203L600 203L600 479L500 479L500 305L400 305L400 323L300 323L300 383L200 383L200 281L100 281L100 293L0 293Z" fill="#959fa8"></path><path d="M0 601L100 601L100 601L200 601L200 601L300 601L300 601L400 601L400 601L500 601L500 601L600 601L600 601L700 601L700 601L800 601L800 601L900 601L900 601L900 455L900 461L800 461L800 515L700 515L700 545L600 545L600 581L500 581L500 515L400 515L400 443L300 443L300 485L200 485L200 503L100 503L100 455L0 455Z" fill="#6c7b8b"></path></svg>