<svg width="150" height="66" fill="none" xmlns="http://www.w3.org/2000/svg"><g clip-path="url(#clip0_940_6131)"><g clip-path="url(#clip1_940_6131)" fill="#fff"><path d="M149.998 28.939c-.089-4.852-3.084-7.967-6.161-9.815l-.648-.388.552-.513c2.354-2.194 3.072-4.85 3.072-6.76a6.64 6.64 0 00-.104-1.175l-.007-.036v-.025c-.268-4-3.408-6.32-6.724-7.687-3.293-1.355-6.638-1.667-6.884-1.685l-.047-.005H104.97v6.184l1.783-.085c.061-.002.121-.004.181-.004.315.004.571.03.83.218.266.199.315.51.326.596l.007.043v5.902l-.964-.928c-6.809-6.559-14.864-7.295-18.105-7.293-.828 0-1.352.05-1.452.06-5.305.308-9.279 1.368-12.265 2.776l-.4.19-.278-.341c-.08-.096-.261-.317-.263-.317-1.145-1.384-2.515-2.67-4.015-3.658-1.37-.901-2.852-1.71-4.378-2.312-1.366-.54-2.812-.926-4.238-1.265-1.19-.281-2.394-.37-3.604-.522-1.274-.158-2.512-.085-3.793 0-1.92.127-3.905.527-5.782.937-1.665.364-3.307.853-4.87 1.535a21.45 21.45 0 00-3.775 2.132 20.274 20.274 0 00-2.838 2.423c-.773.794-1.466 1.656-2.14 2.535-.079.103-.163.2-.235.308-3.021 4.496-3.168 8.881-3.164 8.906a16.94 16.94 0 00-.018.823c0 5.014 1.872 8.701 3.002 10.477l.183.286-.166.294c-.877 1.547-2.251 2.152-2.756 2.315l-.084.024H17.328V7.81l.381-.135c.203-.069.429-.136.668-.165l1.492-.192.016-1.504V1.551H0v6.393h1.705c.562 0 .906.096 1.12.212l.3.159v26.05c.044.23-.09 1.496-1.409 1.725l-1.388.28-.045 1.405v3.408h40.342v-4.845l.839.46c6.12 3.356 13.96 3.673 14.302 3.673h11.043l-1.363 1.022c-.406.306-1.944 1.457-2.658 1.993l.58 1.252c4.992 10.936 20.96 11.827 25.29 11.8.585 0 .948-.014 1.085-.018 7.92-.002 13.882-2.111 17.736-6.181 3.005-3.171 3.983-6.786 4.3-9.094l.069-.488h23.379c11.278-.016 14.51-7.688 14.771-11.696v-.127.005zm-3.082 5.39c-1.785 2.663-5.289 5.307-11.691 5.292h-24.433c-.047 1.401-.412 5.052-2.952 8.52-2.774 3.791-8.154 7.257-18.187 7.245-.007 0-.328.016-.9.016-3.866-.034-19.366-.558-24.356-11.14l-.192-.417 6.019-4.508H55.81c-.047-.022-10.191-.21-16.321-5.134v5.846H1.419v-2.76l.482-.074s.125-.018.353-.091c.227-.076.535-.203.834-.404.596-.417 1.159-1.051 1.17-2.352V8.154a.684.684 0 00-.047-.138c-.05-.12-.14-.293-.3-.464-.32-.34-.91-.737-2.208-.741h-.567V2.689h17.613v3.635l-.506.056s-.572.065-1.12.297c-.58.248-.945.567-.931.984v25.591l-.005.036v.029c-.002.105.03.377.148.555.125.17.265.337.85.353h14.694c.078-.02.237-.065.467-.156.332-.125.792-.33 1.272-.643.917-.593 1.91-1.54 2.399-3.062-.741-.993-3.363-4.909-3.366-10.718 0-.256.003-.522.016-.772.005-.062.078-4.11 2.975-8.372 2.894-4.262 8.645-8.665 19.722-9.375.009 0 .198-.009.538-.009 2.314.01 11.713.413 17.59 7.46l.346.415-8.432 7.76-3.354-2.052.214-.46s.096-.205.199-.577c.104-.373.211-.893.211-1.455-.01-1.031-.312-2.154-1.602-3.06-.13-.064-.796-.397-1.81-.734-1.133-.377-2.675-.752-4.286-.75-.003.003-.592.005-1.524.183a11.75 11.75 0 00-3.403 1.205c-2.453 1.366-4.879 3.923-4.896 9.301 0 .215-.034 1.036-.034 1.576.034 2.546.832 9.966 11.459 13.193 0 0 .27.098.81.205.538.11 1.33.218 2.298.218 2.567-.002 6.39-.75 10.4-4.342-.846-1.051-2.817-3.916-2.826-7.873 0-.4.02-.81.063-1.185 0-.076.089-3.153 2.718-6.382 2.633-3.233 7.794-6.53 17.675-7.096.016 0 .5-.051 1.328-.051 3.394 0 12.729.845 19.631 9.495l.341.43-8.68 7.44-4.392-2.635.3-.489s.115-.192.249-.556c.134-.365.266-.877.266-1.445-.01-.927-.313-1.998-1.618-3.049-.16-.085-.955-.508-2.125-.94-1.31-.483-3.066-.961-4.83-.959h-.046c-.354 0-2.36.034-4.208.625-1.89.607-3.49 1.857-3.488 4.006 0 .647.243 1.716.654 2.242.254.326.683.502 1.017.73 1.261.857 2.589 1.294 4.05 1.707 1.27.36 2.556.52 3.843.783.018.005 4.193.752 8.627 2.294 4.289 1.527 8.893 3.676 10.18 7.025.085-.009.103 0 .188-.102.085-.108.225-.438.221-1.132V7.694s0-.091-.047-.274a2.416 2.416 0 00-.277-.667c-.31-.467-.79-.929-1.997-.944-.069 0-.138 0-.201.004l-.605.036v-3.87h26.895c.029.007 3.012.255 6.083 1.404 3.028 1.132 6.31 3.23 6.509 7.05.02.118.074.477.074 1.002.022 1.691-.627 5.21-4.796 7.49a16.04 16.04 0 013.218 1.67c2.305 1.56 4.704 4.226 4.775 8.406-.004.056-.149 2.669-1.943 5.329h.002zM66.204 19.958l-.01.158v.027h-.007a13.49 13.49 0 00-.054 1.192c0 3.101 1.127 5.583 2.116 7.185l.27.44-.413.312c-3.356 2.537-6.498 3.104-8.576 3.104h-.009c-1.435 0-2.35-.259-2.542-.321-9.78-2.917-10.758-9.846-10.722-12.084 0-.404.038-1.412.038-1.613-.002-2.821.747-5.13 2.294-6.766 2.557-2.694 6.326-2.78 6.427-2.794 2.606.002 4.86 1.04 5.362 1.276l.047.023.042.03a2.586 2.586 0 011.096 2.132c0 .685-.214 1.243-.328 1.515l-.594 1.368 1.255.792 3.657 2.236 1.151-1.046-.334 1.689a9.38 9.38 0 00-.163 1.145h-.002zm34.27 5.411l.419-.36c.228-.196.473-.403.502-.428l5.764-4.942.94-.806v11.37l-.933-.773c-1.656-1.372-3.822-2.523-6.083-3.45v.007c-1.247-.569-3.731-1.341-4.55-1.59a62.64 62.64 0 00-6.297-1.51c-3.428-.497-5.528-1.207-6.809-1.874-.509-.288-1.28-.634-1.577-1.165-.139-.245-.418-1.12-.165-1.939.129-.417.245-.85.555-1.16 1.435-1.413 4.407-1.672 5.858-1.705h.082c2.78.007 5.423 1.258 6.204 1.647l.056.029.051.042c.803.66 1.16 1.442 1.158 2.151 0 .572-.196 1.042-.377 1.366l-.805 1.442 6.011 3.644-.004.004z"/><path d="M78.112 41.062c-.252.614-.498 1.444-.495 2.259.004.807.216 1.577.874 2.258.063.044.264.194.627.417.44.266 1.1.627 1.96.986 1.718.721 4.235 1.447 7.397 1.449 0-.011 2.343-.072 4.653-.908 2.336-.862 4.454-2.346 4.454-5.202v-.05l.011-.05s.004-.02.004-.125c-.024-.639-.32-4.383-11.626-6.037-.009 0-2.858-.535-6.025-1.377-2.602-.705-5.371-1.548-7.08-2.595v5.271l1.609-1.207 4.4 3.483-.272.43s-.241.382-.491.996v.002zm-1.895-5.703c3.61 1.213 7.766 2.066 9.542 2.396 8.15 1.154 10.091 3.57 10.131 4.34l-.01.092v.134c0 4.101-7.383 4.4-7.387 4.403-4.876 0-8.05-1.886-8.808-2.39-.25-.286-.357-.647-.357-1.036 0-1.082.714-2.318.725-2.334l1.06-1.731-1.577-1.252s-2.759-2.18-3.319-2.625v.003zm55.192-19.678c1.118-.61 2.183-1.638 2.201-3.907-.005 0-.012-.19-.09-.518a4.244 4.244 0 00-.473-1.196c-.522-.85-1.381-1.674-3.282-1.69h-8.143v7.93h7.533c0-.005.259-.005.69-.088a5.724 5.724 0 001.564-.535v.004zm-8.082-1.084v-4.524h6.44c1.566 0 2.022.92 2.126 1.736-.049 2.384-1.965 2.75-2.722 2.785h-5.842l-.002.003zm12.891 12.03a6.506 6.506 0 00-.734-1.797c-.803-1.3-2.218-2.613-5.121-2.74h-8.621v11.512h9.507c.104-.027.37-.093.745-.232a8.185 8.185 0 001.803-.933c1.301-.917 2.553-2.372 2.562-4.896v-.134c-.005 0-.018-.294-.139-.778l-.002-.003zM131.03 31.9h-7.581v-8.103h6.829c3.869.15 4.329 3.146 4.376 3.624v.111c0 3.156-2.825 4.149-3.624 4.368z"/><path d="M140.516 20.01c-.799-.31-1.305-.43-1.308-.43l-1.684-.411 1.602-.667c4.88-2.058 5.375-5.46 5.402-7.067 0-.532-.06-.82-.06-.82l-.007-.046v-.04c-.111-3.109-2.852-4.979-5.777-6.08-2.859-1.075-5.699-1.327-5.733-1.33h-25.709v1.565c1.354.087 2.214.779 2.626 1.468.46.741.494 1.429.5 1.511v24.433c-.002.826-.147 1.397-.446 1.81a1.349 1.349 0 01-1.102.56c-.395-.005-.652-.138-.694-.156l-.224-.11-.069-.238c-.738-2.718-5.215-5.102-9.566-6.586-4.336-1.51-8.444-2.249-8.435-2.247-9.038-1.27-10.538-4.316-10.535-6.016 0-.33.009-.549.04-1.138.13-2.526 2.231-3.894 4.253-4.517 2.05-.653 4.135-.678 4.555-.682h.064c3.894.01 7.48 2.046 7.523 2.062l.033.02.038.029c1.605 1.24 2.107 2.755 2.096 3.974a5.408 5.408 0 01-.429 2.075l2.754 1.654 7.221-6.19C100.9 8.534 92.226 7.757 89.051 7.757c-.784 0-1.208.047-1.237.049-14.529.875-18.05 7.489-19.023 10.66-.315 1.064-.328 1.711-.33 1.76-.04.378-.059.748-.059 1.11-.004 3.378 1.636 5.949 2.453 7.007.27.35.435.52.435.52l.397.415-.417.392c-4.365 4.117-8.698 5.021-11.577 5.017-2.116 0-3.448-.475-3.466-.482C45.081 30.87 43.954 22.7 43.987 19.932c0-.448.034-1.366.034-1.575C44 12.61 46.768 9.54 49.506 8.058c1.76-.962 3.894-1.598 5.905-1.535 1.193.036 2.378.268 3.523.605 2.033.598 4.093 1.432 4.693 3.695.118.442.187.93.187 1.39 0 .855-.185 1.582-.334 2.03l1.79 1.094 7-6.442c-5.48-6.206-14.217-6.648-16.366-6.636-.317 0-.48.008-.473.006-16.179 1.085-20.15 9.926-21.255 14.27-.358 1.449-.37 2.357-.37 2.377a15.16 15.16 0 00-.017.737c0 4.735 1.87 8.151 2.797 9.548.305.465.497.688.497.688l.19.227-.076.286c-1.118 4.046-5.054 4.932-5.11 4.95l-.063.015H17.187c-.877.016-1.517-.393-1.81-.877a2.194 2.194 0 01-.323-1.165c0-.044 0-.08.002-.105V7.661c.013-1.145.926-1.75 1.627-2.033.341-.143.671-.232.928-.29V3.825H2.274v1.87c1.214.11 2.013.574 2.477 1.082.533.583.63 1.156.642 1.221l.007.045v26.32c.011 1.683-.846 2.754-1.671 3.294a4.527 4.527 0 01-1.172.56v.692h35.794v-7.313l.964.94c2.704 2.646 6.844 4.092 10.307 4.84 3.463.752 6.21.821 6.201.821h15.904l.007-8.614.969.969c.975 1.02 4.436 2.227 7.538 3.03 3.108.826 5.915 1.352 5.918 1.355 11.452 1.573 12.599 5.815 12.576 7.156 0 .123-.009.214-.015.272-.023 3.506-2.723 5.347-5.204 6.222-2.517.904-4.972.973-5.021.977-6.712-.004-10.662-3.057-10.718-3.104l-.027-.02-.027-.027c-.928-.921-1.245-2.066-1.238-3.095.009-1.457.573-2.756.91-3.41l-2.936-2.322-1.821 1.367s-.908.683-.908.677l-6.101 4.572c4.66 9.346 19.39 10.095 23.13 10.064.55 0 .85-.013.874-.013 9.812-.01 14.73-3.31 17.294-6.782 2.56-3.479 2.741-7.241 2.738-8.172 0-.147-.004-.214-.004-.214l-.031-.598h25.6c9.109-.031 11.481-5.38 12.235-8.085.232-.883.265-1.441.265-1.423-.084-5.485-4.784-8.02-7.21-8.969h-.004zM120.484 7.804l.035-.57h9.246c2.273-.015 3.619 1.13 4.259 2.248.654 1.113.712 2.173.721 2.256.018 2.707-1.423 4.244-2.811 4.95-1.384.72-2.707.745-2.767.75h-8.683V7.803zm13.96 25.566c-1.506 1.045-2.97 1.346-3.015 1.357l-.058.013h-10.767V21.523l-.015-.569h9.794c3.278.114 5.143 1.725 6.072 3.287.937 1.562 1.028 3.042 1.035 3.124v.174c.009 2.94-1.546 4.798-3.048 5.829l.002.002zM10.332 66.062H6.659v-6.119h.875v5.403h2.798v.716zm.515-6.022v-.097h.962l1.783 2.859 1.801-2.859h.962v.096l-2.316 3.506v2.517h-.875v-2.517l-2.317-3.506zm9.879-.195c1.748 0 3.174 1.417 3.174 3.155 0 1.738-1.426 3.155-3.174 3.155-1.747 0-3.173-1.417-3.173-3.155 0-1.738 1.426-3.155 3.173-3.155zm0 5.525c1.25 0 2.28-1.022 2.28-2.37s-1.03-2.37-2.28-2.37c-1.25 0-2.28 1.022-2.28 2.37s1.03 2.37 2.28 2.37zm6.331-3.836v4.528h-.875v-6.119h.648l3.347 4.51v-4.51h.884v6.119h-.648l-3.356-4.528zm12.923-1.689c.893 0 1.495.263 2.02.656l-.342.656c-.402-.297-1.058-.524-1.678-.524-1.529 0-2.412 1.084-2.412 2.37 0 1.285.883 2.37 2.412 2.37.62 0 1.276-.228 1.678-.525l.341.656c-.524.393-1.127.656-2.02.656-2.079 0-3.304-1.45-3.304-3.155 0-1.705 1.223-3.156 3.305-3.156v-.004zm6.741 0c1.748 0 3.174 1.417 3.174 3.155 0 1.738-1.426 3.155-3.174 3.155-1.747 0-3.173-1.417-3.173-3.155 0-1.738 1.426-3.155 3.173-3.155zm0 5.525c1.25 0 2.28-1.022 2.28-2.37s-1.03-2.37-2.28-2.37c-1.25 0-2.28 1.022-2.28 2.37s1.03 2.37 2.28 2.37zm10.212-5.427V63.8c0 1.547-1.112 2.361-2.422 2.361s-2.42-.812-2.42-2.36v-3.857h.874V63.8c0 1.058.716 1.573 1.546 1.573.83 0 1.547-.515 1.547-1.573v-3.856h.875zm3.523 1.591v4.528h-.875v-6.119h.648l3.347 4.51v-4.51h.884v6.119h-.648l-3.356-4.528zm10.99-1.591v.716H69.41v5.403h-.875v-5.403h-2.037v-.716h4.949zm1.391.097v-.097h.961l1.783 2.859 1.801-2.859h.962v.096l-2.316 3.506v2.517h-.875v-2.517l-2.317-3.506zm10.858 4.377c.105.507.656.962 1.417.962.803 0 1.294-.402 1.294-.935 0-.48-.401-.779-.899-.962l-.917-.315c-1.207-.392-1.417-1.102-1.417-1.635 0-1.05.926-1.687 1.966-1.687 1.093 0 1.819.602 2.002 1.45l-.788.237c-.15-.612-.585-.9-1.214-.9-.587 0-1.085.324-1.085.884 0 .264.078.603.795.875l.926.35c1.004.315 1.486.998 1.486 1.643 0 1.084-.857 1.774-2.133 1.774-1.277 0-2.047-.683-2.256-1.529l.82-.21.003-.002zm10.089-4.474v.716h-2.038v5.403h-.874v-5.403h-2.038v-.716h4.95zm2.013 4.851l-.474 1.268h-.899l2.352-6.119h1.013l2.361 6.119h-.883l-.48-1.268h-2.99zm2.727-.707l-1.241-3.305-1.223 3.305h2.466-.002zm7.212-4.144v.716h-2.037v5.403h-.875v-5.403h-2.038v-.716h4.95zm5.929 6.119h-3.89v-6.119h3.89v.716h-3.017v2.047h2.631v.716h-2.631v1.924h3.017v.716zm8.663-3.131c.979.096 1.468.743 1.468 1.504 0 .98-.821 1.627-2.037 1.627h-2.457v-6.119h2.175c1.163 0 2.02.594 2.02 1.573 0 .639-.368 1.214-1.172 1.417l.003-.002zm-1.199-.288c1.067 0 1.469-.533 1.469-1.066 0-.603-.525-.918-1.118-.918h-1.303v1.984h.952zm-.952.683v2.02h1.582c.656 0 1.136-.369 1.136-.935 0-.567-.465-1.085-1.583-1.085h-1.135zm6.411 1.468l-.473 1.268h-.9l2.352-6.119h1.013l2.361 6.119h-.883l-.48-1.268h-2.99zm2.727-.707l-1.241-3.305-1.223 3.305h2.466-.002zm4.494-2.553v4.528h-.875v-6.119h.647l3.347 4.51v-4.51h.884v6.119h-.647l-3.356-4.528zm9.765-1.591h.944v.096l-2.256 3.077 1.145 1.547c.27.374.593.734.97.734a.962.962 0 00.647-.228l.315.612c-.245.27-.779.374-1.058.374-.899 0-1.39-.743-1.678-1.171l-1.189-1.642v2.718h-.875v-6.12h.875v2.99l2.16-2.99v.003z"/></g></g><defs><clipPath id="clip0_940_6131"><path fill="#fff" d="M0 0h150v66H0z"/></clipPath><clipPath id="clip1_940_6131"><path fill="#fff" d="M0 0h150v66.158H0z"/></clipPath></defs></svg>