<?xml version="1.0" encoding="utf-8"?>
<!-- Generator: Adobe Illustrator 22.0.1, SVG Export Plug-In . SVG Version: 6.00 Build 0)  -->
<svg version="1.1" id="Layer_1" xmlns="http://www.w3.org/2000/svg" xmlns:xlink="http://www.w3.org/1999/xlink" width="164px" height="54px" x="0px" y="0px"
	 viewBox="0 0 164 54" xml:space="preserve">
<style type="text/css">
	.st0{fill:#012169;}
</style>
<g>
	<g>
		<path class="st0" d="M74.2,43.6h-1.9L70.7,47l-1.5-3.4h-1.9v6.4h1.4v-4.4l2.1,4.4l2.1-4.4v4.4h1.4v-6.4H74.2z M10.9,50.1h2.8
			c1.4,0,2.1-0.7,2.1-1.8c0-0.8-0.5-1.4-1.4-1.5c0.8-0.2,1.2-0.7,1.2-1.4c0-0.9-0.7-1.7-2.1-1.7h-2.6V50.1z M31.1,43.6h-1.5v4.2
			l-2.7-4.2h-1.5v6.4h1.5v-4.1l2.7,4.2h1.7v-6.5H31.1z M86.8,50.1h1.8l-1.5-2.7c0.8-0.2,1.3-0.8,1.3-1.8c0-1.2-0.7-1.9-2.2-1.9h-2.5
			v6.4h1.5v-2.5h0.4L86.8,50.1z M21.2,43.6h-1.7l-2.4,6.4h1.7l0.5-1.3h2.4l0.5,1.3h1.7L21.2,43.6z M140.8,45.7c0-1.3-0.7-2-2.2-2
			H136v6.4h1.5v-2.2h0.9C140,47.7,140.8,46.9,140.8,45.7L140.8,45.7z M37.4,50.1l-2.1-3.2v3.2h-1.5v-6.4h1.5v3.1l2-3.1h1.8l-2.1,3.1
			l2.2,3.3C39.2,50.1,37.4,50.1,37.4,50.1z M76.8,50.1h4.4v-1.3h-2.8v-1.4h2.2v-1.2h-2.2v-1.3h2.6l0.2-1.3h-4.5v6.5H76.8z
			 M99.5,48.3c-0.6,0.4-1.2,0.6-1.7,0.6c-1.2,0-2-0.8-2-2s0.8-2,2-2c0.6,0,1.1,0.1,1.7,0.6V44c-0.6-0.2-1.2-0.5-1.9-0.5
			c-2.1,0-3.4,1.4-3.4,3.3c0,1.9,1.3,3.3,3.5,3.3c0.7,0,1.3-0.1,1.9-0.5v-1.4H99.5z M159.5,50.1h1.5v-2.4l2.4-4h-1.8l-1.3,2.5
			l-1.3-2.5h-1.8l2.4,4v2.4H159.5z M51.6,50.1h1.5v-2.5h2v-1.3h-2v-1.4h2.5l0.2-1.3h-4.4v6.5H51.6z M90.5,50.1H92v-1.2v-5.2h-1.5
			V50.1z M13.3,47.4c0.5,0,0.8,0.2,0.8,0.8S13.8,49,13.3,49h-0.9v-1.5h0.9V47.4z M138.2,44.9c0.6,0,0.9,0.2,0.9,0.8
			c0,0.6-0.4,0.8-0.9,0.8h-0.7v-1.7H138.2z M85.7,44.9c0.6,0,0.9,0.2,0.9,0.8c0,0.6-0.4,0.8-0.9,0.8h-0.6v-1.7H85.7z M13.1,44.8
			c0.6,0,0.8,0.2,0.8,0.7c0,0.5-0.4,0.7-0.8,0.7h-0.7v-1.5h0.7V44.8z M20.4,45.1l0.7,2.4h-1.5L20.4,45.1z M4.6,43.6H3l-2.4,6.4h1.7
			l0.5-1.3h2.4l0.5,1.3h1.7L4.6,43.6z M3.8,45.1l0.7,2.4H3.1L3.8,45.1z M46.4,50.2c-2.1,0-3.4-1.4-3.4-3.3c0-1.9,1.3-3.3,3.4-3.3
			c2.1,0,3.4,1.4,3.4,3.3C49.8,48.7,48.5,50.2,46.4,50.2L46.4,50.2z M46.4,48.9c0.9,0,1.8-0.8,1.8-2c0-1.3-0.7-2-1.8-2
			c-0.9,0-1.8,0.7-1.8,2C44.6,48.1,45.4,48.9,46.4,48.9L46.4,48.9z M62.8,43.6h-1.7l-2.4,6.4h1.7l0.5-1.3h2.4l0.5,1.3h1.7L62.8,43.6
			z M61.9,45.1l0.7,2.4h-1.5L61.9,45.1z M105,43.6h-1.7l-2.4,6.4h1.7l0.5-1.3h2.4l0.5,1.3h1.7L105,43.6z M104.2,45.1l0.7,2.4h-1.5
			L104.2,45.1z M116.2,48.3c-0.6,0.4-1.2,0.6-1.7,0.6c-1.2,0-2-0.8-2-2s0.8-2,2-2c0.6,0,1.1,0.1,1.7,0.6V44
			c-0.6-0.2-1.2-0.5-1.9-0.5c-2.1,0-3.4,1.4-3.4,3.3c0,1.9,1.3,3.3,3.5,3.3c0.7,0,1.3-0.1,1.9-0.5v-1.4H116.2z M121.1,50.2
			c-2.1,0-3.4-1.4-3.4-3.3c0-1.9,1.3-3.3,3.4-3.3s3.4,1.4,3.4,3.3C124.6,48.7,123.2,50.2,121.1,50.2L121.1,50.2z M121.1,48.9
			c0.9,0,1.8-0.8,1.8-2c0-1.3-0.7-2-1.8-2c-0.9,0-1.8,0.7-1.8,2C119.4,48.1,120.1,48.9,121.1,48.9L121.1,48.9z M133.4,43.6h-1.9
			l-1.7,3.4l-1.5-3.4h-1.9v6.4h1.4v-4.4l2.1,4.4l2.1-4.4v4.4h1.4v-6.4H133.4z M145.5,43.6h-1.7l-2.4,6.4h1.7l0.5-1.3h2.4l0.5,1.3
			h1.7L145.5,43.6z M144.6,45.1l0.7,2.4h-1.5L144.6,45.1z M155.4,43.6H154v4.2l-2.7-4.2h-1.7v6.4h1.5v-4.1l2.7,4.2h1.7v-6.5H155.4z"
			/>
		<path class="st0" d="M17.2,37.2H14v-9.6l-4.6,9.6l-4.6-9.6v9.6H1.5V22.9h4.1l3.7,7.8l3.8-7.8h4.1V37.2z M24,37.2h9.8v-2.7h-6.4
			v-3.2h5.1v-2.7h-5v-2.9h5.8l0.6-2.7H24V37.2z M50.9,37.2h-3.8l-3.2-5.7h-0.9v5.7h-3.4V22.9h5.5c3.5,0,5.1,1.8,5.1,4.4
			c0,2-0.9,3.4-2.9,3.9L50.9,37.2z M46.6,27.4c0-1.2-0.7-1.8-2.2-1.8h-1.5v3.7h1.5C45.9,29.2,46.6,28.6,46.6,27.4z M67.4,37.2h-3.8
			l-3.2-5.7h-0.9v5.7H56V22.9h5.5c3.5,0,5.1,1.8,5.1,4.4c0,2-0.9,3.4-2.9,3.9L67.4,37.2z M63.1,27.4c0-1.2-0.7-1.8-2.2-1.8h-1.5v3.7
			h1.5C62.4,29.2,63.1,28.6,63.1,27.4z M72.6,37.2h3.5V36V22.9h-3.5V37.2z M82.8,37.2h9.7v-2.8h-6.1V22.9h-3.5V37.2z M97.6,37.2h9.7
			v-2.8h-6.1V22.9h-3.5V37.2z"/>
	</g>
	<g>
		<g>
			<path class="st0" d="M147.8,36.1c0-0.6,0.5-1.2,1.2-1.2c0.7,0,1.2,0.5,1.2,1.2c0,0.6-0.5,1.2-1.2,1.2
				C148.3,37.2,147.8,36.7,147.8,36.1 M148.1,36.1c0,0.5,0.5,0.9,0.9,0.9s0.9-0.4,0.9-0.9c0-0.5-0.5-0.9-0.9-0.9
				C148.4,35.2,148.1,35.6,148.1,36.1"/>
			<path class="st0" d="M149.6,36.7h-0.2l-0.4-0.6h-0.2v0.6h-0.2v-1.3h0.6c0.1,0,0.2,0,0.4,0.1c0.1,0,0.1,0.1,0.1,0.2
				c0,0.2-0.2,0.4-0.5,0.4L149.6,36.7z M148.9,36c0.2,0,0.5,0,0.5-0.2c0-0.1-0.1-0.2-0.4-0.2h-0.4v0.4h0.2V36z"/>
		</g>
		<g>
			<path class="st0" d="M124.4,16.1c-0.6-0.5-2-0.6-2.7,0l0.2,0.5c0.8-0.1,1.5-0.1,2.2,0L124.4,16.1z"/>
			<path class="st0" d="M145.5,27.3c-0.9-1.3-1.2-2.5-2.5-3.9c1.8-0.2,3.1-1.1,3.7-2.4c0.6-1.2,0.6-2.5,0-3.7
				c-1.3-2.5-4.8-3.7-7.6-4.1c-3.1-0.6-4.4-1.3-4.8-2.8c0-0.1-0.2-0.8,0.2-1.4c0.8-1.1,3.1-0.9,3.2-0.9c0.7,0,1.2,0.5,1.9,1.2
				c0.8,0.8,1.8,1.8,3.4,1.8c1.1,0,2.2-0.4,3.5-1.8c1.1-1.1,1.9-2.7,1.9-2.8h-11c-2,0-3.5,0.6-4.2,1.5c-0.9,1.3-0.6,2.8-0.5,2.8l0,0
				c0.8,2.5,2.9,3.4,6,4c3.4,0.6,5.7,1.8,6.5,3.3c0.4,0.7,0.4,1.4,0,2.2c-0.6,1.2-2,1.7-4.6,1.5c-2.2-0.1-5.4-1.2-7.8-3.7
				c-1.1-1.2-2.2-2.8-3.5-5.1c0-0.1-0.4-0.6-0.7-1.2h1.8c-0.1-0.6-0.5-1.3-0.9-1.8c0.7-0.8,0.9-1.8,0.9-2.6c-0.1-3.9-4-3.8-5.3-3.8
				c0.9,1.4,1.3,2.7,0.8,3.1c-0.5,0.2-1.4-0.5-3.1-0.5s-2.6,0.7-3.1,0.5s0-1.7,0.8-3.1c-1.3,0-5.2-0.1-5.3,3.8
				c0,0.8,0.4,1.8,1.1,2.7c-0.5,0.5-0.9,1.2-0.8,1.8l1.4,0.1c-0.7,2.2-1.8,5.3-2.2,7.4l0,0c-0.6,2.2-0.1,4.4,1.3,6.3
				c-0.5,0.8-0.6,2-0.4,2.8c1.2,5.4,0.6,6,0.1,8.7h4.8c0.1-0.6,0.6-4.4,0.7-6.6c1.1,0.9,2.1,1.9,3.1,2.6l0,0
				c1.5,1.3,2.9,1.3,3.4,1.3c1.1,0,2.4-0.1,3.3-0.2c0,0,0.1-1.8,0.2-3.4l0.9-0.1l0.1,1.2l1.5-0.1c-0.7,2.6-2.1,4.4-2.7,5.4h5.3
				c0.2-0.4,1.3-2.2,2-3.9c1.8,0.7,2.9-0.2,3.3-0.5c-0.2,1.9-1.3,3.8-1.5,4.4h6c0-0.9-0.4-2.1,1.8-8.3
				C146.7,28.5,145.8,27.8,145.5,27.3z M145.4,8.1c-0.6,0.6-1.4,1.3-2.5,1.3c-1.1,0-1.5-0.6-2.2-1.3H145.4z M119.2,35.6h-1.4
				c0.8-3.8-0.9-7.6-0.6-8.6c0.4,0.4,2.1,2,2.5,2.2C119.6,30.4,119.4,33.4,119.2,35.6z M135.4,35.6H134c0.5-0.9,1.1-2.2,1.4-3.9
				l0.9-0.1c0.1,0.2,0.4,0.6,0.6,0.8C136.5,33.5,135.9,34.8,135.4,35.6z M139.3,32c-0.8-0.1-1.3-0.8-1.5-1.4
				c0.5,0.1,2.5,0.5,3.1,0.7C140.6,31.7,140,32.1,139.3,32z M144.4,35.6h-1.8c0.4-1.1,0.8-2.7,0.6-3.9c-0.4-1.8-2.2-2.1-3.9-2.5
				c-0.9-0.2-2-0.5-2.7-0.8c-1.2-0.7-1.2-2.4-0.8-3.3H134c-0.6,2.5,0.7,4.2,1.8,4.8V30l-2.2,0.2l-0.1-1.2l-4,0.4
				c0.1-0.6,0.2-1.3,0.2-2H128c0,1.5-0.7,3.2-1.3,3.8l2.7-0.2c0,0.7-0.1,1.3-0.1,1.8c-0.9,0.1-2.1,0.1-2.6,0
				c-1.1-0.2-1.9-0.9-2.2-1.8c-0.5-1.2-0.2-2.5,0.7-4l-1.3-1.1c-1.1,1.5-1.3,2.9-1.3,4c-1.1-0.9-4.1-3.8-4.6-4.1
				c-1.9-1.7-2.6-3.7-2-5.9l0,0c0.6-2.2,1.8-6,2.6-8.1c0.4-1.1,0.4-1.2,0.6-1.5c-1.3-0.2-2.4-1.5-2.4-2.7c0-1.1,0.7-2,1.5-2.1
				c-0.4,0.6-0.2,1.7-0.1,2c0.2,0.4,0.7,0.9,1.5,0.9c0.6,0,1.5-0.5,2.9-0.5l0,0l0,0c1.4,0,2.4,0.5,2.9,0.5c0.8,0,1.3-0.6,1.5-0.9
				s0.2-1.4-0.1-2c0.8,0.1,1.5,1.1,1.5,2.1c0,0.9-0.6,2.2-2,2.4c-0.2,0-0.5,0-0.7,0c-2.4,0-2.5,1.9-2,3.8c0.1,0.5-0.1,0.9-0.1,0.9
				h-2.8l0.5,1.1c0.8-0.2,2.4-0.2,3.2,0l0,0l0.6-1.1l-0.2-0.8l1.5-2.2c0.5,0.9,1.3,2.4,1.3,2.5c1.1,2,1.5,3.8,1.4,5.4
				c0,0.6-0.2,1.2-0.4,1.7l1.3,1.2c0.6-1.1,0.8-2.5,0.8-3.5c0.2,0.2,0.5,0.6,0.7,0.8c2.4,2.5,5.5,3.7,8,4l0,0
				c2.2,0.4,3.1,2.1,3.5,3.2c0.8,1.7,1.3,2.2,2.6,3.2C145.6,30.2,144.6,33.5,144.4,35.6z M126,10.5c0,0.8-0.5,1.4-1.3,1.5
				C124.6,11.2,125.1,10.7,126,10.5z"/>
			<path class="st0" d="M121.6,12.2c-1.1,0-1.5-0.7-1.5-1.8C121.2,10.5,121.6,11.2,121.6,12.2z"/>
		</g>
	</g>
</g>
</svg>
