<svg id="visual" viewBox="0 0 900 600" width="900" height="600" xmlns="http://www.w3.org/2000/svg" xmlns:xlink="http://www.w3.org/1999/xlink" version="1.1"><g stroke-width="1" stroke-linejoin="bevel"><path d="M447 330.9L446 233.1L386 324.9Z" fill="#040404" stroke="#BF7E04"></path><path d="M447 330.9L505 305.9L446 233.1Z" fill="#070707" stroke="#BF7E04"></path><path d="M446 233.1L322 281.1L386 324.9Z" fill="#1a1a1a" stroke="#BF7E04"></path><path d="M505 305.9L521 294.1L446 233.1Z" fill="#0e0e0e" stroke="#BF7E04"></path><path d="M521 294.1L503 204.4L446 233.1Z" fill="#161616" stroke="#BF7E04"></path><path d="M446 233.1L356 140.4L322 281.1Z" fill="#1c1c1c" stroke="#BF7E04"></path><path d="M386 324.9L464 404.6L447 330.9Z" fill="#000000" stroke="#BF7E04"></path><path d="M447 330.9L464 404.6L505 305.9Z" fill="#0e0e0e" stroke="#BF7E04"></path><path d="M505 305.9L556 447.6L521 294.1Z" fill="#000000" stroke="#BF7E04"></path><path d="M355 465.6L464 404.6L386 324.9Z" fill="#111111" stroke="#BF7E04"></path><path d="M503 204.4L447 146.4L446 233.1Z" fill="#111111" stroke="#BF7E04"></path><path d="M447 146.4L356 140.4L446 233.1Z" fill="#000000" stroke="#BF7E04"></path><path d="M279 159.4L259 218.1L322 281.1Z" fill="#1a1a1a" stroke="#BF7E04"></path><path d="M447 146.4L368 112.7L356 140.4Z" fill="#181818" stroke="#BF7E04"></path><path d="M356 140.4L279 159.4L322 281.1Z" fill="#1c1c1c" stroke="#BF7E04"></path><path d="M657 342.9L604 253.1L521 294.1Z" fill="#070707" stroke="#BF7E04"></path><path d="M521 294.1L604 253.1L503 204.4Z" fill="#000000" stroke="#BF7E04"></path><path d="M538 82.7L489 69.7L447 146.4Z" fill="#181818" stroke="#BF7E04"></path><path d="M283 64.7L279 159.4L356 140.4Z" fill="#070707" stroke="#BF7E04"></path><path d="M259 218.1L250 359.9L322 281.1Z" fill="#0b0b0b" stroke="#BF7E04"></path><path d="M322 281.1L250 359.9L386 324.9Z" fill="#181818" stroke="#BF7E04"></path><path d="M250 359.9L355 465.6L386 324.9Z" fill="#141414" stroke="#BF7E04"></path><path d="M355 465.6L463 487.3L464 404.6Z" fill="#1c1c1c" stroke="#BF7E04"></path><path d="M464 404.6L556 447.6L505 305.9Z" fill="#0b0b0b" stroke="#BF7E04"></path><path d="M532 479.3L556 447.6L464 404.6Z" fill="#141414" stroke="#BF7E04"></path><path d="M538 82.7L447 146.4L503 204.4Z" fill="#0b0b0b" stroke="#BF7E04"></path><path d="M447 146.4L489 69.7L368 112.7Z" fill="#000000" stroke="#BF7E04"></path><path d="M250 359.9L254 432.6L355 465.6Z" fill="#161616" stroke="#BF7E04"></path><path d="M463 487.3L532 479.3L464 404.6Z" fill="#111111" stroke="#BF7E04"></path><path d="M640 201.4L538 82.7L503 204.4Z" fill="#141414" stroke="#BF7E04"></path><path d="M279 159.4L208 191.4L259 218.1Z" fill="#0e0e0e" stroke="#BF7E04"></path><path d="M259 218.1L196 337.9L250 359.9Z" fill="#181818" stroke="#BF7E04"></path><path d="M250 359.9L192 438.6L254 432.6Z" fill="#161616" stroke="#BF7E04"></path><path d="M148 73.7L208 191.4L279 159.4Z" fill="#000000" stroke="#BF7E04"></path><path d="M173 251.1L196 337.9L259 218.1Z" fill="#070707" stroke="#BF7E04"></path><path d="M745 282.1L640 201.4L604 253.1Z" fill="#1c1c1c" stroke="#BF7E04"></path><path d="M604 253.1L640 201.4L503 204.4Z" fill="#141414" stroke="#BF7E04"></path><path d="M648 420.6L657 342.9L556 447.6Z" fill="#181818" stroke="#BF7E04"></path><path d="M556 447.6L657 342.9L521 294.1Z" fill="#1a1a1a" stroke="#BF7E04"></path><path d="M208 191.4L173 251.1L259 218.1Z" fill="#0e0e0e" stroke="#BF7E04"></path><path d="M392 0L283 64.7L368 112.7Z" fill="#000000" stroke="#BF7E04"></path><path d="M368 112.7L283 64.7L356 140.4Z" fill="#040404" stroke="#BF7E04"></path><path d="M687 450.6L648 420.6L691 480.3Z" fill="#141414" stroke="#BF7E04"></path><path d="M532 0L441 0L489 69.7Z" fill="#161616" stroke="#BF7E04"></path><path d="M640 201.4L615 86.7L538 82.7Z" fill="#141414" stroke="#BF7E04"></path><path d="M196 337.9L192 438.6L250 359.9Z" fill="#0e0e0e" stroke="#BF7E04"></path><path d="M230 527.3L331 552.3L355 465.6Z" fill="#000000" stroke="#BF7E04"></path><path d="M355 465.6L331 552.3L463 487.3Z" fill="#111111" stroke="#BF7E04"></path><path d="M97 422.6L192 438.6L196 337.9Z" fill="#0b0b0b" stroke="#BF7E04"></path><path d="M532 0L489 69.7L538 82.7Z" fill="#141414" stroke="#BF7E04"></path><path d="M489 69.7L441 0L368 112.7Z" fill="#0b0b0b" stroke="#BF7E04"></path><path d="M441 0L392 0L368 112.7Z" fill="#040404" stroke="#BF7E04"></path><path d="M230 527.3L355 465.6L254 432.6Z" fill="#1a1a1a" stroke="#BF7E04"></path><path d="M463 487.3L472 600L532 479.3Z" fill="#070707" stroke="#BF7E04"></path><path d="M615 86.7L532 0L538 82.7Z" fill="#1a1a1a" stroke="#BF7E04"></path><path d="M103 159.4L117 251.1L173 251.1Z" fill="#141414" stroke="#BF7E04"></path><path d="M173 251.1L95 313.9L196 337.9Z" fill="#0b0b0b" stroke="#BF7E04"></path><path d="M103 159.4L173 251.1L208 191.4Z" fill="#0e0e0e" stroke="#BF7E04"></path><path d="M745 282.1L692 134.4L640 201.4Z" fill="#0b0b0b" stroke="#BF7E04"></path><path d="M640 201.4L692 134.4L615 86.7Z" fill="#1c1c1c" stroke="#BF7E04"></path><path d="M615 86.7L636 0L532 0Z" fill="#1a1a1a" stroke="#BF7E04"></path><path d="M745 282.1L604 253.1L657 342.9Z" fill="#111111" stroke="#BF7E04"></path><path d="M392 0L294 0L283 64.7Z" fill="#0e0e0e" stroke="#BF7E04"></path><path d="M148 73.7L103 159.4L208 191.4Z" fill="#111111" stroke="#BF7E04"></path><path d="M97 422.6L180 477.3L192 438.6Z" fill="#141414" stroke="#BF7E04"></path><path d="M192 438.6L180 477.3L254 432.6Z" fill="#0e0e0e" stroke="#BF7E04"></path><path d="M180 477.3L230 527.3L254 432.6Z" fill="#0b0b0b" stroke="#BF7E04"></path><path d="M629 534.3L648 420.6L556 447.6Z" fill="#181818" stroke="#BF7E04"></path><path d="M648 420.6L738 349.9L657 342.9Z" fill="#1c1c1c" stroke="#BF7E04"></path><path d="M629 534.3L556 447.6L532 479.3Z" fill="#000000" stroke="#BF7E04"></path><path d="M270 600L399 600L331 552.3Z" fill="#000000" stroke="#BF7E04"></path><path d="M331 552.3L399 600L463 487.3Z" fill="#0e0e0e" stroke="#BF7E04"></path><path d="M399 600L472 600L463 487.3Z" fill="#0e0e0e" stroke="#BF7E04"></path><path d="M738 349.9L745 282.1L657 342.9Z" fill="#141414" stroke="#BF7E04"></path><path d="M687 450.6L738 349.9L648 420.6Z" fill="#000000" stroke="#BF7E04"></path><path d="M561 600L629 534.3L532 479.3Z" fill="#181818" stroke="#BF7E04"></path><path d="M117 251.1L95 313.9L173 251.1Z" fill="#161616" stroke="#BF7E04"></path><path d="M629 534.3L691 480.3L648 420.6Z" fill="#161616" stroke="#BF7E04"></path><path d="M687 450.6L791 370.9L738 349.9Z" fill="#111111" stroke="#BF7E04"></path><path d="M148 73.7L279 159.4L283 64.7Z" fill="#111111" stroke="#BF7E04"></path><path d="M117 251.1L0 283.1L95 313.9Z" fill="#040404" stroke="#BF7E04"></path><path d="M151 0L148 73.7L283 64.7Z" fill="#181818" stroke="#BF7E04"></path><path d="M472 600L561 600L532 479.3Z" fill="#141414" stroke="#BF7E04"></path><path d="M629 534.3L690 600L691 480.3Z" fill="#161616" stroke="#BF7E04"></path><path d="M201 600L270 600L230 527.3Z" fill="#141414" stroke="#BF7E04"></path><path d="M230 527.3L270 600L331 552.3Z" fill="#070707" stroke="#BF7E04"></path><path d="M95 313.9L97 422.6L196 337.9Z" fill="#0e0e0e" stroke="#BF7E04"></path><path d="M180 477.3L201 600L230 527.3Z" fill="#1a1a1a" stroke="#BF7E04"></path><path d="M720 0L636 0L615 86.7Z" fill="#161616" stroke="#BF7E04"></path><path d="M810 205.4L750 109.7L692 134.4Z" fill="#181818" stroke="#BF7E04"></path><path d="M692 134.4L720 0L615 86.7Z" fill="#070707" stroke="#BF7E04"></path><path d="M691 480.3L791 370.9L687 450.6Z" fill="#000000" stroke="#BF7E04"></path><path d="M738 349.9L791 370.9L745 282.1Z" fill="#1a1a1a" stroke="#BF7E04"></path><path d="M745 282.1L810 205.4L692 134.4Z" fill="#1c1c1c" stroke="#BF7E04"></path><path d="M151 0L101 65.7L148 73.7Z" fill="#141414" stroke="#BF7E04"></path><path d="M148 73.7L101 65.7L103 159.4Z" fill="#000000" stroke="#BF7E04"></path><path d="M0 209.4L0 283.1L117 251.1Z" fill="#070707" stroke="#BF7E04"></path><path d="M77 600L201 600L180 477.3Z" fill="#1c1c1c" stroke="#BF7E04"></path><path d="M294 0L151 0L283 64.7Z" fill="#0b0b0b" stroke="#BF7E04"></path><path d="M836 289.1L810 205.4L745 282.1Z" fill="#040404" stroke="#BF7E04"></path><path d="M561 600L662 600L629 534.3Z" fill="#070707" stroke="#BF7E04"></path><path d="M834 544.3L846 391.6L791 370.9Z" fill="#000000" stroke="#BF7E04"></path><path d="M750 109.7L720 0L692 134.4Z" fill="#181818" stroke="#BF7E04"></path><path d="M787 50.7L720 0L750 109.7Z" fill="#070707" stroke="#BF7E04"></path><path d="M791 370.9L836 289.1L745 282.1Z" fill="#141414" stroke="#BF7E04"></path><path d="M662 600L690 600L629 534.3Z" fill="#0b0b0b" stroke="#BF7E04"></path><path d="M791 370.9L846 391.6L836 289.1Z" fill="#0b0b0b" stroke="#BF7E04"></path><path d="M95 313.9L0 334.9L97 422.6Z" fill="#161616" stroke="#BF7E04"></path><path d="M97 422.6L53 491.3L180 477.3Z" fill="#181818" stroke="#BF7E04"></path><path d="M0 209.4L117 251.1L103 159.4Z" fill="#1a1a1a" stroke="#BF7E04"></path><path d="M0 464.6L53 491.3L97 422.6Z" fill="#040404" stroke="#BF7E04"></path><path d="M0 283.1L0 334.9L95 313.9Z" fill="#181818" stroke="#BF7E04"></path><path d="M0 56.7L0 209.4L103 159.4Z" fill="#111111" stroke="#BF7E04"></path><path d="M900 96.7L750 109.7L810 205.4Z" fill="#0e0e0e" stroke="#BF7E04"></path><path d="M900 96.7L787 50.7L750 109.7Z" fill="#000000" stroke="#BF7E04"></path><path d="M834 544.3L791 370.9L691 480.3Z" fill="#1a1a1a" stroke="#BF7E04"></path><path d="M151 0L81 0L101 65.7Z" fill="#111111" stroke="#BF7E04"></path><path d="M101 65.7L0 56.7L103 159.4Z" fill="#161616" stroke="#BF7E04"></path><path d="M0 334.9L0 464.6L97 422.6Z" fill="#1c1c1c" stroke="#BF7E04"></path><path d="M53 491.3L77 600L180 477.3Z" fill="#000000" stroke="#BF7E04"></path><path d="M0 539.3L77 600L53 491.3Z" fill="#040404" stroke="#BF7E04"></path><path d="M81 0L0 56.7L101 65.7Z" fill="#0b0b0b" stroke="#BF7E04"></path><path d="M900 323.9L900 283.1L836 289.1Z" fill="#070707" stroke="#BF7E04"></path><path d="M836 289.1L900 283.1L810 205.4Z" fill="#1a1a1a" stroke="#BF7E04"></path><path d="M900 455.6L900 323.9L846 391.6Z" fill="#070707" stroke="#BF7E04"></path><path d="M846 391.6L900 323.9L836 289.1Z" fill="#040404" stroke="#BF7E04"></path><path d="M900 283.1L900 183.4L810 205.4Z" fill="#0b0b0b" stroke="#BF7E04"></path><path d="M690 600L834 544.3L691 480.3Z" fill="#000000" stroke="#BF7E04"></path><path d="M0 464.6L0 539.3L53 491.3Z" fill="#161616" stroke="#BF7E04"></path><path d="M787 50.7L834 0L720 0Z" fill="#0e0e0e" stroke="#BF7E04"></path><path d="M900 96.7L834 0L787 50.7Z" fill="#1a1a1a" stroke="#BF7E04"></path><path d="M81 0L0 0L0 56.7Z" fill="#070707" stroke="#BF7E04"></path><path d="M834 544.3L900 455.6L846 391.6Z" fill="#040404" stroke="#BF7E04"></path><path d="M900 183.4L900 96.7L810 205.4Z" fill="#1a1a1a" stroke="#BF7E04"></path><path d="M690 600L828 600L834 544.3Z" fill="#1c1c1c" stroke="#BF7E04"></path><path d="M834 544.3L900 548.3L900 455.6Z" fill="#161616" stroke="#BF7E04"></path><path d="M0 539.3L0 600L77 600Z" fill="#161616" stroke="#BF7E04"></path><path d="M900 600L900 548.3L834 544.3Z" fill="#1a1a1a" stroke="#BF7E04"></path><path d="M900 96.7L900 0L834 0Z" fill="#0b0b0b" stroke="#BF7E04"></path><path d="M828 600L900 600L834 544.3Z" fill="#0e0e0e" stroke="#BF7E04"></path></g></svg>