<?xml version="1.0" encoding="UTF-8"?>
<!DOCTYPE svg PUBLIC "-//W3C//DTD SVG 1.1//EN" "http://www.w3.org/Graphics/SVG/1.1/DTD/svg11.dtd">
<svg xmlns="http://www.w3.org/2000/svg" version="1.1" width="173px" height="189px" style="shape-rendering:geometricPrecision; text-rendering:geometricPrecision; image-rendering:optimizeQuality; fill-rule:evenodd; clip-rule:evenodd" xmlns:xlink="http://www.w3.org/1999/xlink">
<g><path style="opacity:0.208" fill="#ffd6cd" d="M 85.5,4.5 C 84.3406,6.25027 82.674,7.25027 80.5,7.5C 81.6594,5.74973 83.326,4.74973 85.5,4.5 Z"/></g>
<g><path style="opacity:0.208" fill="#ffd4cb" d="M 87.5,4.5 C 89.674,4.74973 91.3406,5.74973 92.5,7.5C 90.326,7.25027 88.6594,6.25027 87.5,4.5 Z"/></g>
<g><path style="opacity:1" fill="#fe5331" d="M 85.5,4.5 C 86.1667,4.5 86.8333,4.5 87.5,4.5C 88.6594,6.25027 90.326,7.25027 92.5,7.5C 93.4363,8.97439 94.7697,9.97439 96.5,10.5C 93.5211,14.1456 90.1877,17.479 86.5,20.5C 82.8123,17.479 79.4789,14.1456 76.5,10.5C 78.4553,10.2014 79.7886,9.20136 80.5,7.5C 82.674,7.25027 84.3406,6.25027 85.5,4.5 Z"/></g>
<g><path style="opacity:0.298" fill="#ffc8bc" d="M 92.5,7.5 C 94.674,7.74973 96.3406,8.74973 97.5,10.5C 97.1667,10.5 96.8333,10.5 96.5,10.5C 94.7697,9.97439 93.4363,8.97439 92.5,7.5 Z"/></g>
<g><path style="opacity:0.576" fill="#ffb1a0" d="M 80.5,7.5 C 79.7886,9.20136 78.4553,10.2014 76.5,10.5C 76.1667,10.5 75.8333,10.5 75.5,10.5C 76.6594,8.74973 78.326,7.74973 80.5,7.5 Z"/></g>
<g><path style="opacity:1" fill="#fe5230" d="M 71.5,12.5 C 77.2958,13.4358 81.6292,16.6025 84.5,22C 79.7124,27.7898 74.5457,33.2898 69,38.5C 64.2979,33.6301 59.4646,28.9634 54.5,24.5C 54.5,23.8333 54.5,23.1667 54.5,22.5C 56.674,22.2503 58.3406,21.2503 59.5,19.5C 59.8417,18.6618 60.5084,18.3284 61.5,18.5C 63.8477,18.4077 65.5144,17.4077 66.5,15.5C 68.674,15.2503 70.3406,14.2503 71.5,12.5 Z"/></g>
<g><path style="opacity:1" fill="#fc5332" d="M 99.5,12.5 C 101.713,13.7729 104.046,14.7729 106.5,15.5C 107.659,17.2503 109.326,18.2503 111.5,18.5C 112.492,18.3284 113.158,18.6618 113.5,19.5C 114.659,21.2503 116.326,22.2503 118.5,22.5C 119.659,24.2503 121.326,25.2503 123.5,25.5C 123.5,26.1667 123.5,26.8333 123.5,27.5C 122.833,27.5 122.5,27.8333 122.5,28.5C 122.158,29.3382 121.492,29.6716 120.5,29.5C 118.326,29.7497 116.659,30.7497 115.5,32.5C 115.158,33.3382 114.492,33.6716 113.5,33.5C 111.011,33.2407 109.344,34.2407 108.5,36.5C 107.167,36.8333 105.833,37.1667 104.5,37.5C 98.5782,33.2487 93.2449,28.2487 88.5,22.5C 89.624,21.086 90.624,19.586 91.5,18C 94.0652,15.9205 96.7318,14.0872 99.5,12.5 Z"/></g>
<g><path style="opacity:0.204" fill="#ffd5cd" d="M 99.5,12.5 C 99.5,12.1667 99.5,11.8333 99.5,11.5C 102.331,12.0787 104.664,13.412 106.5,15.5C 104.046,14.7729 101.713,13.7729 99.5,12.5 Z"/></g>
<g><path style="opacity:0.169" fill="#ffdbd5" d="M 71.5,12.5 C 70.3406,14.2503 68.674,15.2503 66.5,15.5C 67.6594,13.7497 69.326,12.7497 71.5,12.5 Z"/></g>
<g><path style="opacity:0.247" fill="#ffcec4" d="M 106.5,15.5 C 108.674,15.7497 110.341,16.7497 111.5,18.5C 109.326,18.2503 107.659,17.2503 106.5,15.5 Z"/></g>
<g><path style="opacity:0.518" fill="#ffb8a8" d="M 66.5,15.5 C 65.5144,17.4077 63.8477,18.4077 61.5,18.5C 62.6594,16.7497 64.326,15.7497 66.5,15.5 Z"/></g>
<g><path style="opacity:0.161" fill="#ffdad3" d="M 59.5,19.5 C 58.3406,21.2503 56.674,22.2503 54.5,22.5C 55.6594,20.7497 57.326,19.7497 59.5,19.5 Z"/></g>
<g><path style="opacity:0.157" fill="#ffd8d0" d="M 113.5,19.5 C 115.674,19.7497 117.341,20.7497 118.5,22.5C 116.326,22.2503 114.659,21.2503 113.5,19.5 Z"/></g>
<g><path style="opacity:0.298" fill="#fbc7bc" d="M 118.5,22.5 C 120.674,22.7497 122.341,23.7497 123.5,25.5C 121.326,25.2503 119.659,24.2503 118.5,22.5 Z"/></g>
<g><path style="opacity:0.557" fill="#fcb1a1" d="M 54.5,22.5 C 54.5,23.1667 54.5,23.8333 54.5,24.5C 53.209,24.2627 52.209,24.596 51.5,25.5C 50.8333,25.5 50.1667,25.5 49.5,25.5C 50.6594,23.7497 52.326,22.7497 54.5,22.5 Z"/></g>
<g><path style="opacity:1" fill="#fe5432" d="M 101.5,39.5 C 101.5,39.8333 101.5,40.1667 101.5,40.5C 99.6644,42.588 97.3311,43.9213 94.5,44.5C 92.326,44.7497 90.6594,45.7497 89.5,47.5C 87.326,47.7497 85.6594,48.7497 84.5,50.5C 83.1266,50.6567 81.7932,50.49 80.5,50C 77.1667,46.6667 73.8333,43.3333 70.5,40C 76.0267,34.1284 81.6933,28.7951 87.5,24C 92.7659,28.7587 97.4325,33.9254 101.5,39.5 Z"/></g>
<g><path style="opacity:1" fill="#fe512f" d="M 49.5,25.5 C 50.1667,25.5 50.8333,25.5 51.5,25.5C 57.2416,29.7347 62.5749,34.568 67.5,40C 63.8926,43.0977 60.8926,46.5977 58.5,50.5C 56.1137,51.3733 54.1137,52.8733 52.5,55C 51.5,55.6667 50.5,55.6667 49.5,55C 45,50.5 40.5,46 36,41.5C 35.3333,40.5 35.3333,39.5 36,38.5C 39.2258,36.1311 41.3924,33.1311 42.5,29.5C 44.674,29.2503 46.3406,28.2503 47.5,26.5C 47.8417,25.6618 48.5084,25.3284 49.5,25.5 Z"/></g>
<g><path style="opacity:0.188" fill="#f7d3cc" d="M 47.5,26.5 C 46.3406,28.2503 44.674,29.2503 42.5,29.5C 43.6594,27.7497 45.326,26.7497 47.5,26.5 Z"/></g>
<g><path style="opacity:1" fill="#fd502e" d="M 128.5,28.5 C 131.251,32.757 134.584,36.5903 138.5,40C 134.298,44.3702 129.964,48.5368 125.5,52.5C 125.334,44.16 125.5,35.8267 126,27.5C 126.671,28.2524 127.504,28.5858 128.5,28.5 Z"/></g>
<g><path style="opacity:0.294" fill="#ffc6b9" d="M 120.5,29.5 C 119.341,31.2503 117.674,32.2503 115.5,32.5C 116.659,30.7497 118.326,29.7497 120.5,29.5 Z"/></g>
<g><path style="opacity:0.255" fill="#ffcac0" d="M 132.5,30.5 C 134.027,30.427 135.027,31.0937 135.5,32.5C 133.973,32.573 132.973,31.9063 132.5,30.5 Z"/></g>
<g><path style="opacity:0.498" fill="#ffcbc0" d="M 38.5,31.5 C 38.0269,32.9063 37.0269,33.573 35.5,33.5C 35.9731,32.0937 36.9731,31.427 38.5,31.5 Z"/></g>
<g><path style="opacity:0.929" fill="#f5a28f" d="M 113.5,33.5 C 112.341,35.2503 110.674,36.2503 108.5,36.5C 109.344,34.2407 111.011,33.2407 113.5,33.5 Z"/></g>
<g><path style="opacity:0.706" fill="#ffb3a2" d="M 35.5,33.5 C 35.0269,34.9063 34.0269,35.573 32.5,35.5C 32.9731,34.0937 33.9731,33.427 35.5,33.5 Z"/></g>
<g><path style="opacity:0.259" fill="#fbc9be" d="M 108.5,36.5 C 106.664,38.588 104.331,39.9213 101.5,40.5C 101.5,40.1667 101.5,39.8333 101.5,39.5C 102.71,39.0679 103.71,38.4013 104.5,37.5C 105.833,37.1667 107.167,36.8333 108.5,36.5 Z"/></g>
<g><path style="opacity:1" fill="#fe5433" d="M 28.5,37.5 C 30.1958,37.6854 31.5291,38.5187 32.5,40C 27,45.5 21.5,51 16,56.5C 14.2962,54.6266 12.4628,52.9599 10.5,51.5C 10.4326,50.0413 10.7659,48.7079 11.5,47.5C 13.8477,47.4077 15.5144,46.4077 16.5,44.5C 17.5137,43.3263 18.847,42.6596 20.5,42.5C 22.0269,42.573 23.0269,41.9063 23.5,40.5C 25.8477,40.4077 27.5144,39.4077 28.5,37.5 Z"/></g>
<g><path style="opacity:1" fill="#ff5b39" d="M 144.5,37.5 C 145.492,37.3284 146.158,37.6618 146.5,38.5C 146.973,39.9063 147.973,40.573 149.5,40.5C 152.004,41.5839 154.337,42.9172 156.5,44.5C 158,46.1786 159.833,47.5119 162,48.5C 162.483,49.448 162.649,50.448 162.5,51.5C 160.537,52.9599 158.704,54.6266 157,56.5C 152,51.5 147,46.5 142,41.5C 141.09,39.0551 141.924,37.7218 144.5,37.5 Z"/></g>
<g><path style="opacity:0.545" fill="#ffb5a4" d="M 28.5,37.5 C 27.5144,39.4077 25.8477,40.4077 23.5,40.5C 24.6594,38.7497 26.326,37.7497 28.5,37.5 Z"/></g>
<g><path style="opacity:0.18" fill="#ffd4ca" d="M 146.5,38.5 C 148.027,38.427 149.027,39.0937 149.5,40.5C 147.973,40.573 146.973,39.9063 146.5,38.5 Z"/></g>
<g><path style="opacity:1" fill="#e45639" d="M 42.5,29.5 C 41.3924,33.1311 39.2258,36.1311 36,38.5C 35.3333,39.5 35.3333,40.5 36,41.5C 40.5,46 45,50.5 49.5,55C 50.5,55.6667 51.5,55.6667 52.5,55C 54.1137,52.8733 56.1137,51.3733 58.5,50.5C 56.4655,52.73 54.7988,55.23 53.5,58C 54.7281,60.7303 56.7281,62.5636 59.5,63.5C 59.1667,64.1667 58.8333,64.8333 58.5,65.5C 58.1583,66.3382 57.4916,66.6716 56.5,66.5C 56.6107,65.8826 56.944,65.3826 57.5,65C 55.6152,62.7776 53.4485,60.9443 51,59.5C 46.3079,64.6921 41.1412,69.3588 35.5,73.5C 35.3505,74.552 35.5172,75.552 36,76.5C 39.6667,80.1667 43.3333,83.8333 47,87.5C 47.1728,81.6518 47.6728,75.9851 48.5,70.5C 48.8314,100.005 48.4981,129.338 47.5,158.5C 47.5,150.167 47.5,141.833 47.5,133.5C 47.5,132.833 47.5,132.167 47.5,131.5C 47.5,129.5 47.5,127.5 47.5,125.5C 47.5,124.5 47.5,123.5 47.5,122.5C 47.5,114.5 47.5,106.5 47.5,98.5C 47.5,97.8333 47.5,97.1667 47.5,96.5C 47.6633,94.1432 47.4966,91.8098 47,89.5C 42.8333,85.3333 38.6667,81.1667 34.5,77C 32.7492,78.1754 30.7492,79.342 28.5,80.5C 28.6854,78.8042 29.5187,77.4709 31,76.5C 31.6667,75.5 31.6667,74.5 31,73.5C 26,68.5 21,63.5 16,58.5C 14.2962,60.3734 12.4628,62.0401 10.5,63.5C 10.5,59.5 10.5,55.5 10.5,51.5C 12.4628,52.9599 14.2962,54.6266 16,56.5C 21.5,51 27,45.5 32.5,40C 31.5291,38.5187 30.1958,37.6854 28.5,37.5C 29.5137,36.3263 30.847,35.6596 32.5,35.5C 34.0269,35.573 35.0269,34.9063 35.5,33.5C 37.0269,33.573 38.0269,32.9063 38.5,31.5C 39.5137,30.3263 40.847,29.6596 42.5,29.5 Z"/></g>
<g><path style="opacity:0.757" fill="#ffac9a" d="M 23.5,40.5 C 23.0269,41.9063 22.0269,42.573 20.5,42.5C 20.9731,41.0937 21.9731,40.427 23.5,40.5 Z"/></g>
<g><path style="opacity:1" fill="#fe502e" d="M 35.5,73.5 C 34.448,73.6495 33.448,73.4828 32.5,73C 27.3182,67.9853 22.3182,62.8186 17.5,57.5C 22.5,51.8333 27.8333,46.5 33.5,41.5C 39.1667,46.5 44.5,51.8333 49.5,57.5C 45.103,63.2197 40.4363,68.5531 35.5,73.5 Z"/></g>
<g><path style="opacity:1" fill="#fe5331" d="M 79.5,52.5 C 76.8646,53.8109 74.5313,55.4776 72.5,57.5C 72.1583,58.3382 71.4916,58.6716 70.5,58.5C 67.6689,59.0787 65.3356,60.412 63.5,62.5C 62.1667,62.8333 60.8333,63.1667 59.5,63.5C 56.7281,62.5636 54.7281,60.7303 53.5,58C 54.7988,55.23 56.4655,52.73 58.5,50.5C 61.9461,47.3347 65.6128,44.3347 69.5,41.5C 72.8774,45.2068 76.2107,48.8734 79.5,52.5 Z"/></g>
<g><path style="opacity:1" fill="#e04c2e" d="M 75.5,10.5 C 75.8333,10.5 76.1667,10.5 76.5,10.5C 79.4789,14.1456 82.8123,17.479 86.5,20.5C 90.1877,17.479 93.5211,14.1456 96.5,10.5C 96.8333,10.5 97.1667,10.5 97.5,10.5C 98.4916,10.3284 99.1583,10.6618 99.5,11.5C 99.5,11.8333 99.5,12.1667 99.5,12.5C 96.7318,14.0872 94.0652,15.9205 91.5,18C 90.624,19.586 89.624,21.086 88.5,22.5C 93.2449,28.2487 98.5782,33.2487 104.5,37.5C 103.71,38.4013 102.71,39.0679 101.5,39.5C 97.4325,33.9254 92.7659,28.7587 87.5,24C 81.6933,28.7951 76.0267,34.1284 70.5,40C 73.8333,43.3333 77.1667,46.6667 80.5,50C 81.7932,50.49 83.1266,50.6567 84.5,50.5C 84.1583,51.3382 83.4916,51.6716 82.5,51.5C 81.391,51.5569 80.391,51.8902 79.5,52.5C 76.2107,48.8734 72.8774,45.2068 69.5,41.5C 65.6128,44.3347 61.9461,47.3347 58.5,50.5C 60.8926,46.5977 63.8926,43.0977 67.5,40C 62.5749,34.568 57.2416,29.7347 51.5,25.5C 52.209,24.596 53.209,24.2627 54.5,24.5C 59.4646,28.9634 64.2979,33.6301 69,38.5C 74.5457,33.2898 79.7124,27.7898 84.5,22C 81.6292,16.6025 77.2958,13.4358 71.5,12.5C 72.5137,11.3263 73.847,10.6596 75.5,10.5 Z"/></g>
<g><path style="opacity:1" fill="#fe502e" d="M 125.5,60.5 C 125.5,58.5 125.5,56.5 125.5,54.5C 130.146,50.1885 134.813,45.8551 139.5,41.5C 145.167,46.5 150.5,51.8333 155.5,57.5C 150.5,63.1667 145.167,68.5 139.5,73.5C 134.813,69.1449 130.146,64.8115 125.5,60.5 Z"/></g>
<g><path style="opacity:0.294" fill="#ffc6ba" d="M 94.5,44.5 C 93.3406,46.2503 91.674,47.2503 89.5,47.5C 90.6594,45.7497 92.326,44.7497 94.5,44.5 Z"/></g>
<g><path style="opacity:0.553" fill="#ffb2a0" d="M 16.5,44.5 C 15.5144,46.4077 13.8477,47.4077 11.5,47.5C 12.6594,45.7497 14.326,44.7497 16.5,44.5 Z"/></g>
<g><path style="opacity:0.173" fill="#ffd6cd" d="M 89.5,47.5 C 88.3406,49.2503 86.674,50.2503 84.5,50.5C 85.6594,48.7497 87.326,47.7497 89.5,47.5 Z"/></g>
<g><path style="opacity:0.18" fill="#ffd1c8" d="M 82.5,51.5 C 79.5063,53.9998 76.173,55.9998 72.5,57.5C 74.5313,55.4776 76.8646,53.8109 79.5,52.5C 80.391,51.8902 81.391,51.5569 82.5,51.5 Z"/></g>
<g><path style="opacity:1" fill="#fe502e" d="M 28.5,80.5 C 24.8333,82.1667 22.1667,84.8333 20.5,88.5C 18.7708,89.1175 17.2708,90.1175 16,91.5C 14.2962,89.6266 12.4628,87.9599 10.5,86.5C 10.5,78.8333 10.5,71.1667 10.5,63.5C 12.4628,62.0401 14.2962,60.3734 16,58.5C 21,63.5 26,68.5 31,73.5C 31.6667,74.5 31.6667,75.5 31,76.5C 29.5187,77.4709 28.6854,78.8042 28.5,80.5 Z"/></g>
<g><path style="opacity:1" fill="#fe5231" d="M 56.5,66.5 C 54.326,66.7497 52.6594,67.7497 51.5,69.5C 51.1583,70.3382 50.4916,70.6716 49.5,70.5C 49.1667,70.5 48.8333,70.5 48.5,70.5C 47.6728,75.9851 47.1728,81.6518 47,87.5C 43.3333,83.8333 39.6667,80.1667 36,76.5C 35.5172,75.552 35.3505,74.552 35.5,73.5C 41.1412,69.3588 46.3079,64.6921 51,59.5C 53.4485,60.9443 55.6152,62.7776 57.5,65C 56.944,65.3826 56.6107,65.8826 56.5,66.5 Z"/></g>
<g><path style="opacity:0.22" fill="#ffcfc5" d="M 70.5,58.5 C 68.6644,60.588 66.3311,61.9213 63.5,62.5C 65.3356,60.412 67.6689,59.0787 70.5,58.5 Z"/></g>
<g><path style="opacity:1" fill="#fe502e" d="M 162.5,63.5 C 162.5,71.5 162.5,79.5 162.5,87.5C 161.038,88.4577 159.705,89.6244 158.5,91C 157.833,91.6667 157.167,91.6667 156.5,91C 151.121,85.9563 146.121,80.623 141.5,75C 146.306,69.2745 151.473,63.7745 157,58.5C 158.704,60.3734 160.537,62.0401 162.5,63.5 Z"/></g>
<g><path style="opacity:0.077" fill="#feede9" d="M 122.5,28.5 C 122.5,27.8333 122.833,27.5 123.5,27.5C 124.167,48.8333 124.833,70.1667 125.5,91.5C 125.5,91.8333 125.5,92.1667 125.5,92.5C 123.837,71.3529 122.837,50.0196 122.5,28.5 Z"/></g>
<g><path style="opacity:0.612" fill="#fd9d8a" d="M 123.5,25.5 C 125.674,25.7497 127.341,26.7497 128.5,28.5C 127.504,28.5858 126.671,28.2524 126,27.5C 125.5,35.8267 125.334,44.16 125.5,52.5C 125.5,53.1667 125.5,53.8333 125.5,54.5C 125.5,56.5 125.5,58.5 125.5,60.5C 125.5,61.1667 125.5,61.8333 125.5,62.5C 125.5,70.8333 125.5,79.1667 125.5,87.5C 125.5,88.1667 125.5,88.8333 125.5,89.5C 125.5,90.1667 125.5,90.8333 125.5,91.5C 124.833,70.1667 124.167,48.8333 123.5,27.5C 123.5,26.8333 123.5,26.1667 123.5,25.5 Z"/></g>
<g><path style="opacity:0.212" fill="#ffd1c7" d="M 63.5,62.5 C 62.3406,64.2503 60.674,65.2503 58.5,65.5C 58.8333,64.8333 59.1667,64.1667 59.5,63.5C 60.8333,63.1667 62.1667,62.8333 63.5,62.5 Z"/></g>
<g><path style="opacity:1" fill="#fe502e" d="M 125.5,62.5 C 129.964,66.4632 134.298,70.6298 138.5,75C 134.298,79.3702 129.964,83.5368 125.5,87.5C 125.5,79.1667 125.5,70.8333 125.5,62.5 Z"/></g>
<g><path style="opacity:0.231" fill="#fed1c8" d="M 156.5,44.5 C 158.84,45.086 161.007,46.086 163,47.5C 163.833,69.8408 163.666,92.1741 162.5,114.5C 161.478,114.145 160.811,113.478 160.5,112.5C 162.436,108.285 163.103,103.619 162.5,98.5C 162.5,94.8333 162.5,91.1667 162.5,87.5C 162.5,79.5 162.5,71.5 162.5,63.5C 162.5,59.5 162.5,55.5 162.5,51.5C 162.649,50.448 162.483,49.448 162,48.5C 159.833,47.5119 158,46.1786 156.5,44.5 Z"/></g>
<g><path style="opacity:0.212" fill="#fed4cc" d="M 11.5,47.5 C 10.7659,48.7079 10.4326,50.0413 10.5,51.5C 10.5,55.5 10.5,59.5 10.5,63.5C 10.5,71.1667 10.5,78.8333 10.5,86.5C 10.5,87.1667 10.5,87.8333 10.5,88.5C 10.5,103.167 10.5,117.833 10.5,132.5C 10.5,133.167 10.5,133.833 10.5,134.5C 10.4326,135.959 10.7659,137.292 11.5,138.5C 10.1673,123.682 9.50059,108.515 9.5,93C 9.50059,77.485 10.1673,62.3183 11.5,47.5 Z"/></g>
<g><path style="opacity:0.259" fill="#ffcbc0" d="M 56.5,66.5 C 55.3406,68.2503 53.674,69.2503 51.5,69.5C 52.6594,67.7497 54.326,66.7497 56.5,66.5 Z"/></g>
<g><path style="opacity:1" fill="#fc502e" d="M 47.5,96.5 C 43.369,100.13 39.369,103.963 35.5,108C 34.5,108.667 33.5,108.667 32.5,108C 31.2107,106.198 29.5441,105.031 27.5,104.5C 24.8333,102.5 22.5,100.167 20.5,97.5C 19.9524,95.6064 18.9524,93.9397 17.5,92.5C 18.8262,91.3578 19.8262,90.0245 20.5,88.5C 22.1667,84.8333 24.8333,82.1667 28.5,80.5C 30.7492,79.342 32.7492,78.1754 34.5,77C 38.6667,81.1667 42.8333,85.3333 47,89.5C 47.4966,91.8098 47.6633,94.1432 47.5,96.5 Z"/></g>
<g><path style="opacity:1" fill="#fe5331" d="M 142.5,102.5 C 142.027,101.094 141.027,100.427 139.5,100.5C 138.508,100.672 137.842,100.338 137.5,99.5C 137.027,98.0937 136.027,97.427 134.5,97.5C 132.847,97.3404 131.514,96.6737 130.5,95.5C 129.341,93.7497 127.674,92.7497 125.5,92.5C 125.5,92.1667 125.5,91.8333 125.5,91.5C 125.5,90.8333 125.5,90.1667 125.5,89.5C 130.227,85.792 134.56,81.6253 138.5,77C 139.167,76.3333 139.833,76.3333 140.5,77C 145.879,82.0437 150.879,87.377 155.5,93C 152.629,98.3975 148.296,101.564 142.5,102.5 Z"/></g>
<g><path style="opacity:1" fill="#de4c2e" d="M 128.5,28.5 C 130.153,28.6596 131.486,29.3263 132.5,30.5C 132.973,31.9063 133.973,32.573 135.5,32.5C 138.76,33.7738 141.76,35.4405 144.5,37.5C 141.924,37.7218 141.09,39.0551 142,41.5C 147,46.5 152,51.5 157,56.5C 158.704,54.6266 160.537,52.9599 162.5,51.5C 162.5,55.5 162.5,59.5 162.5,63.5C 160.537,62.0401 158.704,60.3734 157,58.5C 151.473,63.7745 146.306,69.2745 141.5,75C 146.121,80.623 151.121,85.9563 156.5,91C 157.167,91.6667 157.833,91.6667 158.5,91C 159.705,89.6244 161.038,88.4577 162.5,87.5C 162.5,91.1667 162.5,94.8333 162.5,98.5C 160.852,97.1902 159.186,95.8569 157.5,94.5C 153.812,97.521 150.479,100.854 147.5,104.5C 147.167,104.5 146.833,104.5 146.5,104.5C 144.847,104.34 143.514,103.674 142.5,102.5C 148.296,101.564 152.629,98.3975 155.5,93C 150.879,87.377 145.879,82.0437 140.5,77C 139.833,76.3333 139.167,76.3333 138.5,77C 134.56,81.6253 130.227,85.792 125.5,89.5C 125.5,88.8333 125.5,88.1667 125.5,87.5C 129.964,83.5368 134.298,79.3702 138.5,75C 134.298,70.6298 129.964,66.4632 125.5,62.5C 125.5,61.8333 125.5,61.1667 125.5,60.5C 130.146,64.8115 134.813,69.1449 139.5,73.5C 145.167,68.5 150.5,63.1667 155.5,57.5C 150.5,51.8333 145.167,46.5 139.5,41.5C 134.813,45.8551 130.146,50.1885 125.5,54.5C 125.5,53.8333 125.5,53.1667 125.5,52.5C 129.964,48.5368 134.298,44.3702 138.5,40C 134.584,36.5903 131.251,32.757 128.5,28.5 Z"/></g>
<g><path style="opacity:1" fill="#d54226" d="M 10.5,86.5 C 12.4628,87.9599 14.2962,89.6266 16,91.5C 17.2708,90.1175 18.7708,89.1175 20.5,88.5C 19.8262,90.0245 18.8262,91.3578 17.5,92.5C 18.9524,93.9397 19.9524,95.6064 20.5,97.5C 19.1851,96.5244 17.8518,95.5244 16.5,94.5C 15.549,95.3256 14.549,95.4922 13.5,95C 14.7109,91.9899 13.7109,89.8233 10.5,88.5C 10.5,87.8333 10.5,87.1667 10.5,86.5 Z"/></g>
<g><path style="opacity:0.204" fill="#ffd3c9" d="M 125.5,92.5 C 127.674,92.7497 129.341,93.7497 130.5,95.5C 128.326,95.2503 126.659,94.2503 125.5,92.5 Z"/></g>
<g><path style="opacity:1" fill="#fc502e" d="M 10.5,88.5 C 13.7109,89.8233 14.7109,91.9899 13.5,95C 14.549,95.4922 15.549,95.3256 16.5,94.5C 17.8518,95.5244 19.1851,96.5244 20.5,97.5C 22.5,100.167 24.8333,102.5 27.5,104.5C 28.7927,106.296 30.2927,107.963 32,109.5C 32.6667,110.167 32.6667,110.833 32,111.5C 27.1667,116.333 22.3333,121.167 17.5,126C 16.552,126.483 15.552,126.649 14.5,126.5C 14.3775,129.292 13.0442,131.292 10.5,132.5C 10.5,117.833 10.5,103.167 10.5,88.5 Z"/></g>
<g><path style="opacity:1" fill="#ff5836" d="M 162.5,98.5 C 163.103,103.619 162.436,108.285 160.5,112.5C 158.847,112.34 157.514,111.674 156.5,110.5C 155.341,108.75 153.674,107.75 151.5,107.5C 150.508,107.672 149.842,107.338 149.5,106.5C 149.167,105.5 148.5,104.833 147.5,104.5C 150.479,100.854 153.812,97.521 157.5,94.5C 159.186,95.8569 160.852,97.1902 162.5,98.5 Z"/></g>
<g><path style="opacity:0.155" fill="#fee1dd" d="M 48.5,70.5 C 48.8333,70.5 49.1667,70.5 49.5,70.5C 49.1686,99.6715 49.502,128.671 50.5,157.5C 49.8902,158.391 49.5569,159.391 49.5,160.5C 47.9731,160.573 46.9731,159.906 46.5,158.5C 46.8333,158.5 47.1667,158.5 47.5,158.5C 48.4981,129.338 48.8314,100.005 48.5,70.5 Z"/></g>
<g><path style="opacity:0.318" fill="#ffc7bc" d="M 134.5,97.5 C 136.027,97.427 137.027,98.0937 137.5,99.5C 135.973,99.573 134.973,98.9063 134.5,97.5 Z"/></g>
<g><path style="opacity:1" fill="#fe502e" d="M 47.5,98.5 C 47.5,106.5 47.5,114.5 47.5,122.5C 43.1877,118.854 39.1877,114.854 35.5,110.5C 39.1877,106.146 43.1877,102.146 47.5,98.5 Z"/></g>
<g><path style="opacity:0.224" fill="#ffd3ca" d="M 139.5,100.5 C 141.027,100.427 142.027,101.094 142.5,102.5C 140.973,102.573 139.973,101.906 139.5,100.5 Z"/></g>
<g><path style="opacity:0.251" fill="#ffd0c7" d="M 146.5,104.5 C 146.833,104.5 147.167,104.5 147.5,104.5C 148.5,104.833 149.167,105.5 149.5,106.5C 147.973,106.573 146.973,105.906 146.5,104.5 Z"/></g>
<g><path style="opacity:0.204" fill="#ffd3ca" d="M 151.5,107.5 C 153.674,107.75 155.341,108.75 156.5,110.5C 154.326,110.25 152.659,109.25 151.5,107.5 Z"/></g>
<g><path style="opacity:1" fill="#fd502e" d="M 47.5,125.5 C 47.5,127.5 47.5,129.5 47.5,131.5C 42.8536,135.812 38.1869,140.145 33.5,144.5C 27.8333,139.5 22.5,134.167 17.5,128.5C 22.8184,122.681 28.3184,117.015 34,111.5C 38.7033,116.035 43.2033,120.702 47.5,125.5 Z"/></g>
<g><path style="opacity:0.118" fill="#ffdbd4" d="M 126.5,115.5 C 124.784,115.629 123.117,115.962 121.5,116.5C 122.879,114.403 124.545,114.07 126.5,115.5 Z"/></g>
<g><path style="opacity:1" fill="#fd5635" d="M 126.5,115.5 C 126.973,116.906 127.973,117.573 129.5,117.5C 129.611,118.117 129.944,118.617 130.5,119C 127.952,121.885 125.118,124.385 122,126.5C 119.551,125.056 117.385,123.222 115.5,121C 116.056,120.617 116.389,120.117 116.5,119.5C 116.842,118.662 117.508,118.328 118.5,118.5C 120.027,118.573 121.027,117.906 121.5,116.5C 123.117,115.962 124.784,115.629 126.5,115.5 Z"/></g>
<g><path style="opacity:0.2" fill="#ffcfc5" d="M 126.5,115.5 C 128.027,115.427 129.027,116.094 129.5,117.5C 127.973,117.573 126.973,116.906 126.5,115.5 Z"/></g>
<g><path style="opacity:0.639" fill="#ffb9aa" d="M 121.5,116.5 C 121.027,117.906 120.027,118.573 118.5,118.5C 118.973,117.094 119.973,116.427 121.5,116.5 Z"/></g>
<g><path style="opacity:1" fill="#fe5533" d="M 133.5,119.5 C 134.71,119.932 135.71,120.599 136.5,121.5C 138.336,123.588 140.669,124.921 143.5,125.5C 144.492,125.328 145.158,125.662 145.5,126.5C 145.821,128.048 146.821,128.715 148.5,128.5C 150.153,128.66 151.486,129.326 152.5,130.5C 152.5,130.833 152.5,131.167 152.5,131.5C 148.49,136.692 143.823,140.859 138.5,144C 133.318,138.985 128.318,133.819 123.5,128.5C 126.251,124.743 129.585,121.743 133.5,119.5 Z"/></g>
<g><path style="opacity:1" fill="#db482a" d="M 47.5,96.5 C 47.5,97.1667 47.5,97.8333 47.5,98.5C 43.1877,102.146 39.1877,106.146 35.5,110.5C 39.1877,114.854 43.1877,118.854 47.5,122.5C 47.5,123.5 47.5,124.5 47.5,125.5C 43.2033,120.702 38.7033,116.035 34,111.5C 28.3184,117.015 22.8184,122.681 17.5,128.5C 22.5,134.167 27.8333,139.5 33.5,144.5C 38.1869,140.145 42.8536,135.812 47.5,131.5C 47.5,132.167 47.5,132.833 47.5,133.5C 43.5357,136.963 39.7023,140.63 36,144.5C 35.7308,147.28 36.8975,149.446 39.5,151C 38.8333,151.667 38.1667,151.667 37.5,151C 36.3147,149.647 34.9814,148.48 33.5,147.5C 31.4807,148.133 31.1474,149.133 32.5,150.5C 30.847,150.34 29.5137,149.674 28.5,148.5C 28.5,148.167 28.5,147.833 28.5,147.5C 30.1033,147.688 31.4366,147.188 32.5,146C 27,140.5 21.5,135 16,129.5C 14.2962,131.373 12.4628,133.04 10.5,134.5C 10.5,133.833 10.5,133.167 10.5,132.5C 13.0442,131.292 14.3775,129.292 14.5,126.5C 15.552,126.649 16.552,126.483 17.5,126C 22.3333,121.167 27.1667,116.333 32,111.5C 32.6667,110.833 32.6667,110.167 32,109.5C 30.2927,107.963 28.7927,106.296 27.5,104.5C 29.5441,105.031 31.2107,106.198 32.5,108C 33.5,108.667 34.5,108.667 35.5,108C 39.369,103.963 43.369,100.13 47.5,96.5 Z"/></g>
<g><path style="opacity:0.204" fill="#ffd4cc" d="M 114.5,120.5 C 114.167,121.167 113.833,121.833 113.5,122.5C 112.167,122.833 110.833,123.167 109.5,123.5C 110.659,121.75 112.326,120.75 114.5,120.5 Z"/></g>
<g><path style="opacity:1" fill="#fd5230" d="M 113.5,122.5 C 116.407,123.734 118.741,125.734 120.5,128.5C 115.473,134.708 109.807,139.875 103.5,144C 99.9626,140.631 96.6293,137.131 93.5,133.5C 94.8333,133.5 95.5,132.833 95.5,131.5C 98.3311,130.921 100.664,129.588 102.5,127.5C 102.842,126.662 103.508,126.328 104.5,126.5C 106.848,126.408 108.514,125.408 109.5,123.5C 110.833,123.167 112.167,122.833 113.5,122.5 Z"/></g>
<g><path style="opacity:0.333" fill="#ffc8bc" d="M 136.5,121.5 C 139.331,122.079 141.664,123.412 143.5,125.5C 140.669,124.921 138.336,123.588 136.5,121.5 Z"/></g>
<g><path style="opacity:0.573" fill="#ffb2a1" d="M 109.5,123.5 C 108.514,125.408 106.848,126.408 104.5,126.5C 105.659,124.75 107.326,123.75 109.5,123.5 Z"/></g>
<g><path style="opacity:0.98" fill="#ff9d85" d="M 145.5,126.5 C 146.71,126.932 147.71,127.599 148.5,128.5C 146.821,128.715 145.821,128.048 145.5,126.5 Z"/></g>
<g><path style="opacity:0.212" fill="#ffd3ca" d="M 102.5,127.5 C 100.664,129.588 98.3311,130.921 95.5,131.5C 97.3356,129.412 99.6689,128.079 102.5,127.5 Z"/></g>
<g><path style="opacity:1" fill="#ff5735" d="M 28.5,147.5 C 27.609,146.89 26.609,146.557 25.5,146.5C 24.5084,146.672 23.8417,146.338 23.5,145.5C 23.0269,144.094 22.0269,143.427 20.5,143.5C 18.847,143.34 17.5137,142.674 16.5,141.5C 15.3406,139.75 13.674,138.75 11.5,138.5C 10.7659,137.292 10.4326,135.959 10.5,134.5C 12.4628,133.04 14.2962,131.373 16,129.5C 21.5,135 27,140.5 32.5,146C 31.4366,147.188 30.1033,147.688 28.5,147.5 Z"/></g>
<g><path style="opacity:0.2" fill="#fbcec5" d="M 152.5,131.5 C 152.5,131.167 152.5,130.833 152.5,130.5C 154.027,130.427 155.027,131.094 155.5,132.5C 154.833,132.5 154.167,132.5 153.5,132.5C 153.5,131.833 153.167,131.5 152.5,131.5 Z"/></g>
<g><path style="opacity:0.51" fill="#fcb7a7" d="M 95.5,131.5 C 95.5,132.833 94.8333,133.5 93.5,133.5C 92.8333,133.5 92.5,133.833 92.5,134.5C 91.8333,134.5 91.1667,134.5 90.5,134.5C 91.6594,132.75 93.326,131.75 95.5,131.5 Z"/></g>
<g><path style="opacity:1" fill="#fe5230" d="M 153.5,132.5 C 154.167,132.5 154.833,132.5 155.5,132.5C 157.062,132.733 158.395,133.4 159.5,134.5C 159.821,136.048 160.821,136.715 162.5,136.5C 162.5,143.5 162.5,150.5 162.5,157.5C 161.094,157.973 160.427,158.973 160.5,160.5C 158.983,160.511 157.816,161.177 157,162.5C 151.454,157.29 146.288,151.79 141.5,146C 145.324,141.343 149.324,136.843 153.5,132.5 Z"/></g>
<g><path style="opacity:1" fill="#fc5634" d="M 47.5,133.5 C 47.5,141.833 47.5,150.167 47.5,158.5C 47.1667,158.5 46.8333,158.5 46.5,158.5C 44.1815,158.008 42.1815,157.008 40.5,155.5C 40.0269,154.094 39.0269,153.427 37.5,153.5C 36.5084,153.672 35.8417,153.338 35.5,152.5C 35.0269,151.094 34.0269,150.427 32.5,150.5C 31.1474,149.133 31.4807,148.133 33.5,147.5C 34.9814,148.48 36.3147,149.647 37.5,151C 38.1667,151.667 38.8333,151.667 39.5,151C 36.8975,149.446 35.7308,147.28 36,144.5C 39.7023,140.63 43.5357,136.963 47.5,133.5 Z"/></g>
<g><path style="opacity:1" fill="#fe5331" d="M 90.5,134.5 C 91.1667,134.5 91.8333,134.5 92.5,134.5C 96.0106,138.177 99.3439,142.011 102.5,146C 98.213,151.289 93.5463,156.289 88.5,161C 87.5,161.667 86.5,161.667 85.5,161C 80.6301,156.298 75.9634,151.465 71.5,146.5C 72.6935,145.728 73.6935,144.728 74.5,143.5C 75.5137,142.326 76.847,141.66 78.5,141.5C 80.8477,141.408 82.5144,140.408 83.5,138.5C 85.674,138.25 87.3406,137.25 88.5,135.5C 88.8417,134.662 89.5084,134.328 90.5,134.5 Z"/></g>
<g><path style="opacity:0.953" fill="#ffa791" d="M 159.5,134.5 C 160.71,134.932 161.71,135.599 162.5,136.5C 160.821,136.715 159.821,136.048 159.5,134.5 Z"/></g>
<g><path style="opacity:0.188" fill="#ffd7cf" d="M 88.5,135.5 C 87.3406,137.25 85.674,138.25 83.5,138.5C 84.6594,136.75 86.326,135.75 88.5,135.5 Z"/></g>
<g><path style="opacity:0.212" fill="#ffd1c8" d="M 11.5,138.5 C 13.674,138.75 15.3406,139.75 16.5,141.5C 14.326,141.25 12.6594,140.25 11.5,138.5 Z"/></g>
<g><path style="opacity:0.569" fill="#ffb3a2" d="M 83.5,138.5 C 82.5144,140.408 80.8477,141.408 78.5,141.5C 79.6594,139.75 81.326,138.75 83.5,138.5 Z"/></g>
<g><path style="opacity:1" fill="#dd4c2f" d="M 129.5,117.5 C 131.153,117.66 132.486,118.326 133.5,119.5C 129.585,121.743 126.251,124.743 123.5,128.5C 128.318,133.819 133.318,138.985 138.5,144C 143.823,140.859 148.49,136.692 152.5,131.5C 153.167,131.5 153.5,131.833 153.5,132.5C 149.324,136.843 145.324,141.343 141.5,146C 146.288,151.79 151.454,157.29 157,162.5C 157.816,161.177 158.983,160.511 160.5,160.5C 158.683,163.15 156.683,165.65 154.5,168C 153.833,168.667 153.167,168.667 152.5,168C 154.332,166.511 155.165,164.678 155,162.5C 149.985,157.318 144.819,152.318 139.5,147.5C 135.682,150.818 132.015,154.318 128.5,158C 129.252,158.671 129.586,159.504 129.5,160.5C 128.167,160.167 126.833,159.833 125.5,159.5C 129.63,154.869 133.963,150.369 138.5,146C 133,140.5 127.5,135 122,129.5C 116.5,135 111,140.5 105.5,146C 110.167,150.667 114.833,155.333 119.5,160C 120.793,160.49 122.127,160.657 123.5,160.5C 123.158,161.338 122.492,161.672 121.5,161.5C 120.391,161.557 119.391,161.89 118.5,162.5C 114.767,157.26 110.434,152.426 105.5,148C 99.1932,152.125 93.5265,157.292 88.5,163.5C 91.6695,168.018 95.6695,171.351 100.5,173.5C 99.3406,175.25 97.674,176.25 95.5,176.5C 96.5009,175.211 96.3342,173.878 95,172.5C 91.9746,170.468 89.308,168.135 87,165.5C 83.0109,168.322 79.5109,171.656 76.5,175.5C 76.1667,175.5 75.8333,175.5 75.5,175.5C 75.1667,174.833 74.8333,174.167 74.5,173.5C 78.6131,171.222 81.9464,168.055 84.5,164C 80.4772,158.8 76.1439,153.8 71.5,149C 70.552,148.517 69.552,148.351 68.5,148.5C 68.8333,147.833 69.1667,147.167 69.5,146.5C 70.1667,146.5 70.8333,146.5 71.5,146.5C 75.9634,151.465 80.6301,156.298 85.5,161C 86.5,161.667 87.5,161.667 88.5,161C 93.5463,156.289 98.213,151.289 102.5,146C 99.3439,142.011 96.0106,138.177 92.5,134.5C 92.5,133.833 92.8333,133.5 93.5,133.5C 96.6293,137.131 99.9626,140.631 103.5,144C 109.807,139.875 115.473,134.708 120.5,128.5C 118.741,125.734 116.407,123.734 113.5,122.5C 113.833,121.833 114.167,121.167 114.5,120.5C 114.842,119.662 115.508,119.328 116.5,119.5C 116.389,120.117 116.056,120.617 115.5,121C 117.385,123.222 119.551,125.056 122,126.5C 125.118,124.385 127.952,121.885 130.5,119C 129.944,118.617 129.611,118.117 129.5,117.5 Z"/></g>
<g><path style="opacity:1" fill="#fe512f" d="M 125.5,159.5 C 125.158,160.338 124.492,160.672 123.5,160.5C 122.127,160.657 120.793,160.49 119.5,160C 114.833,155.333 110.167,150.667 105.5,146C 111,140.5 116.5,135 122,129.5C 127.5,135 133,140.5 138.5,146C 133.963,150.369 129.63,154.869 125.5,159.5 Z"/></g>
<g><path style="opacity:0.357" fill="#ffc3b6" d="M 20.5,143.5 C 22.0269,143.427 23.0269,144.094 23.5,145.5C 21.9731,145.573 20.9731,144.906 20.5,143.5 Z"/></g>
<g><path style="opacity:0.153" fill="#ffdcd6" d="M 74.5,143.5 C 73.6935,144.728 72.6935,145.728 71.5,146.5C 70.8333,146.5 70.1667,146.5 69.5,146.5C 70.6594,144.75 72.326,143.75 74.5,143.5 Z"/></g>
<g><path style="opacity:0.243" fill="#ffcfc6" d="M 25.5,146.5 C 26.609,146.557 27.609,146.89 28.5,147.5C 28.5,147.833 28.5,148.167 28.5,148.5C 26.9731,148.573 25.9731,147.906 25.5,146.5 Z"/></g>
<g><path style="opacity:0.62" fill="#ffbbad" d="M 69.5,146.5 C 69.1667,147.167 68.8333,147.833 68.5,148.5C 67.8333,148.5 67.1667,148.5 66.5,148.5C 66.9731,147.094 67.9731,146.427 69.5,146.5 Z"/></g>
<g><path style="opacity:1" fill="#fe5634" d="M 160.5,160.5 C 160.427,158.973 161.094,157.973 162.5,157.5C 163.128,164.913 162.461,171.913 160.5,178.5C 160.027,177.094 159.027,176.427 157.5,176.5C 156.508,176.672 155.842,176.338 155.5,175.5C 155.027,174.094 154.027,173.427 152.5,173.5C 150.181,173.008 148.181,172.008 146.5,170.5C 146.027,169.094 145.027,168.427 143.5,168.5C 142.508,168.672 141.842,168.338 141.5,167.5C 141.027,166.094 140.027,165.427 138.5,165.5C 136.847,165.34 135.514,164.674 134.5,163.5C 134.027,162.094 133.027,161.427 131.5,161.5C 130.508,161.672 129.842,161.338 129.5,160.5C 129.586,159.504 129.252,158.671 128.5,158C 132.015,154.318 135.682,150.818 139.5,147.5C 144.819,152.318 149.985,157.318 155,162.5C 155.165,164.678 154.332,166.511 152.5,168C 153.167,168.667 153.833,168.667 154.5,168C 156.683,165.65 158.683,163.15 160.5,160.5 Z"/></g>
<g><path style="opacity:1" fill="#fe5533" d="M 66.5,148.5 C 67.1667,148.5 67.8333,148.5 68.5,148.5C 69.552,148.351 70.552,148.517 71.5,149C 76.1439,153.8 80.4772,158.8 84.5,164C 81.9464,168.055 78.6131,171.222 74.5,173.5C 73.8333,173.5 73.1667,173.5 72.5,173.5C 70.1815,173.008 68.1815,172.008 66.5,170.5C 66.0269,169.094 65.0269,168.427 63.5,168.5C 62.5084,168.672 61.8417,168.338 61.5,167.5C 61.0269,166.094 60.0269,165.427 58.5,165.5C 56.847,165.34 55.5137,164.674 54.5,163.5C 54.5,163.167 54.5,162.833 54.5,162.5C 58.8451,158.153 62.8451,153.486 66.5,148.5 Z"/></g>
<g><path style="opacity:1" fill="#ff5634" d="M 118.5,162.5 C 117.5,162.833 116.833,163.5 116.5,164.5C 114.664,166.588 112.331,167.921 109.5,168.5C 107.326,168.75 105.659,169.75 104.5,171.5C 103.486,172.674 102.153,173.34 100.5,173.5C 95.6695,171.351 91.6695,168.018 88.5,163.5C 93.5265,157.292 99.1932,152.125 105.5,148C 110.434,152.426 114.767,157.26 118.5,162.5 Z"/></g>
<g><path style="opacity:0.286" fill="#ffcbc0" d="M 32.5,150.5 C 34.0269,150.427 35.0269,151.094 35.5,152.5C 33.9731,152.573 32.9731,151.906 32.5,150.5 Z"/></g>
<g><path style="opacity:0.169" fill="#ffdad2" d="M 62.5,150.5 C 61.3406,152.25 59.674,153.25 57.5,153.5C 58.6594,151.75 60.326,150.75 62.5,150.5 Z"/></g>
<g><path style="opacity:1" fill="#ed5b3c" d="M 66.5,148.5 C 62.8451,153.486 58.8451,158.153 54.5,162.5C 53.609,161.89 52.609,161.557 51.5,161.5C 50.5084,161.672 49.8417,161.338 49.5,160.5C 49.5569,159.391 49.8902,158.391 50.5,157.5C 50.8417,156.662 51.5084,156.328 52.5,156.5C 54.8477,156.408 56.5144,155.408 57.5,153.5C 59.674,153.25 61.3406,152.25 62.5,150.5C 63.5137,149.326 64.847,148.66 66.5,148.5 Z"/></g>
<g><path style="opacity:0.231" fill="#ffd2c9" d="M 37.5,153.5 C 39.0269,153.427 40.0269,154.094 40.5,155.5C 38.9731,155.573 37.9731,154.906 37.5,153.5 Z"/></g>
<g><path style="opacity:0.561" fill="#ffb3a2" d="M 57.5,153.5 C 56.5144,155.408 54.8477,156.408 52.5,156.5C 53.6594,154.75 55.326,153.75 57.5,153.5 Z"/></g>
<g><path style="opacity:0.278" fill="#facac0" d="M 51.5,161.5 C 52.609,161.557 53.609,161.89 54.5,162.5C 54.5,162.833 54.5,163.167 54.5,163.5C 52.9731,163.573 51.9731,162.906 51.5,161.5 Z"/></g>
<g><path style="opacity:0.294" fill="#fec4b8" d="M 121.5,161.5 C 120.341,163.25 118.674,164.25 116.5,164.5C 116.833,163.5 117.5,162.833 118.5,162.5C 119.391,161.89 120.391,161.557 121.5,161.5 Z"/></g>
<g><path style="opacity:0.282" fill="#ffcbc1" d="M 131.5,161.5 C 133.027,161.427 134.027,162.094 134.5,163.5C 132.973,163.573 131.973,162.906 131.5,161.5 Z"/></g>
<g><path style="opacity:1" fill="#ff5c3a" d="M 95.5,176.5 C 93.326,176.75 91.6594,177.75 90.5,179.5C 89.5039,180.665 88.1705,181.332 86.5,181.5C 83.4982,180.666 80.8315,179.333 78.5,177.5C 78.1667,176.5 77.5,175.833 76.5,175.5C 79.5109,171.656 83.0109,168.322 87,165.5C 89.308,168.135 91.9746,170.468 95,172.5C 96.3342,173.878 96.5009,175.211 95.5,176.5 Z"/></g>
<g><path style="opacity:0.306" fill="#ffcbc0" d="M 58.5,165.5 C 60.0269,165.427 61.0269,166.094 61.5,167.5C 59.9731,167.573 58.9731,166.906 58.5,165.5 Z"/></g>
<g><path style="opacity:0.294" fill="#ffcbc0" d="M 138.5,165.5 C 140.027,165.427 141.027,166.094 141.5,167.5C 139.973,167.573 138.973,166.906 138.5,165.5 Z"/></g>
<g><path style="opacity:0.267" fill="#ffcfc5" d="M 63.5,168.5 C 65.0269,168.427 66.0269,169.094 66.5,170.5C 64.9731,170.573 63.9731,169.906 63.5,168.5 Z"/></g>
<g><path style="opacity:0.275" fill="#ffc9bd" d="M 109.5,168.5 C 108.341,170.25 106.674,171.25 104.5,171.5C 105.659,169.75 107.326,168.75 109.5,168.5 Z"/></g>
<g><path style="opacity:0.247" fill="#ffd2c8" d="M 143.5,168.5 C 145.027,168.427 146.027,169.094 146.5,170.5C 144.973,170.573 143.973,169.906 143.5,168.5 Z"/></g>
<g><path style="opacity:0.23" fill="#fed2c9" d="M 162.5,136.5 C 163.496,150.657 163.829,164.99 163.5,179.5C 162.209,179.737 161.209,179.404 160.5,178.5C 162.461,171.913 163.128,164.913 162.5,157.5C 162.5,150.5 162.5,143.5 162.5,136.5 Z"/></g>
<g><path style="opacity:0.396" fill="#f9bcaf" d="M 72.5,173.5 C 73.1667,173.5 73.8333,173.5 74.5,173.5C 74.8333,174.167 75.1667,174.833 75.5,175.5C 73.9731,175.573 72.9731,174.906 72.5,173.5 Z"/></g>
<g><path style="opacity:0.353" fill="#ffc2b5" d="M 152.5,173.5 C 154.027,173.427 155.027,174.094 155.5,175.5C 153.973,175.573 152.973,174.906 152.5,173.5 Z"/></g>
<g><path style="opacity:0.231" fill="#ffd4cb" d="M 75.5,175.5 C 75.8333,175.5 76.1667,175.5 76.5,175.5C 77.5,175.833 78.1667,176.5 78.5,177.5C 76.9731,177.573 75.9731,176.906 75.5,175.5 Z"/></g>
<g><path style="opacity:0.306" fill="#ffc3b6" d="M 95.5,176.5 C 94.3406,178.25 92.674,179.25 90.5,179.5C 91.6594,177.75 93.326,176.75 95.5,176.5 Z"/></g>
<g><path style="opacity:0.282" fill="#ffcabf" d="M 157.5,176.5 C 159.027,176.427 160.027,177.094 160.5,178.5C 158.973,178.573 157.973,177.906 157.5,176.5 Z"/></g>
</svg>
