<svg xmlns="http://www.w3.org/2000/svg" viewBox="0 0 750 500"><g id="freepik--background-complete--inject-35"><path d="M602.9,159.82h64.24s-5.68-10.34-22.22-8.83c-15.79,1.44-16.59-5.09-24.62-5.89S605.57,150.45,602.9,159.82Z" style="fill:#f5f5f5"></path><path d="M353.33,90H464.25s-9.81-17.85-38.36-15.25C398.62,77.25,397.23,66,383.37,64.6S358,73.85,353.33,90Z" style="fill:#ebebeb"></path><circle cx="563.95" cy="90.7" r="11" transform="translate(82.72 398.4) rotate(-41.73)" style="fill:#ebebeb"></circle><path d="M563.86,112.15a46.78,46.78,0,0,1-.22-6.38,46.66,46.66,0,0,1,.22-6.38,46.66,46.66,0,0,1,.22,6.38A46.78,46.78,0,0,1,563.86,112.15Z" style="fill:#ebebeb"></path><path d="M584.73,90.7a100.46,100.46,0,0,1-13.29,0,100.46,100.46,0,0,1,13.29,0Z" style="fill:#ebebeb"></path><path d="M564,72.08a39.33,39.33,0,0,1,.22,5.85,39.14,39.14,0,0,1-.22,5.84,39.14,39.14,0,0,1-.22-5.84A39.33,39.33,0,0,1,564,72.08Z" style="fill:#ebebeb"></path><path d="M558.07,91.49a113.07,113.07,0,0,1-14.1,0,113.07,113.07,0,0,1,14.1,0Z" style="fill:#ebebeb"></path><path d="M559,87.18a33.43,33.43,0,0,1-4-3.65,32.41,32.41,0,0,1-3.65-4,33.43,33.43,0,0,1,4,3.65A33.43,33.43,0,0,1,559,87.18Z" style="fill:#ebebeb"></path><path d="M575.65,79.7a19.92,19.92,0,0,1-2.79,3.15,20.09,20.09,0,0,1-3.12,2.85,20.65,20.65,0,0,1,2.8-3.16A20.53,20.53,0,0,1,575.65,79.7Z" style="fill:#ebebeb"></path><path d="M576.44,103.3a31.9,31.9,0,0,1-3.85-3.53,30,30,0,0,1-3.53-3.85,30,30,0,0,1,3.85,3.53A30.91,30.91,0,0,1,576.44,103.3Z" style="fill:#ebebeb"></path><path d="M561.55,95.1a54.81,54.81,0,0,1-4.72,5.05,57.2,57.2,0,0,1-5,4.73,52.2,52.2,0,0,1,4.71-5A56.62,56.62,0,0,1,561.55,95.1Z" style="fill:#ebebeb"></path><path d="M159.34,176.06h54s-4.78-8.69-18.69-7.43c-13.28,1.21-14-4.27-20.71-4.95S161.59,168.18,159.34,176.06Z" style="fill:#ebebeb"></path><path d="M589.43,444.08s-.07.09-.23.23l-.71.62c-.33.26-.75.55-1.25.9a18,18,0,0,1-1.85,1,20.55,20.55,0,0,1-5.52,1.67,31.49,31.49,0,0,1-7.63.22,60.28,60.28,0,0,1-9.1-1.63c-3.23-.77-6.65-1.7-10.31-2.33a35.54,35.54,0,0,0-11.58-.21,90,90,0,0,0-12.18,2.88,87.73,87.73,0,0,1-12.26,2.86,36.4,36.4,0,0,1-11.73-.29,103.61,103.61,0,0,1-10.3-2.52c-3.19-.92-6.16-1.75-8.91-2.37a47.75,47.75,0,0,0-7.49-1.1c-1.12,0-2.16,0-3.11.05a24.91,24.91,0,0,0-2.59.31l-2,.44-1.45.5-.89.3a2.15,2.15,0,0,1-.32.09,1.34,1.34,0,0,1,.3-.14l.87-.35c.39-.15.87-.35,1.45-.55l2-.49a24.59,24.59,0,0,1,2.61-.36c1-.12,2-.05,3.14-.09a46.65,46.65,0,0,1,7.56,1c2.76.6,5.75,1.41,8.94,2.31a100.12,100.12,0,0,0,10.28,2.46,36,36,0,0,0,11.57.27,88.49,88.49,0,0,0,12.19-2.86,88.87,88.87,0,0,1,12.25-2.89,35.87,35.87,0,0,1,11.73.25c3.69.64,7.11,1.59,10.33,2.38a60.7,60.7,0,0,0,9,1.69,31.69,31.69,0,0,0,7.56-.15,21.11,21.11,0,0,0,5.47-1.56A19,19,0,0,0,589.43,444.08Z" style="fill:#e0e0e0"></path><path d="M211.63,460.13a1.52,1.52,0,0,1-.23.22l-.71.63q-.49.38-1.26.9a18.94,18.94,0,0,1-7.36,2.68,31.49,31.49,0,0,1-7.63.22,60.36,60.36,0,0,1-9.1-1.64c-3.23-.77-6.65-1.7-10.32-2.32a35.47,35.47,0,0,0-11.57-.22,91.5,91.5,0,0,0-12.18,2.88A87.79,87.79,0,0,1,139,466.35a36.39,36.39,0,0,1-11.73-.3,100.9,100.9,0,0,1-10.3-2.52c-3.19-.91-6.16-1.75-8.91-2.36a45.46,45.46,0,0,0-7.5-1.1c-1.11,0-2.15-.06-3.1,0a24.42,24.42,0,0,0-2.59.32l-2,.44-1.45.49-.9.31a1.31,1.31,0,0,1-.31.08l.29-.13.88-.35c.39-.15.87-.35,1.44-.55l2-.49a22.25,22.25,0,0,1,2.61-.36c1-.12,2-.06,3.14-.09a44.53,44.53,0,0,1,7.56,1c2.76.59,5.75,1.41,8.94,2.31s6.61,1.83,10.27,2.46a36.07,36.07,0,0,0,11.58.26A88.49,88.49,0,0,0,151.13,463a88.82,88.82,0,0,1,12.25-2.88,35.81,35.81,0,0,1,11.72.24c3.7.65,7.12,1.6,10.34,2.38a60.46,60.46,0,0,0,9,1.69,31.63,31.63,0,0,0,7.55-.14,21.06,21.06,0,0,0,5.48-1.57A19.13,19.13,0,0,0,211.63,460.13Z" style="fill:#e0e0e0"></path><path d="M384.59,448.79s-.6-.55-1.84-1.32a14.13,14.13,0,0,0-5.81-1.85,28.24,28.24,0,0,0-9.07.68c-3.37.69-7.07,1.78-11.12,2s-7.82-.93-11.16-1.74a41.53,41.53,0,0,0-4.79-1,18.86,18.86,0,0,0-4.23-.06,11.74,11.74,0,0,0-5.72,2,16.66,16.66,0,0,0-1.68,1.51,6.52,6.52,0,0,1,1.56-1.67,11.52,11.52,0,0,1,5.8-2.21,18.85,18.85,0,0,1,4.32,0,39,39,0,0,1,4.86.93c3.36.8,7.05,1.93,11,1.69s7.64-1.27,11-1.94a27.91,27.91,0,0,1,9.21-.58,13.66,13.66,0,0,1,5.87,2.05,8.39,8.39,0,0,1,1.32,1.06A2.94,2.94,0,0,1,384.59,448.79Z" style="fill:#e0e0e0"></path><rect x="597.68" y="249.9" width="1.96" height="71.13" style="fill:#e0e0e0"></rect><rect x="602.38" y="249.9" width="1.96" height="71.13" style="fill:#e0e0e0"></rect><rect x="620.3" y="249.9" width="1.96" height="71.13" style="fill:#e0e0e0"></rect><rect x="579.29" y="249.9" width="1.96" height="71.13" style="fill:#e0e0e0"></rect><rect x="579.29" y="249.9" width="20.34" height="2.01" style="fill:#e0e0e0"></rect><rect x="507.14" y="254.74" width="138.96" height="2.32" style="fill:#e0e0e0"></rect><rect x="580.27" y="285.46" width="41.99" height="2.17" style="fill:#e0e0e0"></rect><rect x="611.34" y="255.29" width="1.74" height="33.28" transform="translate(233.93 -280.93) rotate(31.67)" style="fill:#e0e0e0"></rect><rect x="588.84" y="254.46" width="1.74" height="33.28" transform="translate(230.18 -269.26) rotate(31.67)" style="fill:#e0e0e0"></rect><rect x="600.56" y="244.9" width="31.16" height="9.85" style="fill:#e0e0e0"></rect><polygon points="539.19 256.2 588.31 218.6 605.8 247.83 606.46 247.44 588.52 217.48 588.18 217.74 538.73 255.6 539.19 256.2" style="fill:#e0e0e0"></polygon><path d="M578.82,256.25l9.57-39.73,11.3,41.3Zm.95-.69L598.68,257l-10.24-37.42Z" style="fill:#e0e0e0"></path><rect x="478.51" y="319.5" width="211.23" height="12.94" style="fill:#e0e0e0"></rect><path d="M532.41,293H553v26.91H532.41Zm19.8.76h-19v25.39h19Z" style="fill:#e0e0e0"></path><rect x="552.59" y="293.35" width="16.46" height="27.68" style="fill:#e0e0e0"></rect><rect x="429.67" y="179.46" width="3.42" height="124.31" transform="translate(862.76 483.23) rotate(180)" style="fill:#e0e0e0"></rect><rect x="421.45" y="179.46" width="3.42" height="124.31" transform="translate(846.31 483.23) rotate(180)" style="fill:#e0e0e0"></rect><rect x="390.13" y="179.46" width="3.42" height="124.31" transform="translate(783.68 483.23) rotate(180)" style="fill:#e0e0e0"></rect><rect x="461.8" y="179.46" width="3.42" height="124.31" transform="translate(927.02 483.23) rotate(180)" style="fill:#e0e0e0"></rect><rect x="429.67" y="179.46" width="35.55" height="3.51" transform="translate(894.89 362.43) rotate(180)" style="fill:#e0e0e0"></rect><rect x="348.46" y="187.93" width="242.85" height="4.05" transform="translate(939.77 379.9) rotate(180)" style="fill:#e0e0e0"></rect><rect x="390.13" y="241.62" width="73.38" height="3.78" transform="translate(853.64 487.02) rotate(180)" style="fill:#e0e0e0"></rect><rect x="406.17" y="188.88" width="3.05" height="58.16" transform="translate(869.12 189.41) rotate(148.33)" style="fill:#e0e0e0"></rect><rect x="445.5" y="187.44" width="3.05" height="58.16" transform="matrix(-0.85, 0.53, -0.53, -0.85, 941.15, 166.08)" style="fill:#e0e0e0"></rect><rect x="373.6" y="170.72" width="54.46" height="17.21" transform="translate(801.66 358.64) rotate(180)" style="fill:#e0e0e0"></rect><polygon points="535.3 190.48 449.47 124.76 418.88 175.84 417.75 175.16 449.09 122.81 449.68 123.26 536.11 189.43 535.3 190.48" style="fill:#e0e0e0"></polygon><path d="M429.57,193.3l19.75-72.17,16.73,69.42Zm19.67-66.86-17.9,65.4,33.05-2.49Z" style="fill:#e0e0e0"></path></g><g id="freepik--Sea--inject-35"><path d="M184.62,419.87s-.71-.36-2-1a15.21,15.21,0,0,0-5.67-1.73,19.37,19.37,0,0,0-4.11.32c-1.48.23-3,.51-4.69.89-3.27.7-6.89,1.71-10.84,1.78s-7.58-1.11-10.83-1.88a36.28,36.28,0,0,0-4.67-.89,18.8,18.8,0,0,0-4.11,0,11.63,11.63,0,0,0-5.54,2,19.08,19.08,0,0,0-1.63,1.46,2,2,0,0,1,.33-.46,6.46,6.46,0,0,1,1.18-1.16,11.29,11.29,0,0,1,5.61-2.23,18.28,18.28,0,0,1,4.21-.07,34.53,34.53,0,0,1,4.73.85c3.28.76,6.85,1.9,10.71,1.83s7.46-1.05,10.75-1.73c1.65-.36,3.24-.63,4.73-.85a19.13,19.13,0,0,1,4.19-.26,14.64,14.64,0,0,1,5.74,1.92c.63.35,1.1.63,1.42.84A2,2,0,0,1,184.62,419.87Z" style="fill:#263238"></path><path d="M677.38,380.73s-.6-.56-1.84-1.32a13.92,13.92,0,0,0-5.8-1.86,28,28,0,0,0-9.07.69c-3.38.68-7.07,1.77-11.12,2s-7.83-.93-11.16-1.75a41.25,41.25,0,0,0-4.8-1,19.43,19.43,0,0,0-4.23-.05,11.6,11.6,0,0,0-5.71,2A20.89,20.89,0,0,0,622,381a6.61,6.61,0,0,1,1.57-1.66,11.38,11.38,0,0,1,5.79-2.22,18.89,18.89,0,0,1,4.32,0,40.79,40.79,0,0,1,4.86.92c3.36.8,7,1.93,11,1.7s7.65-1.28,11.05-1.94a27.39,27.39,0,0,1,9.21-.58,13.48,13.48,0,0,1,5.87,2.05,8.74,8.74,0,0,1,1.33,1.05C677.26,380.57,677.4,380.71,677.38,380.73Z" style="fill:#263238"></path><path d="M123.46,390.57c0,.05-.6-.55-1.84-1.32a14.08,14.08,0,0,0-5.8-1.85,28.22,28.22,0,0,0-9.07.68c-3.38.69-7.08,1.78-11.12,2s-7.83-.93-11.17-1.74a41.11,41.11,0,0,0-4.79-1,18.86,18.86,0,0,0-4.23-.06,11.74,11.74,0,0,0-5.72,2A18.26,18.26,0,0,0,68,390.82a6.52,6.52,0,0,1,1.56-1.67,11.52,11.52,0,0,1,5.8-2.21,18.85,18.85,0,0,1,4.32,0,39,39,0,0,1,4.86.93c3.36.8,7,1.93,11,1.69s7.64-1.27,11.05-1.94a27.91,27.91,0,0,1,9.21-.58,13.61,13.61,0,0,1,5.87,2.05,8.56,8.56,0,0,1,1.33,1.06A3.15,3.15,0,0,1,123.46,390.57Z" style="fill:#263238"></path><path d="M634.61,422.07a5.35,5.35,0,0,1-.85-.22c-.56-.15-1.37-.41-2.41-.74-2.09-.66-5.07-1.76-8.84-2.81a41.84,41.84,0,0,0-6.25-1.25,31.16,31.16,0,0,0-7.28,0c-5.13.56-10.64,2.13-16.6,2.89a31.35,31.35,0,0,1-8.76,0c-2.81-.38-5.48-.95-8-1.48-5.05-1.09-9.67-1.85-13.57-1.65a22.54,22.54,0,0,0-8.92,2.06,21.48,21.48,0,0,0-2.17,1.26,5.81,5.81,0,0,1-.74.49,12.77,12.77,0,0,1,2.82-1.93,22,22,0,0,1,9-2.25c4-.25,8.63.49,13.69,1.55s10.69,2.35,16.62,1.43c5.9-.76,11.42-2.31,16.6-2.86a31.45,31.45,0,0,1,7.39,0,43,43,0,0,1,6.3,1.32c3.77,1.11,6.73,2.26,8.8,3l2.38.83A4.31,4.31,0,0,1,634.61,422.07Z" style="fill:#263238"></path></g><g id="freepik--Crane--inject-35"><rect x="65.13" y="313.11" width="386.22" height="23.66" style="fill:#263238"></rect><path d="M201.09,313.61h-37.2v-48.8h37.2Zm-36.2-1h35.2v-46.8h-35.2Z" style="fill:#263238"></path><rect x="200.59" y="265.31" width="30.1" height="50.61" style="fill:#263238"></rect><rect x="283.03" y="131.07" width="3.58" height="185.39" style="fill:#263238"></rect><rect x="291.63" y="131.07" width="3.58" height="185.39" style="fill:#263238"></rect><rect x="324.4" y="131.07" width="3.58" height="185.39" style="fill:#263238"></rect><rect x="249.41" y="131.07" width="3.58" height="185.39" style="fill:#263238"></rect><rect x="249.41" y="131.07" width="37.19" height="3.68" style="fill:#263238"></rect><rect x="117.49" y="139.93" width="254.08" height="4.23" style="fill:#263238"></rect><rect x="251.2" y="196.1" width="76.78" height="3.96" style="fill:#263238"></rect><rect x="308" y="140.92" width="3.19" height="60.85" transform="translate(136.08 -137.04) rotate(31.67)" style="fill:#263238"></rect><rect x="266.86" y="139.42" width="3.19" height="60.85" transform="translate(129.15 -115.66) rotate(31.67)" style="fill:#263238"></rect><rect x="288.29" y="121.92" width="56.98" height="18.01" style="fill:#263238"></rect><polygon points="175.97 142.44 175.36 141.65 266.23 72.08 298.91 126.67 298.06 127.19 265.95 73.56 175.97 142.44" style="fill:#263238"></polygon><path d="M286.46,145.34l-37.67-2.84,17.27-71.69ZM250,141.59l35.08,2.64-19-69.4Z" style="fill:#263238"></path><polygon points="100.3 212.45 103.33 196.01 122.05 139.77 123 140.09 104.29 196.26 101.5 211.43 163.69 210.34 139.34 140.09 140.29 139.76 165.09 211.31 100.3 212.45" style="fill:#263238"></polygon><rect x="84.82" y="197.05" width="24.31" height="29.53" style="fill:#263238"></rect><rect x="109.14" y="197.05" width="67.98" height="29.53" style="fill:#263238"></rect><path d="M97.49,226.58c-.15,0-.26-6.56-.26-14.64s.11-14.64.26-14.64.26,6.55.26,14.64S97.63,226.58,97.49,226.58Z" style="fill:#455a64"></path><path d="M109.14,226.58c-.14,0-.26-6.56-.26-14.64s.12-14.64.26-14.64.26,6.55.26,14.64S109.28,226.58,109.14,226.58Z" style="fill:#455a64"></path><path d="M173.3,223.21s0-.15,0-.41,0-.68,0-1.18c0-1.05,0-2.55-.05-4.48,0-3.9-.05-9.52-.09-16.53l.17.18-61.26.08c-.24.24.31-.31.26-.25h0v5.84c0,1.94,0,3.85,0,5.74v11L112,223l43.83.12,12.78.07,3.44,0,.9,0a1.92,1.92,0,0,1,.31,0H173l-.87,0-3.38,0-12.73.07-44,.12h-.26v-17c0-1,0-1.94,0-2.92v-2.92h0l.27-.27,61.26.09h.18v.17c0,7-.07,12.71-.1,16.64,0,1.91,0,3.4,0,4.44,0,.48,0,.86,0,1.14A1.59,1.59,0,0,1,173.3,223.21Z" style="fill:#455a64"></path><path d="M116.77,223.21c-.15,0-.26-5.06-.26-11.3s.11-11.3.26-11.3.26,5.06.26,11.3S116.91,223.21,116.77,223.21Z" style="fill:#455a64"></path><path d="M122.53,223.21c-.15,0-.26-5.06-.26-11.3s.11-11.3.26-11.3.26,5.06.26,11.3S122.67,223.21,122.53,223.21Z" style="fill:#455a64"></path><path d="M128.29,223.21c-.14,0-.26-5.06-.26-11.3s.12-11.3.26-11.3.26,5.06.26,11.3S128.43,223.21,128.29,223.21Z" style="fill:#455a64"></path><path d="M134.05,223.21c-.14,0-.26-5.06-.26-11.3s.12-11.3.26-11.3.26,5.06.26,11.3S134.2,223.21,134.05,223.21Z" style="fill:#455a64"></path><path d="M139.81,223.21c-.14,0-.26-5.06-.26-11.3s.12-11.3.26-11.3.26,5.06.26,11.3S140,223.21,139.81,223.21Z" style="fill:#455a64"></path><path d="M145.58,223.21c-.15,0-.27-5.06-.27-11.3s.12-11.3.27-11.3.26,5.06.26,11.3S145.72,223.21,145.58,223.21Z" style="fill:#455a64"></path><path d="M151.34,223.21c-.15,0-.26-5.06-.26-11.3s.11-11.3.26-11.3.26,5.06.26,11.3S151.48,223.21,151.34,223.21Z" style="fill:#455a64"></path><path d="M157.1,223.21c-.15,0-.26-5.06-.26-11.3s.11-11.3.26-11.3.26,5.06.26,11.3S157.24,223.21,157.1,223.21Z" style="fill:#455a64"></path><path d="M162.86,223.21c-.14,0-.26-5.06-.26-11.3s.12-11.3.26-11.3.26,5.06.26,11.3S163,223.21,162.86,223.21Z" style="fill:#455a64"></path><path d="M168.62,223.21c-.14,0-.26-5.06-.26-11.3s.12-11.3.26-11.3.26,5.06.26,11.3S168.77,223.21,168.62,223.21Z" style="fill:#455a64"></path></g><g id="freepik--Container--inject-35"><polygon points="515.22 288.74 505.24 288.74 505.24 271.7 512.29 271.7 515.22 288.74" style="fill:#A62121"></polygon><rect x="279.87" y="297.21" width="24.31" height="29.53" style="fill:#A62121"></rect><rect x="279.87" y="297.21" width="24.31" height="29.53" style="fill:#fff;opacity:0.4"></rect><rect x="304.19" y="297.21" width="67.98" height="29.53" style="fill:#A62121"></rect><rect x="304.19" y="297.21" width="67.98" height="29.53" style="fill:#fff;opacity:0.2"></rect><path d="M292.53,326.74c-.14,0-.26-6.56-.26-14.64s.12-14.63.26-14.63.26,6.55.26,14.63S292.68,326.74,292.53,326.74Z" style="fill:#263238"></path><path d="M368.35,323.37a3.65,3.65,0,0,1,0-.41c0-.29,0-.68,0-1.17,0-1.05,0-2.56,0-4.49,0-3.9-.06-9.52-.1-16.52l.18.17-61.26.09c-.24.23.31-.32.25-.26h0v11.59c0,3.78,0,7.46,0,11l-.25-.25,43.83.11,12.79.07,3.44,0h.9l.31,0h-.28l-.87,0-3.38,0-12.74.07-44,.12h-.25v-.25c0-3.54,0-7.22,0-11V300.78h0c-.06.05.5-.5.27-.26l61.26.08h.18v.18c0,7-.08,12.7-.1,16.63,0,1.91,0,3.4,0,4.44,0,.49,0,.86,0,1.14A2.61,2.61,0,0,1,368.35,323.37Z" style="fill:#263238"></path><path d="M311.81,323.37c-.14,0-.26-5.06-.26-11.3s.12-11.29.26-11.29.26,5.05.26,11.29S312,323.37,311.81,323.37Z" style="fill:#263238"></path><path d="M317.58,323.37c-.15,0-.27-5.06-.27-11.3s.12-11.29.27-11.29.26,5.05.26,11.29S317.72,323.37,317.58,323.37Z" style="fill:#263238"></path><path d="M323.34,323.37c-.15,0-.26-5.06-.26-11.3s.11-11.29.26-11.29.26,5.05.26,11.29S323.48,323.37,323.34,323.37Z" style="fill:#263238"></path><path d="M329.1,323.37c-.15,0-.26-5.06-.26-11.3s.11-11.29.26-11.29.26,5.05.26,11.29S329.24,323.37,329.1,323.37Z" style="fill:#263238"></path><path d="M334.86,323.37c-.14,0-.26-5.06-.26-11.3s.12-11.29.26-11.29.26,5.05.26,11.29S335,323.37,334.86,323.37Z" style="fill:#263238"></path><path d="M340.62,323.37c-.14,0-.26-5.06-.26-11.3s.12-11.29.26-11.29.26,5.05.26,11.29S340.77,323.37,340.62,323.37Z" style="fill:#263238"></path><path d="M346.38,323.37c-.14,0-.26-5.06-.26-11.3s.12-11.29.26-11.29.26,5.05.26,11.29S346.53,323.37,346.38,323.37Z" style="fill:#263238"></path><path d="M352.15,323.37c-.15,0-.26-5.06-.26-11.3s.11-11.29.26-11.29.26,5.05.26,11.29S352.29,323.37,352.15,323.37Z" style="fill:#263238"></path><path d="M357.91,323.37c-.15,0-.26-5.06-.26-11.3s.11-11.29.26-11.29.26,5.05.26,11.29S358.05,323.37,357.91,323.37Z" style="fill:#263238"></path><path d="M363.67,323.37c-.14,0-.26-5.06-.26-11.3s.12-11.29.26-11.29.26,5.05.26,11.29S363.81,323.37,363.67,323.37Z" style="fill:#263238"></path><rect x="360.2" y="238.32" width="24.31" height="29.53" style="fill:#A62121"></rect><rect x="360.2" y="238.32" width="24.31" height="29.53" style="fill:#fff;opacity:0.4"></rect><rect x="384.51" y="238.32" width="67.98" height="29.53" style="fill:#A62121"></rect><rect x="384.51" y="238.32" width="67.98" height="29.53" style="fill:#fff;opacity:0.2"></rect><path d="M372.86,267.85c-.14,0-.26-6.56-.26-14.64s.12-14.64.26-14.64.26,6.56.26,14.64S373,267.85,372.86,267.85Z" style="fill:#263238"></path><path d="M448.68,264.48a2,2,0,0,1,0-.41c0-.29,0-.68,0-1.18,0-1,0-2.55,0-4.48,0-3.9-.06-9.52-.1-16.52l.18.17-61.27.09.26-.26h0v11.58c0,3.78,0,7.46,0,11l-.25-.25,43.83.11,12.79.07,3.44,0,.89,0,.32,0h-.29l-.86,0-3.39,0-12.73.07-44,.12h-.25v-.25c0-3.54,0-7.22,0-11V241.9h0c-.06.05.49-.5.26-.27l61.27.09h.17v.18c0,7-.07,12.7-.09,16.63,0,1.91,0,3.4-.05,4.44,0,.48,0,.86,0,1.14S448.68,264.48,448.68,264.48Z" style="fill:#263238"></path><path d="M392.14,264.48c-.14,0-.26-5.06-.26-11.3s.12-11.29.26-11.29.26,5.05.26,11.29S392.28,264.48,392.14,264.48Z" style="fill:#263238"></path><path d="M397.9,264.48c-.14,0-.26-5.06-.26-11.3s.12-11.29.26-11.29.26,5.05.26,11.29S398,264.48,397.9,264.48Z" style="fill:#263238"></path><path d="M403.66,264.48c-.14,0-.26-5.06-.26-11.3s.12-11.29.26-11.29.26,5.05.26,11.29S403.81,264.48,403.66,264.48Z" style="fill:#263238"></path><path d="M409.42,264.48c-.14,0-.26-5.06-.26-11.3s.12-11.29.26-11.29.27,5.05.27,11.29S409.57,264.48,409.42,264.48Z" style="fill:#263238"></path><path d="M415.19,264.48c-.15,0-.26-5.06-.26-11.3s.11-11.29.26-11.29.26,5.05.26,11.29S415.33,264.48,415.19,264.48Z" style="fill:#263238"></path><path d="M421,264.48c-.15,0-.26-5.06-.26-11.3s.11-11.29.26-11.29.26,5.05.26,11.29S421.09,264.48,421,264.48Z" style="fill:#263238"></path><path d="M426.71,264.48c-.14,0-.26-5.06-.26-11.3s.12-11.29.26-11.29.26,5.05.26,11.29S426.85,264.48,426.71,264.48Z" style="fill:#263238"></path><path d="M432.47,264.48c-.14,0-.26-5.06-.26-11.3s.12-11.29.26-11.29.26,5.05.26,11.29S432.62,264.48,432.47,264.48Z" style="fill:#263238"></path><path d="M438.23,264.48c-.14,0-.26-5.06-.26-11.3s.12-11.29.26-11.29.26,5.05.26,11.29S438.38,264.48,438.23,264.48Z" style="fill:#263238"></path><path d="M444,264.48c-.15,0-.27-5.06-.27-11.3s.12-11.29.27-11.29.26,5.05.26,11.29S444.14,264.48,444,264.48Z" style="fill:#263238"></path><rect x="150.91" y="312.15" width="24.31" height="29.53" style="fill:#A62121"></rect><rect x="150.91" y="312.15" width="24.31" height="29.53" style="fill:#fff;opacity:0.4"></rect><rect x="175.22" y="312.15" width="67.98" height="29.53" style="fill:#A62121"></rect><rect x="175.22" y="312.15" width="67.98" height="29.53" style="fill:#fff;opacity:0.2"></rect><path d="M163.57,341.68c-.14,0-.26-6.55-.26-14.64s.12-14.63.26-14.63.26,6.55.26,14.63S163.71,341.68,163.57,341.68Z" style="fill:#263238"></path><path d="M239.39,338.31a2,2,0,0,1,0-.41c0-.29,0-.68,0-1.17,0-1.05,0-2.56,0-4.49,0-3.9-.06-9.52-.1-16.52l.18.17-61.27.09.26-.26h0v11.59c0,3.78,0,7.46,0,11l-.25-.25,43.83.12,12.79.07,3.44,0h.89l.32,0h-.29l-.86,0-3.39,0-12.73.07-44,.12h-.25v-.25c0-3.54,0-7.22,0-11V315.72h0c-.06,0,.49-.5.26-.26l61.27.08h.17v.18c0,7-.07,12.7-.09,16.63,0,1.91,0,3.4-.05,4.44,0,.49,0,.86,0,1.14S239.39,338.31,239.39,338.31Z" style="fill:#263238"></path><path d="M182.85,338.31c-.15,0-.26-5.06-.26-11.3s.11-11.29.26-11.29.26,5,.26,11.29S183,338.31,182.85,338.31Z" style="fill:#263238"></path><path d="M188.61,338.31c-.14,0-.26-5.06-.26-11.3s.12-11.29.26-11.29.26,5,.26,11.29S188.75,338.31,188.61,338.31Z" style="fill:#263238"></path><path d="M194.37,338.31c-.14,0-.26-5.06-.26-11.3s.12-11.29.26-11.29.26,5,.26,11.29S194.52,338.31,194.37,338.31Z" style="fill:#263238"></path><path d="M200.13,338.31c-.14,0-.26-5.06-.26-11.3s.12-11.29.26-11.29.26,5,.26,11.29S200.28,338.31,200.13,338.31Z" style="fill:#263238"></path><path d="M205.9,338.31c-.15,0-.26-5.06-.26-11.3s.11-11.29.26-11.29.26,5,.26,11.29S206,338.31,205.9,338.31Z" style="fill:#263238"></path><path d="M211.66,338.31c-.15,0-.26-5.06-.26-11.3s.11-11.29.26-11.29.26,5,.26,11.29S211.8,338.31,211.66,338.31Z" style="fill:#263238"></path><path d="M217.42,338.31c-.14,0-.26-5.06-.26-11.3s.12-11.29.26-11.29.26,5,.26,11.29S217.56,338.31,217.42,338.31Z" style="fill:#263238"></path><path d="M223.18,338.31c-.14,0-.26-5.06-.26-11.3s.12-11.29.26-11.29.26,5,.26,11.29S223.32,338.31,223.18,338.31Z" style="fill:#263238"></path><path d="M228.94,338.31c-.14,0-.26-5.06-.26-11.3s.12-11.29.26-11.29.26,5,.26,11.29S229.09,338.31,228.94,338.31Z" style="fill:#263238"></path><path d="M234.7,338.31c-.14,0-.26-5.06-.26-11.3s.12-11.29.26-11.29.26,5,.26,11.29S234.85,338.31,234.7,338.31Z" style="fill:#263238"></path><rect x="307.65" y="268.01" width="24.31" height="29.53" style="fill:#263238"></rect><rect x="331.97" y="268.01" width="67.98" height="29.53" style="fill:#263238"></rect><path d="M320.31,297.53c-.14,0-.26-6.55-.26-14.63s.12-14.64.26-14.64.26,6.55.26,14.64S320.46,297.53,320.31,297.53Z" style="fill:#455a64"></path><path d="M332,297.53c-.15,0-.26-6.55-.26-14.63s.11-14.64.26-14.64.26,6.55.26,14.64S332.11,297.53,332,297.53Z" style="fill:#455a64"></path><path d="M396.13,294.16a3.24,3.24,0,0,1,0-.41c0-.29,0-.67,0-1.17,0-1.05,0-2.55,0-4.49,0-3.9-.06-9.52-.1-16.52l.18.18-61.26.08c-.24.23.31-.32.25-.26h0v11.57c0,3.78,0,7.46,0,11l-.25-.25,43.83.12,12.79.07,3.44,0,.89,0h.32l-.28,0H395l-3.39,0-12.73.07-44,.11h-.25v-.25c0-3.54,0-7.22,0-11V271.59h0l.27-.26,61.26.08h.18v.18c0,7.05-.08,12.71-.1,16.63,0,1.92,0,3.41,0,4.45,0,.48,0,.86,0,1.14A2.37,2.37,0,0,1,396.13,294.16Z" style="fill:#455a64"></path><path d="M339.59,294.16c-.14,0-.26-5.06-.26-11.29s.12-11.3.26-11.3.26,5.06.26,11.3S339.74,294.16,339.59,294.16Z" style="fill:#455a64"></path><path d="M345.35,294.16c-.14,0-.26-5.06-.26-11.29s.12-11.3.26-11.3.26,5.06.26,11.3S345.5,294.16,345.35,294.16Z" style="fill:#455a64"></path><path d="M351.12,294.16c-.15,0-.26-5.06-.26-11.29s.11-11.3.26-11.3.26,5.06.26,11.3S351.26,294.16,351.12,294.16Z" style="fill:#455a64"></path><path d="M356.88,294.16c-.15,0-.26-5.06-.26-11.29s.11-11.3.26-11.3.26,5.06.26,11.3S357,294.16,356.88,294.16Z" style="fill:#455a64"></path><path d="M362.64,294.16c-.14,0-.26-5.06-.26-11.29s.12-11.3.26-11.3.26,5.06.26,11.3S362.78,294.16,362.64,294.16Z" style="fill:#455a64"></path><path d="M368.4,294.16c-.14,0-.26-5.06-.26-11.29s.12-11.3.26-11.3.26,5.06.26,11.3S368.55,294.16,368.4,294.16Z" style="fill:#455a64"></path><path d="M374.16,294.16c-.14,0-.26-5.06-.26-11.29s.12-11.3.26-11.3.26,5.06.26,11.3S374.31,294.16,374.16,294.16Z" style="fill:#455a64"></path><path d="M379.92,294.16c-.14,0-.26-5.06-.26-11.29s.12-11.3.26-11.3.27,5.06.27,11.3S380.07,294.16,379.92,294.16Z" style="fill:#455a64"></path><path d="M385.69,294.16c-.15,0-.26-5.06-.26-11.29s.11-11.3.26-11.3.26,5.06.26,11.3S385.83,294.16,385.69,294.16Z" style="fill:#455a64"></path><path d="M391.45,294.16c-.15,0-.26-5.06-.26-11.29s.11-11.3.26-11.3.26,5.06.26,11.3S391.59,294.16,391.45,294.16Z" style="fill:#455a64"></path><rect x="248.84" y="327.69" width="24.31" height="29.53" style="fill:#A62121"></rect><rect x="273.16" y="327.69" width="67.98" height="29.53" style="fill:#A62121"></rect><rect x="273.16" y="327.69" width="67.98" height="29.53" style="opacity:0.4"></rect><path d="M261.51,357.22c-.15,0-.26-6.55-.26-14.64s.11-14.63.26-14.63.26,6.55.26,14.63S261.65,357.22,261.51,357.22Z" style="fill:#263238"></path><path d="M337.32,353.85s0-.15,0-.41,0-.68,0-1.17c0-1,0-2.56-.05-4.49,0-3.9-.05-9.52-.09-16.52l.17.17-61.26.09.26-.26h0v2.94c0,1,0,1.95,0,2.91v16.74l-.25-.25,43.83.12,12.78.07,3.44,0h.9a1.92,1.92,0,0,1,.31,0H337l-.87,0-3.38,0-12.73.07-44,.12h-.26v-17c0-1,0-1.94,0-2.91v-2.94h0c-.05.05.5-.5.27-.26l61.26.08h.18v.18c0,7-.07,12.7-.1,16.63,0,1.91,0,3.4,0,4.44,0,.49,0,.86,0,1.14A1.52,1.52,0,0,1,337.32,353.85Z" style="fill:#263238"></path><path d="M280.79,353.85c-.15,0-.26-5.06-.26-11.3s.11-11.29.26-11.29.26,5.05.26,11.29S280.93,353.85,280.79,353.85Z" style="fill:#263238"></path><path d="M286.55,353.85c-.15,0-.26-5.06-.26-11.3s.11-11.29.26-11.29.26,5.05.26,11.29S286.69,353.85,286.55,353.85Z" style="fill:#263238"></path><path d="M292.31,353.85c-.14,0-.26-5.06-.26-11.3s.12-11.29.26-11.29.26,5.05.26,11.29S292.45,353.85,292.31,353.85Z" style="fill:#263238"></path><path d="M298.07,353.85c-.14,0-.26-5.06-.26-11.3s.12-11.29.26-11.29.26,5.05.26,11.29S298.22,353.85,298.07,353.85Z" style="fill:#263238"></path><path d="M303.83,353.85c-.14,0-.26-5.06-.26-11.3s.12-11.29.26-11.29.26,5.05.26,11.29S304,353.85,303.83,353.85Z" style="fill:#263238"></path><path d="M309.59,353.85c-.14,0-.26-5.06-.26-11.3s.12-11.29.26-11.29.27,5.05.27,11.29S309.74,353.85,309.59,353.85Z" style="fill:#263238"></path><path d="M315.36,353.85c-.15,0-.26-5.06-.26-11.3s.11-11.29.26-11.29.26,5.05.26,11.29S315.5,353.85,315.36,353.85Z" style="fill:#263238"></path><path d="M321.12,353.85c-.15,0-.26-5.06-.26-11.3s.11-11.29.26-11.29.26,5.05.26,11.29S321.26,353.85,321.12,353.85Z" style="fill:#263238"></path><path d="M326.88,353.85c-.14,0-.26-5.06-.26-11.3s.12-11.29.26-11.29.26,5.05.26,11.29S327,353.85,326.88,353.85Z" style="fill:#263238"></path><path d="M332.64,353.85c-.14,0-.26-5.06-.26-11.3s.12-11.29.26-11.29.26,5.05.26,11.29S332.79,353.85,332.64,353.85Z" style="fill:#263238"></path><rect x="326.54" y="326.73" width="24.31" height="29.53" style="fill:#263238"></rect><rect x="350.85" y="326.73" width="67.98" height="29.53" style="fill:#263238"></rect><path d="M339.2,356.26c-.15,0-.26-6.56-.26-14.64s.11-14.64.26-14.64.26,6.55.26,14.64S339.34,356.26,339.2,356.26Z" style="fill:#455a64"></path><path d="M350.85,356.26c-.14,0-.26-6.56-.26-14.64s.12-14.64.26-14.64.26,6.55.26,14.64S351,356.26,350.85,356.26Z" style="fill:#455a64"></path><path d="M415,352.89s0-.15,0-.41,0-.68,0-1.18c0-1.05,0-2.55-.05-4.48,0-3.9-.05-9.52-.09-16.53l.17.18-61.26.09.26-.26h0v5.84c0,1.94,0,3.85,0,5.74v11l-.25-.25,43.83.11,12.78.07,3.44,0,.9,0,.31,0h-.28l-.87,0-3.38,0-12.73.07-44,.12h-.25V330.31h0c-.06.05.49-.5.26-.27l61.26.09h.18v.17c0,7-.07,12.71-.1,16.64,0,1.91,0,3.4,0,4.44,0,.48,0,.86,0,1.14A1.59,1.59,0,0,1,415,352.89Z" style="fill:#455a64"></path><path d="M358.48,352.89c-.15,0-.26-5.06-.26-11.3s.11-11.3.26-11.3.26,5.06.26,11.3S358.62,352.89,358.48,352.89Z" style="fill:#455a64"></path><path d="M364.24,352.89c-.15,0-.26-5.06-.26-11.3s.11-11.3.26-11.3.26,5.06.26,11.3S364.38,352.89,364.24,352.89Z" style="fill:#455a64"></path><path d="M370,352.89c-.14,0-.26-5.06-.26-11.3s.12-11.3.26-11.3.26,5.06.26,11.3S370.14,352.89,370,352.89Z" style="fill:#455a64"></path><path d="M375.76,352.89c-.14,0-.26-5.06-.26-11.3s.12-11.3.26-11.3.26,5.06.26,11.3S375.91,352.89,375.76,352.89Z" style="fill:#455a64"></path><path d="M381.52,352.89c-.14,0-.26-5.06-.26-11.3s.12-11.3.26-11.3.26,5.06.26,11.3S381.67,352.89,381.52,352.89Z" style="fill:#455a64"></path><path d="M387.29,352.89c-.15,0-.26-5.06-.26-11.3s.11-11.3.26-11.3.26,5.06.26,11.3S387.43,352.89,387.29,352.89Z" style="fill:#455a64"></path><path d="M393.05,352.89c-.15,0-.26-5.06-.26-11.3s.11-11.3.26-11.3.26,5.06.26,11.3S393.19,352.89,393.05,352.89Z" style="fill:#455a64"></path><path d="M398.81,352.89c-.14,0-.26-5.06-.26-11.3s.12-11.3.26-11.3.26,5.06.26,11.3S399,352.89,398.81,352.89Z" style="fill:#455a64"></path><path d="M404.57,352.89c-.14,0-.26-5.06-.26-11.3s.12-11.3.26-11.3.26,5.06.26,11.3S404.71,352.89,404.57,352.89Z" style="fill:#455a64"></path><path d="M410.33,352.89c-.14,0-.26-5.06-.26-11.3s.12-11.3.26-11.3.26,5.06.26,11.3S410.48,352.89,410.33,352.89Z" style="fill:#455a64"></path><rect x="345.65" y="268.13" width="24.31" height="29.53" style="fill:#455a64"></rect><rect x="369.96" y="268.13" width="67.98" height="29.53" style="fill:#455a64"></rect><path d="M358.31,297.66c-.14,0-.26-6.56-.26-14.64s.12-14.64.26-14.64.26,6.56.26,14.64S358.46,297.66,358.31,297.66Z" style="fill:#263238"></path><path d="M370,297.66c-.14,0-.26-6.56-.26-14.64s.12-14.64.26-14.64.26,6.56.26,14.64S370.11,297.66,370,297.66Z" style="fill:#263238"></path><path d="M434.13,294.29a3.65,3.65,0,0,1,0-.41c0-.29,0-.68,0-1.18,0-1,0-2.55,0-4.48,0-3.9-.06-9.52-.1-16.52l.18.17-61.27.09.26-.26h0v11.59c0,3.78,0,7.46,0,11l-.25-.25,43.83.11,12.79.07,3.44,0h.89l.32,0h-.29l-.86,0-3.39,0-12.73.07-44,.12h-.25v-.25c0-3.54,0-7.22,0-11V271.7h0l.26-.26,61.27.08h.18v.18c-.05,7-.08,12.7-.1,16.63,0,1.91,0,3.4,0,4.44,0,.49,0,.86,0,1.14S434.13,294.29,434.13,294.29Z" style="fill:#263238"></path><path d="M377.59,294.29c-.14,0-.26-5.06-.26-11.3s.12-11.29.26-11.29.26,5.05.26,11.29S377.73,294.29,377.59,294.29Z" style="fill:#263238"></path><path d="M383.35,294.29c-.14,0-.26-5.06-.26-11.3s.12-11.29.26-11.29.26,5.05.26,11.29S383.5,294.29,383.35,294.29Z" style="fill:#263238"></path><path d="M389.11,294.29c-.14,0-.26-5.06-.26-11.3s.12-11.29.26-11.29.26,5.05.26,11.29S389.26,294.29,389.11,294.29Z" style="fill:#263238"></path><path d="M394.88,294.29c-.15,0-.26-5.06-.26-11.3s.11-11.29.26-11.29.26,5.05.26,11.29S395,294.29,394.88,294.29Z" style="fill:#263238"></path><path d="M400.64,294.29c-.15,0-.26-5.06-.26-11.3s.11-11.29.26-11.29.26,5.05.26,11.29S400.78,294.29,400.64,294.29Z" style="fill:#263238"></path><path d="M406.4,294.29c-.14,0-.26-5.06-.26-11.3s.12-11.29.26-11.29.26,5.05.26,11.29S406.54,294.29,406.4,294.29Z" style="fill:#263238"></path><path d="M412.16,294.29c-.14,0-.26-5.06-.26-11.3s.12-11.29.26-11.29.26,5.05.26,11.29S412.31,294.29,412.16,294.29Z" style="fill:#263238"></path><path d="M417.92,294.29c-.14,0-.26-5.06-.26-11.3s.12-11.29.26-11.29.26,5.05.26,11.29S418.07,294.29,417.92,294.29Z" style="fill:#263238"></path><path d="M423.69,294.29c-.15,0-.27-5.06-.27-11.3s.12-11.29.27-11.29.26,5.05.26,11.29S423.83,294.29,423.69,294.29Z" style="fill:#263238"></path><path d="M429.45,294.29c-.15,0-.26-5.06-.26-11.3s.11-11.29.26-11.29.26,5.05.26,11.29S429.59,294.29,429.45,294.29Z" style="fill:#263238"></path><rect x="309.26" y="297.21" width="24.31" height="29.53" style="fill:#A62121"></rect><rect x="333.58" y="297.21" width="67.98" height="29.53" style="fill:#A62121"></rect><rect x="333.58" y="297.21" width="67.98" height="29.53" style="opacity:0.4"></rect><path d="M321.92,326.74c-.14,0-.26-6.56-.26-14.64s.12-14.63.26-14.63.27,6.55.27,14.63S322.07,326.74,321.92,326.74Z" style="fill:#263238"></path><path d="M397.74,323.37s0-.15,0-.41,0-.68,0-1.17c0-1.05,0-2.56,0-4.49,0-3.9-.06-9.52-.1-16.52l.18.17-61.26.09c-.24.23.31-.32.25-.26h0v11.59c0,3.78,0,7.46,0,11l-.25-.25,43.83.11,12.79.07,3.44,0h.9l.31,0h-.28l-.87,0-3.38,0-12.74.07-44,.12h-.25V312.37c0-1.89,0-3.8,0-5.74v-5.85h0c0,.05.5-.5.27-.26l61.26.08h.18v.18c0,7-.08,12.7-.1,16.63,0,1.91,0,3.4,0,4.44,0,.49,0,.86,0,1.14A2.61,2.61,0,0,1,397.74,323.37Z" style="fill:#263238"></path><path d="M341.2,323.37c-.14,0-.26-5.06-.26-11.3s.12-11.29.26-11.29.26,5.05.26,11.29S341.35,323.37,341.2,323.37Z" style="fill:#263238"></path><path d="M347,323.37c-.15,0-.26-5.06-.26-11.3s.11-11.29.26-11.29.26,5.05.26,11.29S347.11,323.37,347,323.37Z" style="fill:#263238"></path><path d="M352.73,323.37c-.15,0-.26-5.06-.26-11.3s.11-11.29.26-11.29.26,5.05.26,11.29S352.87,323.37,352.73,323.37Z" style="fill:#263238"></path><path d="M358.49,323.37c-.14,0-.26-5.06-.26-11.3s.12-11.29.26-11.29.26,5.05.26,11.29S358.63,323.37,358.49,323.37Z" style="fill:#263238"></path><path d="M364.25,323.37c-.14,0-.26-5.06-.26-11.3s.12-11.29.26-11.29.26,5.05.26,11.29S364.39,323.37,364.25,323.37Z" style="fill:#263238"></path><path d="M370,323.37c-.14,0-.26-5.06-.26-11.3s.12-11.29.26-11.29.26,5.05.26,11.29S370.16,323.37,370,323.37Z" style="fill:#263238"></path><path d="M375.77,323.37c-.14,0-.26-5.06-.26-11.3s.12-11.29.26-11.29.27,5.05.27,11.29S375.92,323.37,375.77,323.37Z" style="fill:#263238"></path><path d="M381.54,323.37c-.15,0-.26-5.06-.26-11.3s.11-11.29.26-11.29.26,5.05.26,11.29S381.68,323.37,381.54,323.37Z" style="fill:#263238"></path><path d="M387.3,323.37c-.15,0-.26-5.06-.26-11.3s.11-11.29.26-11.29.26,5.05.26,11.29S387.44,323.37,387.3,323.37Z" style="fill:#263238"></path><path d="M393.06,323.37c-.14,0-.26-5.06-.26-11.3s.12-11.29.26-11.29.26,5.05.26,11.29S393.2,323.37,393.06,323.37Z" style="fill:#263238"></path><rect x="377.59" y="297.09" width="24.31" height="29.53" style="fill:#455a64"></rect><rect x="401.9" y="297.09" width="67.98" height="29.53" style="fill:#455a64"></rect><path d="M390.25,326.61c-.14,0-.26-6.55-.26-14.63s.12-14.64.26-14.64.26,6.55.26,14.64S390.39,326.61,390.25,326.61Z" style="fill:#263238"></path><path d="M401.9,326.61c-.14,0-.26-6.55-.26-14.63s.12-14.64.26-14.64.26,6.55.26,14.64S402.05,326.61,401.9,326.61Z" style="fill:#263238"></path><path d="M466.07,323.24a1.85,1.85,0,0,1,0-.41c0-.29,0-.67,0-1.17,0-1.05,0-2.55,0-4.48,0-3.91-.06-9.53-.1-16.53l.18.18-61.27.08.26-.26h0v11.58c0,3.77,0,7.45,0,11l-.25-.25,43.83.12,12.79.07,3.44,0,.89,0h.32l-.29,0h-.86l-3.39,0-12.73.07-44,.11h-.25v-.25c0-3.54,0-7.22,0-11V300.67h0l.26-.26,61.27.08h.17v.18c0,7.05-.07,12.71-.09,16.63,0,1.92,0,3.41,0,4.45,0,.48,0,.86,0,1.14S466.07,323.25,466.07,323.24Z" style="fill:#263238"></path><path d="M409.53,323.24c-.14,0-.26-5.06-.26-11.29s.12-11.3.26-11.3.26,5.06.26,11.3S409.67,323.24,409.53,323.24Z" style="fill:#263238"></path><path d="M415.29,323.24c-.14,0-.26-5.06-.26-11.29s.12-11.3.26-11.3.26,5.06.26,11.3S415.43,323.24,415.29,323.24Z" style="fill:#263238"></path><path d="M421.05,323.24c-.14,0-.26-5.06-.26-11.29s.12-11.3.26-11.3.26,5.06.26,11.3S421.2,323.24,421.05,323.24Z" style="fill:#263238"></path><path d="M426.81,323.24c-.14,0-.26-5.06-.26-11.29s.12-11.3.26-11.3.26,5.06.26,11.3S427,323.24,426.81,323.24Z" style="fill:#263238"></path><path d="M432.58,323.24c-.15,0-.26-5.06-.26-11.29s.11-11.3.26-11.3.26,5.06.26,11.3S432.72,323.24,432.58,323.24Z" style="fill:#263238"></path><path d="M438.34,323.24c-.15,0-.26-5.06-.26-11.29s.11-11.3.26-11.3.26,5.06.26,11.3S438.48,323.24,438.34,323.24Z" style="fill:#263238"></path><path d="M444.1,323.24c-.14,0-.26-5.06-.26-11.29s.12-11.3.26-11.3.26,5.06.26,11.3S444.24,323.24,444.1,323.24Z" style="fill:#263238"></path><path d="M449.86,323.24c-.14,0-.26-5.06-.26-11.29s.12-11.3.26-11.3.26,5.06.26,11.3S450,323.24,449.86,323.24Z" style="fill:#263238"></path><path d="M455.62,323.24c-.14,0-.26-5.06-.26-11.29s.12-11.3.26-11.3.26,5.06.26,11.3S455.77,323.24,455.62,323.24Z" style="fill:#263238"></path><path d="M461.38,323.24c-.14,0-.26-5.06-.26-11.29s.12-11.3.26-11.3.27,5.06.27,11.3S461.53,323.24,461.38,323.24Z" style="fill:#263238"></path><rect x="163.06" y="252.41" width="24.31" height="29.53" style="fill:#455a64"></rect><rect x="187.38" y="252.41" width="67.98" height="29.53" style="fill:#455a64"></rect><path d="M175.73,281.93c-.15,0-.26-6.55-.26-14.63s.11-14.64.26-14.64.26,6.55.26,14.64S175.87,281.93,175.73,281.93Z" style="fill:#263238"></path><path d="M187.38,281.93c-.14,0-.26-6.55-.26-14.63s.12-14.64.26-14.64.26,6.55.26,14.64S187.52,281.93,187.38,281.93Z" style="fill:#263238"></path><path d="M251.54,278.56s0-.14,0-.41,0-.67,0-1.17c0-1.05,0-2.55,0-4.48,0-3.9-.05-9.53-.09-16.53l.17.18-61.26.08.26-.26h0v2.92c0,1,0,1.95,0,2.92v16.73l-.25-.25,43.83.12,12.78.07,3.44,0,.9,0h.31a1.32,1.32,0,0,1-.28,0l-.87,0-3.38,0-12.73.07-44,.11H190v-17c0-1,0-1.94,0-2.92V256h0c0,.06.5-.49.27-.26l61.26.09h.18V256c0,7-.07,12.71-.1,16.63,0,1.92,0,3.41,0,4.45,0,.48,0,.86,0,1.14A1.39,1.39,0,0,1,251.54,278.56Z" style="fill:#263238"></path><path d="M195,278.56c-.15,0-.26-5.05-.26-11.29s.11-11.3.26-11.3.26,5.06.26,11.3S195.15,278.56,195,278.56Z" style="fill:#263238"></path><path d="M200.77,278.56c-.15,0-.26-5.05-.26-11.29s.11-11.3.26-11.3.26,5.06.26,11.3S200.91,278.56,200.77,278.56Z" style="fill:#263238"></path><path d="M206.53,278.56c-.14,0-.26-5.05-.26-11.29s.12-11.3.26-11.3.26,5.06.26,11.3S206.67,278.56,206.53,278.56Z" style="fill:#263238"></path><path d="M212.29,278.56c-.14,0-.26-5.05-.26-11.29s.12-11.3.26-11.3.26,5.06.26,11.3S212.44,278.56,212.29,278.56Z" style="fill:#263238"></path><path d="M218.05,278.56c-.14,0-.26-5.05-.26-11.29s.12-11.3.26-11.3.26,5.06.26,11.3S218.2,278.56,218.05,278.56Z" style="fill:#263238"></path><path d="M223.82,278.56c-.15,0-.27-5.05-.27-11.29s.12-11.3.27-11.3.26,5.06.26,11.3S224,278.56,223.82,278.56Z" style="fill:#263238"></path><path d="M229.58,278.56c-.15,0-.26-5.05-.26-11.29s.11-11.3.26-11.3.26,5.06.26,11.3S229.72,278.56,229.58,278.56Z" style="fill:#263238"></path><path d="M235.34,278.56c-.15,0-.26-5.05-.26-11.29s.11-11.3.26-11.3.26,5.06.26,11.3S235.48,278.56,235.34,278.56Z" style="fill:#263238"></path><path d="M241.1,278.56c-.14,0-.26-5.05-.26-11.29s.12-11.3.26-11.3.26,5.06.26,11.3S241.24,278.56,241.1,278.56Z" style="fill:#263238"></path><path d="M246.86,278.56c-.14,0-.26-5.05-.26-11.29s.12-11.3.26-11.3.26,5.06.26,11.3S247,278.56,246.86,278.56Z" style="fill:#263238"></path><rect x="379.14" y="267.18" width="24.31" height="29.53" style="fill:#263238"></rect><rect x="403.45" y="267.18" width="67.98" height="29.53" style="fill:#263238"></rect><path d="M391.8,296.7c-.15,0-.26-6.55-.26-14.63s.11-14.64.26-14.64.26,6.55.26,14.64S391.94,296.7,391.8,296.7Z" style="fill:#455a64"></path><path d="M403.45,296.7c-.14,0-.26-6.55-.26-14.63s.12-14.64.26-14.64.26,6.55.26,14.64S403.59,296.7,403.45,296.7Z" style="fill:#455a64"></path><path d="M467.61,293.33s0-.14,0-.41,0-.67,0-1.17c0-1.05,0-2.55-.05-4.48,0-3.9,0-9.53-.09-16.53l.17.18-61.26.08c-.23.24.31-.31.26-.25h0v5.84c0,1.93,0,3.85,0,5.74v11l-.25-.25,43.83.12,12.79.07,3.43,0,.9,0h.31a.79.79,0,0,1-.28,0l-.86,0-3.39,0-12.73.07-44,.12h-.25v-.26c0-3.54,0-7.21,0-11V270.76h0c-.06.05.49-.5.26-.27l61.26.09h.18v.17c0,7.05-.07,12.71-.09,16.63,0,1.92,0,3.41-.05,4.45,0,.48,0,.86,0,1.14A1.39,1.39,0,0,1,467.61,293.33Z" style="fill:#455a64"></path><path d="M411.08,293.33c-.15,0-.26-5.05-.26-11.29s.11-11.3.26-11.3.26,5.06.26,11.3S411.22,293.33,411.08,293.33Z" style="fill:#455a64"></path><path d="M416.84,293.33c-.14,0-.26-5.05-.26-11.29s.12-11.3.26-11.3.26,5.06.26,11.3S417,293.33,416.84,293.33Z" style="fill:#455a64"></path><path d="M422.6,293.33c-.14,0-.26-5.05-.26-11.29s.12-11.3.26-11.3.26,5.06.26,11.3S422.74,293.33,422.6,293.33Z" style="fill:#455a64"></path><path d="M428.36,293.33c-.14,0-.26-5.05-.26-11.29s.12-11.3.26-11.3.26,5.06.26,11.3S428.51,293.33,428.36,293.33Z" style="fill:#455a64"></path><path d="M434.12,293.33c-.14,0-.26-5.05-.26-11.29s.12-11.3.26-11.3.26,5.06.26,11.3S434.27,293.33,434.12,293.33Z" style="fill:#455a64"></path><path d="M439.89,293.33c-.15,0-.26-5.05-.26-11.29s.11-11.3.26-11.3.26,5.06.26,11.3S440,293.33,439.89,293.33Z" style="fill:#455a64"></path><path d="M445.65,293.33c-.15,0-.26-5.05-.26-11.29s.11-11.3.26-11.3.26,5.06.26,11.3S445.79,293.33,445.65,293.33Z" style="fill:#455a64"></path><path d="M451.41,293.33c-.14,0-.26-5.05-.26-11.29s.12-11.3.26-11.3.26,5.06.26,11.3S451.55,293.33,451.41,293.33Z" style="fill:#455a64"></path><path d="M457.17,293.33c-.14,0-.26-5.05-.26-11.29s.12-11.3.26-11.3.26,5.06.26,11.3S457.32,293.33,457.17,293.33Z" style="fill:#455a64"></path><path d="M462.93,293.33c-.14,0-.26-5.05-.26-11.29s.12-11.3.26-11.3.26,5.06.26,11.3S463.08,293.33,462.93,293.33Z" style="fill:#455a64"></path><rect x="382.95" y="326.61" width="24.31" height="29.53" style="fill:#A62121"></rect><rect x="407.27" y="326.61" width="67.98" height="29.53" style="fill:#A62121"></rect><rect x="407.27" y="326.61" width="67.98" height="29.53" style="opacity:0.4"></rect><path d="M395.62,356.14c-.15,0-.26-6.56-.26-14.64s.11-14.64.26-14.64.26,6.56.26,14.64S395.76,356.14,395.62,356.14Z" style="fill:#263238"></path><path d="M471.43,352.77s0-.15,0-.41,0-.68,0-1.18c0-1,0-2.55,0-4.48,0-3.9-.05-9.52-.09-16.52l.17.17-61.26.09.26-.26h0v2.94c0,1,0,1.95,0,2.91v16.74l-.26-.25,43.84.11,12.78.07,3.44,0h.9l.31,0h-.28l-.87,0-3.38,0-12.73.07-44,.12h-.25V341.77c0-1.89,0-3.8,0-5.74v-5.85h0c0,.05.5-.5.27-.26l61.26.08h.18v.18c0,7-.07,12.7-.1,16.63,0,1.91,0,3.4,0,4.44,0,.48,0,.86,0,1.14A1.52,1.52,0,0,1,471.43,352.77Z" style="fill:#263238"></path><path d="M414.9,352.77c-.15,0-.26-5.06-.26-11.3s.11-11.29.26-11.29.26,5.05.26,11.29S415,352.77,414.9,352.77Z" style="fill:#263238"></path><path d="M420.66,352.77c-.15,0-.26-5.06-.26-11.3s.11-11.29.26-11.29.26,5.05.26,11.29S420.8,352.77,420.66,352.77Z" style="fill:#263238"></path><path d="M426.42,352.77c-.14,0-.26-5.06-.26-11.3s.12-11.29.26-11.29.26,5.05.26,11.29S426.56,352.77,426.42,352.77Z" style="fill:#263238"></path><path d="M432.18,352.77c-.14,0-.26-5.06-.26-11.3s.12-11.29.26-11.29.26,5.05.26,11.29S432.32,352.77,432.18,352.77Z" style="fill:#263238"></path><path d="M437.94,352.77c-.14,0-.26-5.06-.26-11.3s.12-11.29.26-11.29.26,5.05.26,11.29S438.09,352.77,437.94,352.77Z" style="fill:#263238"></path><path d="M443.7,352.77c-.14,0-.26-5.06-.26-11.3s.12-11.29.26-11.29.27,5.05.27,11.29S443.85,352.77,443.7,352.77Z" style="fill:#263238"></path><path d="M449.47,352.77c-.15,0-.26-5.06-.26-11.3s.11-11.29.26-11.29.26,5.05.26,11.29S449.61,352.77,449.47,352.77Z" style="fill:#263238"></path><path d="M455.23,352.77c-.15,0-.26-5.06-.26-11.3s.11-11.29.26-11.29.26,5.05.26,11.29S455.37,352.77,455.23,352.77Z" style="fill:#263238"></path><path d="M461,352.77c-.14,0-.26-5.06-.26-11.3s.12-11.29.26-11.29.26,5.05.26,11.29S461.13,352.77,461,352.77Z" style="fill:#263238"></path><path d="M466.75,352.77c-.14,0-.26-5.06-.26-11.3s.12-11.29.26-11.29.26,5.05.26,11.29S466.9,352.77,466.75,352.77Z" style="fill:#263238"></path><path d="M371.27,347l-.34,0-1,0-3.82.05-14.07.08-46.4.08c-24,0-45-.05-56.2-.13l.13-.13c0,3,0,5.36-.06,7,0,.77,0,1.38,0,1.82,0,.18,0,.34,0,.46s0,.16,0,.16,0-.05,0-.16l0-.46c0-.44,0-1.05,0-1.82,0-1.64,0-4-.06-7v-.13h.14c11.23-.08,32.21-.13,56.2-.13l46.4.08,14.07.08,3.82.05,1,0Z" style="fill:#263238"></path><path d="M361.17,355.36a33.17,33.17,0,0,1,0-8.29,33.17,33.17,0,0,1,0,8.29Z" style="fill:#263238"></path><path d="M344.15,355.36a33.17,33.17,0,0,1,0-8.29,33.17,33.17,0,0,1,0,8.29Z" style="fill:#263238"></path><path d="M327.13,355.36a33.17,33.17,0,0,1,0-8.29,33.17,33.17,0,0,1,0,8.29Z" style="fill:#263238"></path><path d="M310.1,355.36a33.17,33.17,0,0,1,0-8.29,33.17,33.17,0,0,1,0,8.29Z" style="fill:#263238"></path><path d="M293.08,355.36a33.17,33.17,0,0,1,0-8.29,33.17,33.17,0,0,1,0,8.29Z" style="fill:#263238"></path><path d="M276.06,355.36a32,32,0,0,1,0-8.29,33.17,33.17,0,0,1,0,8.29Z" style="fill:#263238"></path><path d="M259,355.36a33.17,33.17,0,0,1,0-8.29,33.17,33.17,0,0,1,0,8.29Z" style="fill:#263238"></path><path d="M493.09,355.05a3.36,3.36,0,0,1,0-.52q0-.55,0-1.53c0-1.39,0-3.39-.06-6l.12.13c-10.71.08-32.2.13-56.9.13l-45.91-.07-13.91-.09-3.79,0-1,0a1.39,1.39,0,0,1-.33,0l.33,0,1,0,3.79-.05,13.91-.08,45.91-.08c24.7,0,46.19.06,56.9.14h.13V347c0,2.58,0,4.58,0,6,0,.65,0,1.16,0,1.53A3.36,3.36,0,0,1,493.09,355.05Z" style="fill:#263238"></path><path d="M449,355.39a33.17,33.17,0,0,1,0-8.29,33.17,33.17,0,0,1,0,8.29Z" style="fill:#263238"></path><path d="M431.93,355.39a33.17,33.17,0,0,1,0-8.29,33.17,33.17,0,0,1,0,8.29Z" style="fill:#263238"></path><path d="M414.9,355.39a33.17,33.17,0,0,1,0-8.29,32,32,0,0,1,0,8.29Z" style="fill:#263238"></path><path d="M397.88,355.39a33.17,33.17,0,0,1,0-8.29,33.17,33.17,0,0,1,0,8.29Z" style="fill:#263238"></path><path d="M380.86,355.39a33.17,33.17,0,0,1,0-8.29,33.17,33.17,0,0,1,0,8.29Z" style="fill:#263238"></path><path d="M247.27,342.52a3.52,3.52,0,0,1,0-.52q0-.56,0-1.53c0-1.39,0-3.39-.06-6l.12.12c-11.31.08-34.68.14-61.61.14-25.89,0-48.47-.05-60.21-.13l.13-.13c0,3,0,5.38-.06,7,0,.78,0,1.38,0,1.82s0,.62,0,.62a5.92,5.92,0,0,1,0-.62c0-.44,0-1,0-1.82,0-1.62,0-4-.06-7v-.13h.13c11.74-.08,34.32-.13,60.21-.13,26.93,0,50.3.06,61.61.14h.12v.12c0,2.58,0,4.58,0,6q0,1,0,1.53A2.66,2.66,0,0,1,247.27,342.52Z" style="fill:#263238"></path><path d="M237.18,342.85a33.17,33.17,0,0,1,0-8.29,33.17,33.17,0,0,1,0,8.29Z" style="fill:#263238"></path><path d="M220.16,342.85a33.17,33.17,0,0,1,0-8.29,33.17,33.17,0,0,1,0,8.29Z" style="fill:#263238"></path><path d="M203.13,342.85a33.17,33.17,0,0,1,0-8.29,33.17,33.17,0,0,1,0,8.29Z" style="fill:#263238"></path><path d="M186.11,342.85a33.17,33.17,0,0,1,0-8.29,33.17,33.17,0,0,1,0,8.29Z" style="fill:#263238"></path><path d="M169.09,342.85a33.17,33.17,0,0,1,0-8.29,33.17,33.17,0,0,1,0,8.29Z" style="fill:#263238"></path><path d="M152.06,342.85a33.17,33.17,0,0,1,0-8.29,33.17,33.17,0,0,1,0,8.29Z" style="fill:#263238"></path><path d="M135,342.85a33.17,33.17,0,0,1,0-8.29,33.17,33.17,0,0,1,0,8.29Z" style="fill:#263238"></path><rect x="163.06" y="281.94" width="24.31" height="29.53" style="fill:#A62121"></rect><rect x="187.38" y="281.94" width="67.98" height="29.53" style="fill:#A62121"></rect><rect x="187.38" y="281.94" width="67.98" height="29.53" style="opacity:0.4"></rect><path d="M175.73,311.47c-.15,0-.26-6.56-.26-14.64s.11-14.64.26-14.64.26,6.56.26,14.64S175.87,311.47,175.73,311.47Z" style="fill:#263238"></path><path d="M251.54,308.1s0-.15,0-.41,0-.68,0-1.18c0-1,0-2.55,0-4.48,0-3.9-.05-9.52-.09-16.52l.17.17-61.26.09.26-.26h0v2.94c0,1,0,1.95,0,2.91V308.1l-.25-.25,43.83.11,12.78.07,3.44,0h.9a1.92,1.92,0,0,1,.31,0h-.28l-.87,0-3.38,0-12.73.07-44,.12H190v-17c0-1,0-1.94,0-2.91v-2.94h0c0,.05.5-.5.27-.26l61.26.08h.18v.18c0,7-.07,12.7-.1,16.63,0,1.91,0,3.4,0,4.44,0,.48,0,.86,0,1.14A1.52,1.52,0,0,1,251.54,308.1Z" style="fill:#263238"></path><path d="M195,308.1c-.15,0-.26-5.06-.26-11.3s.11-11.29.26-11.29.26,5.05.26,11.29S195.15,308.1,195,308.1Z" style="fill:#263238"></path><path d="M200.77,308.1c-.15,0-.26-5.06-.26-11.3s.11-11.29.26-11.29.26,5.05.26,11.29S200.91,308.1,200.77,308.1Z" style="fill:#263238"></path><path d="M206.53,308.1c-.14,0-.26-5.06-.26-11.3s.12-11.29.26-11.29.26,5.05.26,11.29S206.67,308.1,206.53,308.1Z" style="fill:#263238"></path><path d="M212.29,308.1c-.14,0-.26-5.06-.26-11.3s.12-11.29.26-11.29.26,5.05.26,11.29S212.44,308.1,212.29,308.1Z" style="fill:#263238"></path><path d="M218.05,308.1c-.14,0-.26-5.06-.26-11.3s.12-11.29.26-11.29.26,5.05.26,11.29S218.2,308.1,218.05,308.1Z" style="fill:#263238"></path><path d="M223.82,308.1c-.15,0-.27-5.06-.27-11.3s.12-11.29.27-11.29.26,5.05.26,11.29S224,308.1,223.82,308.1Z" style="fill:#263238"></path><path d="M229.58,308.1c-.15,0-.26-5.06-.26-11.3s.11-11.29.26-11.29.26,5.05.26,11.29S229.72,308.1,229.58,308.1Z" style="fill:#263238"></path><path d="M235.34,308.1c-.15,0-.26-5.06-.26-11.3s.11-11.29.26-11.29.26,5.05.26,11.29S235.48,308.1,235.34,308.1Z" style="fill:#263238"></path><path d="M241.1,308.1c-.14,0-.26-5.06-.26-11.3s.12-11.29.26-11.29.26,5.05.26,11.29S241.24,308.1,241.1,308.1Z" style="fill:#263238"></path><path d="M246.86,308.1c-.14,0-.26-5.06-.26-11.3s.12-11.29.26-11.29.26,5.05.26,11.29S247,308.1,246.86,308.1Z" style="fill:#263238"></path><polyline points="493.95 355.82 493.95 288.12 561.08 288.12 561.08 356.44" style="fill:#455a64"></polyline><rect x="539.43" y="347.68" width="3.74" height="8.14" style="fill:#263238"></rect><rect x="499.38" y="336.71" width="2.35" height="5.81" style="fill:#263238"></rect><rect x="499.38" y="347" width="2.35" height="5.81" style="fill:#263238"></rect><rect x="512.87" y="336.71" width="2.35" height="5.81" style="fill:#263238"></rect><rect x="512.87" y="346.91" width="2.35" height="5.81" style="fill:#263238"></rect><rect x="526.36" y="336.71" width="2.35" height="5.81" style="fill:#263238"></rect><rect x="526.36" y="346.83" width="2.35" height="5.81" style="fill:#263238"></rect><rect x="539.85" y="336.71" width="2.35" height="5.81" style="fill:#263238"></rect><rect x="553.33" y="336.71" width="2.35" height="5.81" style="fill:#263238"></rect><rect x="553.33" y="346.49" width="2.35" height="5.81" style="fill:#263238"></rect><rect x="539.15" y="310.8" width="3.74" height="8.14" style="fill:#263238"></rect><rect x="499.38" y="295.21" width="2.35" height="5.81" style="fill:#263238"></rect><rect x="499.38" y="305.5" width="2.35" height="5.81" style="fill:#263238"></rect><rect x="512.87" y="295.21" width="2.35" height="5.81" style="fill:#263238"></rect><rect x="512.87" y="305.41" width="2.35" height="5.81" style="fill:#263238"></rect><rect x="526.36" y="295.21" width="2.35" height="5.81" style="fill:#263238"></rect><rect x="526.36" y="305.33" width="2.35" height="5.81" style="fill:#263238"></rect><rect x="539.85" y="295.21" width="2.35" height="5.81" style="fill:#263238"></rect><rect x="553.33" y="295.21" width="2.35" height="5.81" style="fill:#263238"></rect><rect x="553.33" y="304.99" width="2.35" height="5.81" style="fill:#263238"></rect><path d="M184.62,419.87s10.5-38.48-27.46-47.24c-35.5-8.19-34.63-30.11-34.63-30.11H249.71v13.3H584.44s-1.82,43.11-33.23,64.05" style="fill:#455a64"></path><path d="M185.51,401.81h383.6s-10.6,14.34-17.9,18.06H184.62A99.07,99.07,0,0,0,185.51,401.81Z" style="fill:#263238"></path><path d="M559.2,318.94a3.39,3.39,0,0,1-.05-.75c0-.53,0-1.25,0-2.15l.1.1c-5.71.1-19.47.16-35.53.16s-29.83-.06-35.54-.16l.1-.1c0,.9,0,1.62-.05,2.15a3.39,3.39,0,0,1-.05.75,6.35,6.35,0,0,1-.05-.75c0-.53,0-1.25-.05-2.15V316h.1c5.71-.09,19.47-.16,35.54-.16s29.82.07,35.53.16h.1V316c0,.9,0,1.62,0,2.15A4.41,4.41,0,0,1,559.2,318.94Z" style="fill:#263238"></path><path d="M497,319.72c-.14,0-.26-.85-.26-1.91s.12-1.91.26-1.91.26.86.26,1.91S497.11,319.72,497,319.72Z" style="fill:#263238"></path><path d="M506.36,319.72c-.14,0-.26-.85-.26-1.91s.12-1.91.26-1.91.26.86.26,1.91S506.51,319.72,506.36,319.72Z" style="fill:#263238"></path><path d="M515.77,319.72c-.15,0-.26-.85-.26-1.91s.11-1.91.26-1.91.26.86.26,1.91S515.91,319.72,515.77,319.72Z" style="fill:#263238"></path><path d="M525.17,319.72c-.15,0-.26-.85-.26-1.91s.11-1.91.26-1.91.26.86.26,1.91S525.31,319.72,525.17,319.72Z" style="fill:#263238"></path><path d="M534.57,319.72c-.14,0-.26-.85-.26-1.91s.12-1.91.26-1.91.26.86.26,1.91S534.71,319.72,534.57,319.72Z" style="fill:#263238"></path><path d="M544,319.72c-.14,0-.26-.85-.26-1.91s.12-1.91.26-1.91.26.86.26,1.91S544.12,319.72,544,319.72Z" style="fill:#263238"></path><path d="M553.37,319.72c-.14,0-.26-.85-.26-1.91s.12-1.91.26-1.91.26.86.26,1.91S553.52,319.72,553.37,319.72Z" style="fill:#263238"></path><rect x="486.73" y="318.94" width="74.34" height="7.42" style="fill:#263238"></rect><polygon points="505.24 277.75 513.33 277.75 514.22 282.89 505.24 282.89 505.24 277.75" style="fill:#fff;opacity:0.4"></polygon><path d="M584.12,355.05a4.36,4.36,0,0,1,0-.53c0-.39,0-.9,0-1.56,0-1.4,0-3.4-.07-5.93l.14.14c-9,.08-25.18.12-43.59.12l-36.5-.07L493,347.13l-3,0-.78,0a.94.94,0,0,1-.27,0l.27,0,.78,0,3-.05,11.06-.08,36.5-.08c18.41,0,34.57.05,43.59.12h.14V347c0,2.53,0,4.53-.07,5.93,0,.66,0,1.17,0,1.56A2.72,2.72,0,0,1,584.12,355.05Z" style="fill:#263238"></path><path d="M574,355.39a33.17,33.17,0,0,1,0-8.29,33.17,33.17,0,0,1,0,8.29Z" style="fill:#263238"></path><path d="M557,355.39a32,32,0,0,1,0-8.29,33.17,33.17,0,0,1,0,8.29Z" style="fill:#263238"></path><path d="M540,355.39a33.17,33.17,0,0,1,0-8.29,33.17,33.17,0,0,1,0,8.29Z" style="fill:#263238"></path><path d="M523,355.39a33.17,33.17,0,0,1,0-8.29,33.17,33.17,0,0,1,0,8.29Z" style="fill:#263238"></path><path d="M505.93,355.39a33.17,33.17,0,0,1,0-8.29,32,32,0,0,1,0,8.29Z" style="fill:#263238"></path><path d="M488.91,355.39a33.17,33.17,0,0,1,0-8.29,33.17,33.17,0,0,1,0,8.29Z" style="fill:#263238"></path><path d="M471.89,355.39a33.17,33.17,0,0,1,0-8.29,33.17,33.17,0,0,1,0,8.29Z" style="fill:#263238"></path></g></svg>