<svg id="visual" viewBox="0 0 960 540" width="960" height="540" xmlns="http://www.w3.org/2000/svg" xmlns:xlink="http://www.w3.org/1999/xlink" version="1.1"><rect x="0" y="0" width="960" height="540" fill="#241C59"></rect><path d="M0 461L32 452C64 443 128 425 192 424.2C256 423.3 320 439.7 384 445.2C448 450.7 512 445.3 576 440.2C640 435 704 430 768 433.2C832 436.3 896 447.7 928 453.3L960 459L960 541L928 541C896 541 832 541 768 541C704 541 640 541 576 541C512 541 448 541 384 541C320 541 256 541 192 541C128 541 64 541 32 541L0 541Z" fill="#6524a6"></path><path d="M0 471L32 467.7C64 464.3 128 457.7 192 454.2C256 450.7 320 450.3 384 455.7C448 461 512 472 576 478.5C640 485 704 487 768 486.2C832 485.3 896 481.7 928 479.8L960 478L960 541L928 541C896 541 832 541 768 541C704 541 640 541 576 541C512 541 448 541 384 541C320 541 256 541 192 541C128 541 64 541 32 541L0 541Z" fill="#b691d3"></path><path d="M0 478L32 478C64 478 128 478 192 482.3C256 486.7 320 495.3 384 501.2C448 507 512 510 576 505.3C640 500.7 704 488.3 768 487.7C832 487 896 498 928 503.5L960 509L960 541L928 541C896 541 832 541 768 541C704 541 640 541 576 541C512 541 448 541 384 541C320 541 256 541 192 541C128 541 64 541 32 541L0 541Z" fill="#ffffff"></path></svg>