<svg id="visual" viewBox="0 0 960 540" width="960" height="540" xmlns="http://www.w3.org/2000/svg" xmlns:xlink="http://www.w3.org/1999/xlink" version="1.1"><rect x="0" y="0" width="960" height="540" fill="#002233"></rect><path d="M0 481L32 479.2C64 477.3 128 473.7 192 472.7C256 471.7 320 473.3 384 482.8C448 492.3 512 509.7 576 514.3C640 519 704 511 768 504.5C832 498 896 493 928 490.5L960 488L960 541L928 541C896 541 832 541 768 541C704 541 640 541 576 541C512 541 448 541 384 541C320 541 256 541 192 541C128 541 64 541 32 541L0 541Z" fill="#fff" stroke-linecap="round" stroke-linejoin="miter"></path></svg>